<?xml version="1.0" encoding="UTF-8" standalone="no"?>
<!-- Created with Inkscape (http://www.inkscape.org/) -->

<svg
   xmlns:ns0="http://www.iki.fi/pav/software/textext/"
   xmlns:dc="http://purl.org/dc/elements/1.1/"
   xmlns:cc="http://creativecommons.org/ns#"
   xmlns:rdf="http://www.w3.org/1999/02/22-rdf-syntax-ns#"
   xmlns:svg="http://www.w3.org/2000/svg"
   xmlns="http://www.w3.org/2000/svg"
   xmlns:sodipodi="http://sodipodi.sourceforge.net/DTD/sodipodi-0.dtd"
   xmlns:inkscape="http://www.inkscape.org/namespaces/inkscape"
   sodipodi:docname="anlage2.pdf"
   inkscape:version="0.48.4 r9939"
   version="1.1"
   id="svg2"
   height="402.74173"
   width="574.24628">
  <sodipodi:namedview
     id="base"
     pagecolor="#ffffff"
     bordercolor="#666666"
     borderopacity="1.0"
     inkscape:pageopacity="0.0"
     inkscape:pageshadow="2"
     inkscape:zoom="1.4"
     inkscape:cx="207.59946"
     inkscape:cy="232.00465"
     inkscape:document-units="px"
     inkscape:current-layer="svg2"
     showgrid="false"
     inkscape:object-nodes="true"
     inkscape:window-width="1615"
     inkscape:window-height="1026"
     inkscape:window-x="65"
     inkscape:window-y="24"
     inkscape:window-maximized="1"
     inkscape:snap-object-midpoints="true"
     fit-margin-top="0"
     fit-margin-left="0"
     fit-margin-right="0"
     fit-margin-bottom="0" />
  <defs
     id="defs4">
    <marker
       style="overflow:visible"
       id="Arrow1Lend"
       refX="0"
       refY="0"
       orient="auto"
       inkscape:stockid="Arrow1Lend">
      <path
         inkscape:connector-curvature="0"
         transform="matrix(-0.8,0,0,-0.8,-10,0)"
         style="fill-rule:evenodd;stroke:#000000;stroke-width:1pt"
         d="M 0,0 5,-5 -12.5,0 5,5 0,0 z"
         id="path5086" />
    </marker>
  </defs>
  <metadata
     id="metadata7">
    <rdf:RDF>
      <cc:Work
         rdf:about="">
        <dc:format>image/svg+xml</dc:format>
        <dc:type
           rdf:resource="http://purl.org/dc/dcmitype/StillImage" />
        <dc:title></dc:title>
      </cc:Work>
    </rdf:RDF>
  </metadata>
  <g
     transform="translate(-15.008169,-76.66006)"
     inkscape:label="Ebene 1"
     inkscape:groupmode="layer"
     id="layer1">
    <path
       sodipodi:end="0.78539816"
       sodipodi:start="0"
       d="m 544.47221,276.05994 c 0,46.75014 -18.57142,91.58551 -51.62876,124.64286 L 368.20059,276.05994 z"
       sodipodi:ry="176.27162"
       sodipodi:rx="176.27162"
       sodipodi:cy="276.05994"
       sodipodi:cx="368.20059"
       id="path3798"
       style="fill:#ffffff;fill-opacity:1;stroke:#000000;stroke-width:1;stroke-linecap:butt;stroke-miterlimit:4;stroke-opacity:1;stroke-dasharray:none;stroke-dashoffset:0"
       sodipodi:type="arc"
       transform="matrix(-0.70710678,0.70710678,-0.70710678,-0.70710678,823.76158,210.90665)" />
  </g>
  <g
     ns0:preamble=""
     ns0:text="$M_1=$ Einlegen"
     word-spacing="normal"
     letter-spacing="normal"
     font-size-adjust="none"
     font-stretch="normal"
     font-weight="normal"
     font-variant="normal"
     font-style="normal"
     stroke-miterlimit="10.433"
     xml:space="preserve"
     transform="matrix(3,0,0,-3,-671.43674,2421.9113)"
     id="content"
     style="font-style:normal;font-variant:normal;font-weight:normal;font-stretch:normal;letter-spacing:normal;word-spacing:normal;text-anchor:start;fill:none;stroke:#000000;stroke-linecap:butt;stroke-linejoin:miter;stroke-miterlimit:10.43299961;stroke-opacity:1;stroke-dasharray:none;stroke-dashoffset:0"><path
       id="path3642"
       d="m 232.65,713.15 0,0.03 0.01,0.03 0.01,0.03 0.01,0.03 0,0.02 0.01,0.03 0.01,0.02 0.01,0.03 0.01,0.02 0.01,0.02 0.01,0.02 0.02,0.02 0.01,0.01 0.02,0.02 0.02,0.01 0.02,0.02 0.02,0.01 0.02,0.01 0.03,0.01 0.03,0.01 0.03,0.01 0.01,0 0.02,0.01 0.02,0 0.02,0 0.01,0.01 0.02,0 0.03,0 0.02,0.01 0.02,0 0.02,0 0.03,0 0.02,0 0.03,0.01 0.02,0 0.03,0 0.03,0 0.03,0 0.03,0 0.03,0 0.03,0 0.04,0 0.03,0 c 0.23,0 0.32,0 0.32,0.2 0,0.11 -0.1,0.11 -0.27,0.11 h -1.31 c -0.26,0 -0.27,0 -0.39,-0.19 l -3.63,-5.66 -0.78,5.62 c -0.03,0.23 -0.05,0.23 -0.31,0.23 h -1.36 c -0.19,0 -0.3,0 -0.3,-0.19 0,-0.12 0.09,-0.12 0.29,-0.12 0.13,0 0.31,-0.01 0.43,-0.02 0.16,-0.02 0.22,-0.05 0.22,-0.16 0,-0.04 -0.01,-0.07 -0.04,-0.19 l -1.27,-5.05 c -0.1,-0.4 -0.26,-0.72 -1.07,-0.75 -0.05,0 -0.18,-0.01 -0.18,-0.19 0,-0.08 0.06,-0.12 0.14,-0.12 0.32,0 0.67,0.04 0.99,0.04 0.34,0 0.7,-0.04 1.03,-0.04 0.05,0 0.18,0 0.18,0.2 0,0.11 -0.11,0.11 -0.18,0.11 -0.57,0.01 -0.68,0.21 -0.68,0.44 0,0.07 0.01,0.12 0.04,0.23 l 1.36,5.41 h 0.01 l 0.85,-6.16 c 0.02,-0.12 0.03,-0.23 0.15,-0.23 0.11,0 0.17,0.11 0.22,0.18 l 4.02,6.29 h 0.01 l -1.42,-5.69 c -0.1,-0.39 -0.12,-0.47 -0.91,-0.47 -0.17,0 -0.28,0 -0.28,-0.19 0,-0.12 0.12,-0.12 0.15,-0.12 0.28,0 0.96,0.04 1.23,0.04 0.41,0 0.84,-0.04 1.25,-0.04 0.06,0 0.19,0 0.19,0.2 0,0.11 -0.09,0.11 -0.28,0.11 -0.37,0 -0.65,0 -0.65,0.18 0,0.04 0,0.06 0.05,0.24 z"
       inkscape:connector-curvature="0"
       style="fill:#000000;stroke-width:0" /><path
       id="path3644"
       d="m 235.43,710.05 0,0.01 0,0.01 0,0.01 0,0.01 0,0 0,0.01 0,0.01 0,0.01 0,0 0,0.01 0,0.01 0,0 0,0.01 0,0 0,0.01 -0.01,0 0,0.01 0,0 0,0.01 0,0.01 0,0.01 -0.01,0 0,0.01 -0.01,0.01 0,0 -0.01,0.01 0,0 -0.01,0 -0.01,0.01 -0.01,0 0,0 -0.01,0 -0.01,0 0,0 -0.01,0 -0.01,0.01 0,0 -0.01,0 0,0 -0.01,0 -0.01,0 0,0 -0.01,0 -0.01,0 -0.01,0 0,0 -0.01,0 -0.01,0 -0.01,0 -0.01,0 c -0.45,-0.44 -1.08,-0.45 -1.36,-0.45 v -0.25 c 0.16,0 0.62,0 1.01,0.2 v -3.55 c 0,-0.23 0,-0.32 -0.7,-0.32 h -0.27 v -0.25 c 0.13,0.01 0.99,0.03 1.25,0.03 0.21,0 1.09,-0.02 1.24,-0.03 v 0.25 h -0.26 c -0.7,0 -0.7,0.09 -0.7,0.32 z"
       inkscape:connector-curvature="0"
       style="fill:#000000;stroke-width:0" /><path
       id="path3646"
       d="m 247.17,710.37 0.03,0 0.03,0 0.03,0 0.01,0.01 0.01,0 0.02,0 0.01,0 0.02,0 0.01,0 0.02,0.01 0.01,0 0.01,0 0.01,0.01 0.02,0 0.01,0.01 0.01,0 0.01,0.01 0.01,0.01 0.01,0.01 0.01,0.01 0.01,0.01 0,0 0,0.01 0.01,0 0,0.01 0,0.01 0,0 0.01,0.01 0,0.01 0,0 0,0.01 0,0.01 0,0.01 0.01,0.01 0,0 0,0.01 0,0.01 c 0,0.2 -0.19,0.2 -0.33,0.2 h -5.96 c -0.14,0 -0.33,0 -0.33,-0.2 0,-0.2 0.19,-0.2 0.34,-0.2 z"
       inkscape:connector-curvature="0"
       style="fill:#000000;stroke-width:0" /><path
       id="path3648"
       d="m 247.18,708.45 0.01,0 0.02,0 0.02,0 0.03,0 0.01,0 0.02,0 0.01,0 0.02,0 0.01,0 0.01,0.01 0.02,0 0.01,0 0.01,0.01 0.02,0 0.01,0.01 0.01,0 0.01,0.01 0.01,0 0.01,0.01 0.01,0.01 0.01,0.01 0,0 0.01,0.01 0,0.01 0,0 0.01,0.01 0,0 0,0.01 0,0.01 0.01,0 0,0.01 0,0.01 0,0 0,0.01 0,0.01 0.01,0.01 0,0.01 0,0.01 0,0.01 c 0,0.19 -0.19,0.19 -0.34,0.19 h -5.94 c -0.15,0 -0.34,0 -0.34,-0.19 0,-0.2 0.19,-0.2 0.33,-0.2 z"
       inkscape:connector-curvature="0"
       style="fill:#000000;stroke-width:0" /><path
       id="path3650"
       d="m 252.75,707.9 0,-0.03 0,-0.03 0,-0.03 0,-0.03 0,-0.03 0,-0.03 -0.01,-0.02 0,-0.02 -0.01,-0.03 0,-0.02 -0.01,-0.02 -0.01,-0.02 -0.02,-0.01 -0.01,-0.02 -0.01,-0.01 -0.02,-0.02 -0.02,-0.01 -0.02,-0.01 -0.02,-0.01 -0.01,0 -0.01,-0.01 -0.02,0 -0.01,-0.01 -0.02,0 -0.01,-0.01 -0.02,0 -0.02,0 -0.02,-0.01 -0.02,0 -0.02,0 -0.02,-0.01 -0.02,0 -0.02,0 -0.03,0 -0.02,-0.01 -0.02,0 -0.03,0 -0.03,0 -0.03,0 -0.03,0 -0.03,0 -0.03,-0.01 -0.03,0 -0.03,0 -0.04,0 -0.03,0 h -0.24 v -0.31 h 5.74 l 0.42,2.57 h -0.25 c -0.25,-1.53 -0.48,-2.26 -2.19,-2.26 h -1.32 c -0.47,0 -0.49,0.07 -0.49,0.4 v 2.65 h 0.89 c 0.97,0 1.08,-0.32 1.08,-1.16 h 0.25 v 2.63 h -0.25 c 0,-0.85 -0.11,-1.16 -1.08,-1.16 h -0.89 v 2.38 c 0,0.33 0.02,0.4 0.49,0.4 h 1.28 c 1.52,0 1.79,-0.54 1.95,-1.92 h 0.25 l -0.28,2.23 h -5.6 v -0.31 h 0.24 c 0.76,0 0.78,-0.11 0.78,-0.47 z"
       inkscape:connector-curvature="0"
       style="fill:#000000;stroke-width:0" /><path
       id="path3652"
       d="m 259.94,711.52 -1.39,-0.11 v -0.31 c 0.65,0 0.74,-0.06 0.74,-0.55 v -2.67 c 0,-0.45 -0.11,-0.45 -0.78,-0.45 v -0.31 c 0.32,0.02 0.85,0.04 1.09,0.04 0.35,0 0.7,-0.02 1.04,-0.04 v 0.31 c -0.66,0 -0.7,0.05 -0.7,0.44 z"
       inkscape:connector-curvature="0"
       style="fill:#000000;stroke-width:0" /><path
       id="path3654"
       d="m 259.98,713.24 0,0.03 0,0.03 0,0.03 -0.01,0.03 -0.01,0.02 0,0.03 -0.01,0.03 -0.01,0.02 -0.01,0.02 -0.01,0.03 -0.02,0.02 -0.01,0.02 -0.02,0.02 -0.01,0.02 -0.02,0.02 -0.02,0.02 -0.02,0.01 -0.02,0.02 -0.02,0.01 -0.02,0.02 -0.02,0.01 -0.02,0.01 -0.02,0.01 -0.03,0.01 -0.02,0.01 -0.02,0.01 -0.03,0.01 -0.02,0 -0.03,0.01 -0.02,0 -0.03,0 -0.03,0 c -0.3,0 -0.52,-0.27 -0.52,-0.53 0,-0.26 0.22,-0.52 0.52,-0.52 0.28,0 0.53,0.21 0.53,0.52 z"
       inkscape:connector-curvature="0"
       style="fill:#000000;stroke-width:0" /><path
       id="path3656"
       d="m 262.04,710.54 v -2.66 c 0,-0.45 -0.11,-0.45 -0.77,-0.45 v -0.31 c 0.34,0.02 0.85,0.04 1.12,0.04 0.26,0 0.78,-0.02 1.12,-0.04 v 0.31 c -0.67,0 -0.78,0 -0.78,0.45 v 1.83 c 0,1.03 0.71,1.59 1.34,1.59 0.63,0 0.74,-0.54 0.74,-1.1 v -2.32 c 0,-0.45 -0.11,-0.45 -0.78,-0.45 v -0.31 c 0.35,0.02 0.86,0.04 1.13,0.04 0.26,0 0.77,-0.02 1.11,-0.04 v 0.31 c -0.52,0 -0.76,0 -0.78,0.3 v 1.9 c 0,0.85 0,1.16 -0.3,1.52 -0.14,0.17 -0.47,0.37 -1.05,0.37 -0.72,0 -1.19,-0.43 -1.47,-1.05 v 1.05 l -1.4,-0.11 v -0.31 c 0.69,0 0.77,-0.07 0.77,-0.56 z"
       inkscape:connector-curvature="0"
       style="fill:#000000;stroke-width:0" /><path
       id="path3658"
       d="m 268.24,714.02 -1.43,-0.11 v -0.31 c 0.7,0 0.78,-0.07 0.78,-0.55 v -5.17 c 0,-0.45 -0.11,-0.45 -0.78,-0.45 v -0.31 c 0.33,0.02 0.86,0.04 1.11,0.04 0.25,0 0.73,-0.02 1.1,-0.04 v 0.31 c -0.67,0 -0.78,0 -0.78,0.45 z"
       inkscape:connector-curvature="0"
       style="fill:#000000;stroke-width:0" /><path
       id="path3660"
       d="m 270.36,709.42 0.01,0.21 c 0.05,1.48 0.89,1.73 1.23,1.73 1.02,0 1.12,-1.34 1.12,-1.73 h -2.35 l -0.01,-0.21 h 2.77 c 0.22,0 0.25,0 0.25,0.21 0,0.98 -0.54,1.95 -1.78,1.95 -1.15,0 -2.07,-1.03 -2.07,-2.27 0,-1.33 1.05,-2.29 2.19,-2.29 1.21,0 1.66,1.1 1.66,1.29 0,0.1 -0.08,0.12 -0.13,0.12 -0.09,0 -0.11,-0.06 -0.13,-0.14 -0.35,-1.03 -1.24,-1.03 -1.34,-1.03 -0.5,0 -0.9,0.3 -1.13,0.67 -0.29,0.48 -0.29,1.13 -0.29,1.49 z"
       inkscape:connector-curvature="0"
       style="fill:#000000;stroke-width:0" /><path
       id="path3662"
       d="m 274.73,708.45 0,0 0,0.01 0,0 0,0.01 0,0.01 0,0.01 0,0.01 0.01,0.01 0,0.01 0,0.01 0,0.02 0,0.01 0,0.01 0.01,0.02 0,0.01 0,0.02 0.01,0.02 0,0.01 0.01,0.02 0,0.02 0.01,0.02 0.01,0.01 0.01,0.02 0,0.02 0.01,0.02 0.01,0.02 0.02,0.02 0.01,0.02 0.01,0.02 0.01,0.02 0.02,0.01 0.01,0.02 c 0.39,-0.27 0.8,-0.31 0.99,-0.31 v 0.23 c -0.87,0 -0.87,1 -0.87,1.22 0,0.27 0.01,0.59 0.16,0.84 0.08,0.12 0.31,0.4 0.71,0.4 0.86,0 0.86,-1 0.86,-1.22 0,-0.27 -0.01,-0.59 -0.16,-0.84 -0.08,-0.12 -0.3,-0.4 -0.7,-0.4 h 0 v -0.23 c 0.92,0 1.61,0.69 1.61,1.45 0,0.37 -0.16,0.74 -0.41,0.97 0.36,0.34 0.72,0.39 0.9,0.39 0.02,0 0.07,0 0.1,-0.01 -0.11,-0.04 -0.16,-0.15 -0.16,-0.27 0,-0.17 0.13,-0.29 0.29,-0.29 0.1,0 0.28,0.07 0.28,0.3 0,0.17 -0.11,0.48 -0.5,0.48 -0.2,0 -0.64,-0.05 -1.06,-0.46 -0.42,0.33 -0.83,0.36 -1.05,0.36 -0.93,0 -1.61,-0.69 -1.61,-1.45 0,-0.44 0.21,-0.82 0.46,-1.03 -0.13,-0.15 -0.31,-0.47 -0.31,-0.82 0,-0.31 0.13,-0.69 0.44,-0.89 -0.59,-0.17 -0.91,-0.59 -0.91,-0.99 0,-0.72 0.98,-1.26 2.2,-1.26 l 0.01,0.23 c -1.01,0 -1.69,0.5 -1.69,1.03 0,0.46 0.37,0.82 0.81,0.85 h 0.59 c 0.85,0 1.97,0 1.97,-0.85 0,-0.54 -0.71,-1.03 -1.68,-1.03 h 0 l -0.01,-0.23 c 1.17,0 2.2,0.51 2.2,1.28 0,0.35 -0.13,0.85 -0.64,1.13 -0.53,0.28 -1.11,0.28 -1.71,0.28 -0.25,0 -0.68,0 -0.75,0.01 -0.32,0.04 -0.53,0.35 -0.53,0.67 z"
       inkscape:connector-curvature="0"
       style="fill:#000000;stroke-width:0" /><path
       id="path3664"
       d="m 279.76,709.42 0.01,0.21 c 0.06,1.48 0.9,1.73 1.24,1.73 1.02,0 1.12,-1.34 1.12,-1.73 h -2.36 l -0.01,-0.21 h 2.78 c 0.22,0 0.25,0 0.25,0.21 0,0.98 -0.54,1.95 -1.78,1.95 -1.16,0 -2.07,-1.03 -2.07,-2.27 0,-1.33 1.04,-2.29 2.19,-2.29 1.21,0 1.66,1.1 1.66,1.29 0,0.1 -0.08,0.12 -0.13,0.12 -0.09,0 -0.11,-0.06 -0.13,-0.14 -0.35,-1.03 -1.24,-1.03 -1.34,-1.03 -0.5,0 -0.9,0.3 -1.13,0.67 -0.3,0.48 -0.3,1.13 -0.3,1.49 z"
       inkscape:connector-curvature="0"
       style="fill:#000000;stroke-width:0" /><path
       id="path3666"
       d="m 284.18,710.54 v -2.66 c 0,-0.45 -0.11,-0.45 -0.77,-0.45 v -0.31 c 0.34,0.02 0.85,0.04 1.12,0.04 0.26,0 0.78,-0.02 1.11,-0.04 v 0.31 c -0.66,0 -0.77,0 -0.77,0.45 v 1.83 c 0,1.03 0.71,1.59 1.34,1.59 0.63,0 0.74,-0.54 0.74,-1.1 v -2.32 c 0,-0.45 -0.11,-0.45 -0.78,-0.45 v -0.31 c 0.35,0.02 0.86,0.04 1.13,0.04 0.25,0 0.77,-0.02 1.11,-0.04 v 0.31 c -0.52,0 -0.77,0 -0.78,0.3 v 1.9 c 0,0.85 0,1.16 -0.3,1.52 -0.14,0.17 -0.47,0.37 -1.05,0.37 -0.73,0 -1.19,-0.43 -1.47,-1.05 v 1.05 l -1.4,-0.11 v -0.31 c 0.69,0 0.77,-0.07 0.77,-0.56 z"
       inkscape:connector-curvature="0"
       style="fill:#000000;stroke-width:0" /></g>  <g
     style="font-style:normal;font-variant:normal;font-weight:normal;font-stretch:normal;letter-spacing:normal;word-spacing:normal;text-anchor:start;fill:none;stroke:#000000;stroke-linecap:butt;stroke-linejoin:miter;stroke-miterlimit:10.43299961;stroke-opacity:1;stroke-dasharray:none;stroke-dashoffset:0"
     id="g3724"
     transform="matrix(3,0,0,-3,-545.72246,2266.197)"
     xml:space="preserve"
     stroke-miterlimit="10.433"
     font-style="normal"
     font-variant="normal"
     font-weight="normal"
     font-stretch="normal"
     font-size-adjust="none"
     letter-spacing="normal"
     word-spacing="normal"
     ns0:text="$M_2$"
     ns0:preamble=""><path
       style="fill:#000000;stroke-width:0"
       inkscape:connector-curvature="0"
       d="m 232.65,713.15 0,0.03 0.01,0.03 0.01,0.03 0.01,0.03 0,0.02 0.01,0.03 0.01,0.02 0.01,0.03 0.01,0.02 0.01,0.02 0.01,0.02 0.02,0.02 0.01,0.01 0.02,0.02 0.02,0.01 0.02,0.02 0.02,0.01 0.02,0.01 0.03,0.01 0.03,0.01 0.03,0.01 0.01,0 0.02,0.01 0.02,0 0.02,0 0.01,0.01 0.02,0 0.03,0 0.02,0.01 0.02,0 0.02,0 0.03,0 0.02,0 0.03,0.01 0.02,0 0.03,0 0.03,0 0.03,0 0.03,0 0.03,0 0.03,0 0.04,0 0.03,0 c 0.23,0 0.32,0 0.32,0.2 0,0.11 -0.1,0.11 -0.27,0.11 h -1.31 c -0.26,0 -0.27,0 -0.39,-0.19 l -3.63,-5.66 -0.78,5.62 c -0.03,0.23 -0.05,0.23 -0.31,0.23 h -1.36 c -0.19,0 -0.3,0 -0.3,-0.19 0,-0.12 0.09,-0.12 0.29,-0.12 0.13,0 0.31,-0.01 0.43,-0.02 0.16,-0.02 0.22,-0.05 0.22,-0.16 0,-0.04 -0.01,-0.07 -0.04,-0.19 l -1.27,-5.05 c -0.1,-0.4 -0.26,-0.72 -1.07,-0.75 -0.05,0 -0.18,-0.01 -0.18,-0.19 0,-0.08 0.06,-0.12 0.14,-0.12 0.32,0 0.67,0.04 0.99,0.04 0.34,0 0.7,-0.04 1.03,-0.04 0.05,0 0.18,0 0.18,0.2 0,0.11 -0.11,0.11 -0.18,0.11 -0.57,0.01 -0.68,0.21 -0.68,0.44 0,0.07 0.01,0.12 0.04,0.23 l 1.36,5.41 h 0.01 l 0.85,-6.16 c 0.02,-0.12 0.03,-0.23 0.15,-0.23 0.11,0 0.17,0.11 0.22,0.18 l 4.02,6.29 h 0.01 l -1.42,-5.69 c -0.1,-0.39 -0.12,-0.47 -0.91,-0.47 -0.17,0 -0.28,0 -0.28,-0.19 0,-0.12 0.12,-0.12 0.15,-0.12 0.28,0 0.96,0.04 1.23,0.04 0.41,0 0.84,-0.04 1.25,-0.04 0.06,0 0.19,0 0.19,0.2 0,0.11 -0.09,0.11 -0.28,0.11 -0.37,0 -0.65,0 -0.65,0.18 0,0.04 0,0.06 0.05,0.24 z"
       id="path3726" /><path
       style="fill:#000000;stroke-width:0"
       inkscape:connector-curvature="0"
       d="m 236.61,706.9 h -0.23 c -0.02,-0.16 -0.09,-0.57 -0.18,-0.64 -0.06,-0.04 -0.6,-0.04 -0.69,-0.04 h -1.28 c 0.73,0.65 0.97,0.84 1.39,1.17 0.51,0.41 0.99,0.84 0.99,1.5 0,0.84 -0.73,1.36 -1.63,1.36 -0.86,0 -1.44,-0.61 -1.44,-1.25 0,-0.35 0.3,-0.39 0.36,-0.39 0.17,0 0.37,0.12 0.37,0.37 0,0.13 -0.04,0.37 -0.41,0.37 0.22,0.49 0.69,0.65 1.02,0.65 0.7,0 1.06,-0.54 1.06,-1.11 0,-0.6 -0.43,-1.08 -0.66,-1.33 l -1.68,-1.66 c -0.06,-0.06 -0.06,-0.07 -0.06,-0.27 h 2.86 z"
       id="path3728" /></g>  <g
     ns0:preamble=""
     ns0:text="$M_3$"
     word-spacing="normal"
     letter-spacing="normal"
     font-size-adjust="none"
     font-stretch="normal"
     font-weight="normal"
     font-variant="normal"
     font-style="normal"
     stroke-miterlimit="10.433"
     xml:space="preserve"
     transform="matrix(3,0,0,-3,-431.43674,2141.9113)"
     id="g3792"
     style="font-style:normal;font-variant:normal;font-weight:normal;font-stretch:normal;letter-spacing:normal;word-spacing:normal;text-anchor:start;fill:none;stroke:#000000;stroke-linecap:butt;stroke-linejoin:miter;stroke-miterlimit:10.43299961;stroke-opacity:1;stroke-dasharray:none;stroke-dashoffset:0"><path
       id="path3794"
       d="m 232.65,713.15 0,0.03 0.01,0.03 0.01,0.03 0.01,0.03 0,0.02 0.01,0.03 0.01,0.02 0.01,0.03 0.01,0.02 0.01,0.02 0.01,0.02 0.02,0.02 0.01,0.01 0.02,0.02 0.02,0.01 0.02,0.02 0.02,0.01 0.02,0.01 0.03,0.01 0.03,0.01 0.03,0.01 0.01,0 0.02,0.01 0.02,0 0.02,0 0.01,0.01 0.02,0 0.03,0 0.02,0.01 0.02,0 0.02,0 0.03,0 0.02,0 0.03,0.01 0.02,0 0.03,0 0.03,0 0.03,0 0.03,0 0.03,0 0.03,0 0.04,0 0.03,0 c 0.23,0 0.32,0 0.32,0.2 0,0.11 -0.1,0.11 -0.27,0.11 h -1.31 c -0.26,0 -0.27,0 -0.39,-0.19 l -3.63,-5.66 -0.78,5.62 c -0.03,0.23 -0.05,0.23 -0.31,0.23 h -1.36 c -0.19,0 -0.3,0 -0.3,-0.19 0,-0.12 0.09,-0.12 0.29,-0.12 0.13,0 0.31,-0.01 0.43,-0.02 0.16,-0.02 0.22,-0.05 0.22,-0.16 0,-0.04 -0.01,-0.07 -0.04,-0.19 l -1.27,-5.05 c -0.1,-0.4 -0.26,-0.72 -1.07,-0.75 -0.05,0 -0.18,-0.01 -0.18,-0.19 0,-0.08 0.06,-0.12 0.14,-0.12 0.32,0 0.67,0.04 0.99,0.04 0.34,0 0.7,-0.04 1.03,-0.04 0.05,0 0.18,0 0.18,0.2 0,0.11 -0.11,0.11 -0.18,0.11 -0.57,0.01 -0.68,0.21 -0.68,0.44 0,0.07 0.01,0.12 0.04,0.23 l 1.36,5.41 h 0.01 l 0.85,-6.16 c 0.02,-0.12 0.03,-0.23 0.15,-0.23 0.11,0 0.17,0.11 0.22,0.18 l 4.02,6.29 h 0.01 l -1.42,-5.69 c -0.1,-0.39 -0.12,-0.47 -0.91,-0.47 -0.17,0 -0.28,0 -0.28,-0.19 0,-0.12 0.12,-0.12 0.15,-0.12 0.28,0 0.96,0.04 1.23,0.04 0.41,0 0.84,-0.04 1.25,-0.04 0.06,0 0.19,0 0.19,0.2 0,0.11 -0.09,0.11 -0.28,0.11 -0.37,0 -0.65,0 -0.65,0.18 0,0.04 0,0.06 0.05,0.24 z"
       inkscape:connector-curvature="0"
       style="fill:#000000;stroke-width:0" /><path
       id="path3797"
       d="m 235,707.95 0.05,0 0.05,0 0.05,-0.01 0.04,0 0.05,-0.01 0.05,-0.02 0.04,-0.01 0.04,-0.02 0.05,-0.02 0.04,-0.02 0.03,-0.02 0.04,-0.02 0.04,-0.03 0.03,-0.03 0.04,-0.03 0.03,-0.04 0.03,-0.03 0.03,-0.04 0.02,-0.04 0.03,-0.04 0.02,-0.05 0.02,-0.05 0.02,-0.05 0.02,-0.05 0.02,-0.05 0.01,-0.06 0.01,-0.05 0.01,-0.06 0.01,-0.07 0.01,-0.06 0,-0.07 0,-0.07 c 0,-0.86 -0.5,-1.12 -0.9,-1.12 -0.28,0 -0.9,0.08 -1.19,0.49 0.33,0.02 0.41,0.25 0.41,0.39 0,0.22 -0.17,0.38 -0.39,0.38 -0.19,0 -0.39,-0.12 -0.39,-0.4 0,-0.65 0.73,-1.08 1.57,-1.08 0.97,0 1.64,0.65 1.64,1.34 0,0.55 -0.45,1.09 -1.22,1.25 0.74,0.26 1,0.78 1,1.21 0,0.55 -0.63,0.96 -1.41,0.96 -0.77,0 -1.36,-0.38 -1.36,-0.93 0,-0.24 0.15,-0.37 0.36,-0.37 0.22,0 0.36,0.16 0.36,0.35 0,0.2 -0.14,0.35 -0.36,0.36 0.24,0.31 0.72,0.39 0.98,0.39 0.32,0 0.76,-0.16 0.76,-0.76 0,-0.29 -0.1,-0.61 -0.28,-0.83 -0.23,-0.26 -0.43,-0.28 -0.78,-0.3 -0.17,-0.01 -0.18,-0.01 -0.22,-0.02 -0.01,0 -0.07,-0.01 -0.07,-0.09 0,-0.1 0.06,-0.1 0.18,-0.1 z"
       inkscape:connector-curvature="0"
       style="fill:#000000;stroke-width:0" /></g>  <g
     style="font-style:normal;font-variant:normal;font-weight:normal;font-stretch:normal;letter-spacing:normal;word-spacing:normal;text-anchor:start;fill:none;stroke:#000000;stroke-linecap:butt;stroke-linejoin:miter;stroke-miterlimit:10.43299961;stroke-opacity:1;stroke-dasharray:none;stroke-dashoffset:0"
     id="g3867"
     transform="matrix(3,0,0,-3,-255.72246,2141.9114)"
     xml:space="preserve"
     stroke-miterlimit="10.433"
     font-style="normal"
     font-variant="normal"
     font-weight="normal"
     font-stretch="normal"
     font-size-adjust="none"
     letter-spacing="normal"
     word-spacing="normal"
     ns0:text="$M_4$"
     ns0:preamble=""><path
       style="fill:#000000;stroke-width:0"
       inkscape:connector-curvature="0"
       d="m 232.65,713.15 0,0.03 0.01,0.03 0.01,0.03 0.01,0.03 0,0.02 0.01,0.03 0.01,0.02 0.01,0.03 0.01,0.02 0.01,0.02 0.01,0.02 0.02,0.02 0.01,0.01 0.02,0.02 0.02,0.01 0.02,0.02 0.02,0.01 0.02,0.01 0.03,0.01 0.03,0.01 0.03,0.01 0.01,0 0.02,0.01 0.02,0 0.02,0 0.01,0.01 0.02,0 0.03,0 0.02,0.01 0.02,0 0.02,0 0.03,0 0.02,0 0.03,0.01 0.02,0 0.03,0 0.03,0 0.03,0 0.03,0 0.03,0 0.03,0 0.04,0 0.03,0 c 0.23,0 0.32,0 0.32,0.2 0,0.11 -0.1,0.11 -0.27,0.11 h -1.31 c -0.26,0 -0.27,0 -0.39,-0.19 l -3.63,-5.66 -0.78,5.62 c -0.03,0.23 -0.05,0.23 -0.31,0.23 h -1.36 c -0.19,0 -0.3,0 -0.3,-0.19 0,-0.12 0.09,-0.12 0.29,-0.12 0.13,0 0.31,-0.01 0.43,-0.02 0.16,-0.02 0.22,-0.05 0.22,-0.16 0,-0.04 -0.01,-0.07 -0.04,-0.19 l -1.27,-5.05 c -0.1,-0.4 -0.26,-0.72 -1.07,-0.75 -0.05,0 -0.18,-0.01 -0.18,-0.19 0,-0.08 0.06,-0.12 0.14,-0.12 0.32,0 0.67,0.04 0.99,0.04 0.34,0 0.7,-0.04 1.03,-0.04 0.05,0 0.18,0 0.18,0.2 0,0.11 -0.11,0.11 -0.18,0.11 -0.57,0.01 -0.68,0.21 -0.68,0.44 0,0.07 0.01,0.12 0.04,0.23 l 1.36,5.41 h 0.01 l 0.85,-6.16 c 0.02,-0.12 0.03,-0.23 0.15,-0.23 0.11,0 0.17,0.11 0.22,0.18 l 4.02,6.29 h 0.01 l -1.42,-5.69 c -0.1,-0.39 -0.12,-0.47 -0.91,-0.47 -0.17,0 -0.28,0 -0.28,-0.19 0,-0.12 0.12,-0.12 0.15,-0.12 0.28,0 0.96,0.04 1.23,0.04 0.41,0 0.84,-0.04 1.25,-0.04 0.06,0 0.19,0 0.19,0.2 0,0.11 -0.09,0.11 -0.28,0.11 -0.37,0 -0.65,0 -0.65,0.18 0,0.04 0,0.06 0.05,0.24 z"
       id="path3869" /><path
       style="fill:#000000;stroke-width:0"
       inkscape:connector-curvature="0"
       d="m 236.78,706.77 v 0.25 h -0.77 v 3.1 c 0,0.15 0,0.2 -0.16,0.2 -0.08,0 -0.11,0 -0.18,-0.1 l -2.3,-3.2 v -0.25 h 2.05 l 0.04,0.25 h -1.83 l 1.83,2.55 v -2.55 l -0.04,-0.25 v -0.57 c 0,-0.23 0,-0.32 -0.57,-0.32 h -0.19 v -0.25 c 0.35,0.02 0.8,0.03 1.05,0.03 0.26,0 0.7,-0.01 1.05,-0.03 v 0.25 h -0.19 c -0.56,0 -0.56,0.09 -0.56,0.32 v 0.57 z"
       id="path3871" /></g>  <g
     ns0:preamble=""
     ns0:text="$M_5$"
     word-spacing="normal"
     letter-spacing="normal"
     font-size-adjust="none"
     font-stretch="normal"
     font-weight="normal"
     font-variant="normal"
     font-style="normal"
     stroke-miterlimit="10.433"
     xml:space="preserve"
     transform="matrix(3,0,0,-3,-135.72246,2255.4827)"
     id="g3947"
     style="font-style:normal;font-variant:normal;font-weight:normal;font-stretch:normal;letter-spacing:normal;word-spacing:normal;text-anchor:start;fill:none;stroke:#000000;stroke-linecap:butt;stroke-linejoin:miter;stroke-miterlimit:10.43299961;stroke-opacity:1;stroke-dasharray:none;stroke-dashoffset:0"><path
       id="path3949"
       d="m 232.65,713.15 0,0.03 0.01,0.03 0.01,0.03 0.01,0.03 0,0.02 0.01,0.03 0.01,0.02 0.01,0.03 0.01,0.02 0.01,0.02 0.01,0.02 0.02,0.02 0.01,0.01 0.02,0.02 0.02,0.01 0.02,0.02 0.02,0.01 0.02,0.01 0.03,0.01 0.03,0.01 0.03,0.01 0.01,0 0.02,0.01 0.02,0 0.02,0 0.01,0.01 0.02,0 0.03,0 0.02,0.01 0.02,0 0.02,0 0.03,0 0.02,0 0.03,0.01 0.02,0 0.03,0 0.03,0 0.03,0 0.03,0 0.03,0 0.03,0 0.04,0 0.03,0 c 0.23,0 0.32,0 0.32,0.2 0,0.11 -0.1,0.11 -0.27,0.11 h -1.31 c -0.26,0 -0.27,0 -0.39,-0.19 l -3.63,-5.66 -0.78,5.62 c -0.03,0.23 -0.05,0.23 -0.31,0.23 h -1.36 c -0.19,0 -0.3,0 -0.3,-0.19 0,-0.12 0.09,-0.12 0.29,-0.12 0.13,0 0.31,-0.01 0.43,-0.02 0.16,-0.02 0.22,-0.05 0.22,-0.16 0,-0.04 -0.01,-0.07 -0.04,-0.19 l -1.27,-5.05 c -0.1,-0.4 -0.26,-0.72 -1.07,-0.75 -0.05,0 -0.18,-0.01 -0.18,-0.19 0,-0.08 0.06,-0.12 0.14,-0.12 0.32,0 0.67,0.04 0.99,0.04 0.34,0 0.7,-0.04 1.03,-0.04 0.05,0 0.18,0 0.18,0.2 0,0.11 -0.11,0.11 -0.18,0.11 -0.57,0.01 -0.68,0.21 -0.68,0.44 0,0.07 0.01,0.12 0.04,0.23 l 1.36,5.41 h 0.01 l 0.85,-6.16 c 0.02,-0.12 0.03,-0.23 0.15,-0.23 0.11,0 0.17,0.11 0.22,0.18 l 4.02,6.29 h 0.01 l -1.42,-5.69 c -0.1,-0.39 -0.12,-0.47 -0.91,-0.47 -0.17,0 -0.28,0 -0.28,-0.19 0,-0.12 0.12,-0.12 0.15,-0.12 0.28,0 0.96,0.04 1.23,0.04 0.41,0 0.84,-0.04 1.25,-0.04 0.06,0 0.19,0 0.19,0.2 0,0.11 -0.09,0.11 -0.28,0.11 -0.37,0 -0.65,0 -0.65,0.18 0,0.04 0,0.06 0.05,0.24 z"
       inkscape:connector-curvature="0"
       style="fill:#000000;stroke-width:0" /><path
       id="path3951"
       d="m 234.18,709.51 0.03,-0.01 0.03,0 0.03,-0.01 0.03,-0.01 0.03,0 0.03,-0.01 0.03,-0.01 0.03,0 0.02,-0.01 0.03,0 0.02,0 0.03,-0.01 0.02,0 0.02,0 0.02,-0.01 0.03,0 0.02,0 0.02,0 0.01,0 0.02,0 0.02,-0.01 0.02,0 0.01,0 0.02,0 0.01,0 0.02,0 0.01,0 0.02,0 0.01,0 0.01,0 0.01,0 0.01,0 c 0.92,0 1.47,0.63 1.47,0.73 0,0.08 -0.05,0.1 -0.09,0.1 -0.01,0 -0.03,0 -0.05,-0.02 -0.17,-0.07 -0.54,-0.2 -1.06,-0.2 -0.19,0 -0.56,0.01 -1.01,0.18 -0.07,0.04 -0.09,0.04 -0.09,0.04 -0.09,0 -0.09,-0.08 -0.09,-0.19 v -2.05 c 0,-0.12 0,-0.2 0.11,-0.2 0.06,0 0.07,0.01 0.14,0.1 0.3,0.38 0.72,0.43 0.97,0.43 0.41,0 0.6,-0.33 0.64,-0.39 0.12,-0.23 0.16,-0.49 0.16,-0.89 0,-0.21 0,-0.62 -0.21,-0.93 -0.17,-0.25 -0.47,-0.42 -0.81,-0.42 -0.45,0 -0.92,0.26 -1.09,0.71 0.26,-0.02 0.39,0.16 0.39,0.34 0,0.3 -0.25,0.36 -0.35,0.36 -0.01,0 -0.34,0 -0.34,-0.38 0,-0.62 0.57,-1.25 1.4,-1.25 0.89,0 1.67,0.66 1.67,1.54 0,0.78 -0.6,1.51 -1.46,1.51 -0.3,0 -0.67,-0.08 -0.97,-0.34 z"
       inkscape:connector-curvature="0"
       style="fill:#000000;stroke-width:0" /></g>  <g
     style="font-style:normal;font-variant:normal;font-weight:normal;font-stretch:normal;letter-spacing:normal;word-spacing:normal;text-anchor:start;fill:none;stroke:#000000;stroke-linecap:butt;stroke-linejoin:miter;stroke-miterlimit:10.43299961;stroke-opacity:1;stroke-dasharray:none;stroke-dashoffset:0"
     id="g4033"
     transform="matrix(3,0,0,-3,-142.86531,2404.7685)"
     xml:space="preserve"
     stroke-miterlimit="10.433"
     font-style="normal"
     font-variant="normal"
     font-weight="normal"
     font-stretch="normal"
     font-size-adjust="none"
     letter-spacing="normal"
     word-spacing="normal"
     ns0:text="$M_6$"
     ns0:preamble=""><path
       style="fill:#000000;stroke-width:0"
       inkscape:connector-curvature="0"
       d="m 232.65,713.15 0,0.03 0.01,0.03 0.01,0.03 0.01,0.03 0,0.02 0.01,0.03 0.01,0.02 0.01,0.03 0.01,0.02 0.01,0.02 0.01,0.02 0.02,0.02 0.01,0.01 0.02,0.02 0.02,0.01 0.02,0.02 0.02,0.01 0.02,0.01 0.03,0.01 0.03,0.01 0.03,0.01 0.01,0 0.02,0.01 0.02,0 0.02,0 0.01,0.01 0.02,0 0.03,0 0.02,0.01 0.02,0 0.02,0 0.03,0 0.02,0 0.03,0.01 0.02,0 0.03,0 0.03,0 0.03,0 0.03,0 0.03,0 0.03,0 0.04,0 0.03,0 c 0.23,0 0.32,0 0.32,0.2 0,0.11 -0.1,0.11 -0.27,0.11 h -1.31 c -0.26,0 -0.27,0 -0.39,-0.19 l -3.63,-5.66 -0.78,5.62 c -0.03,0.23 -0.05,0.23 -0.31,0.23 h -1.36 c -0.19,0 -0.3,0 -0.3,-0.19 0,-0.12 0.09,-0.12 0.29,-0.12 0.13,0 0.31,-0.01 0.43,-0.02 0.16,-0.02 0.22,-0.05 0.22,-0.16 0,-0.04 -0.01,-0.07 -0.04,-0.19 l -1.27,-5.05 c -0.1,-0.4 -0.26,-0.72 -1.07,-0.75 -0.05,0 -0.18,-0.01 -0.18,-0.19 0,-0.08 0.06,-0.12 0.14,-0.12 0.32,0 0.67,0.04 0.99,0.04 0.34,0 0.7,-0.04 1.03,-0.04 0.05,0 0.18,0 0.18,0.2 0,0.11 -0.11,0.11 -0.18,0.11 -0.57,0.01 -0.68,0.21 -0.68,0.44 0,0.07 0.01,0.12 0.04,0.23 l 1.36,5.41 h 0.01 l 0.85,-6.16 c 0.02,-0.12 0.03,-0.23 0.15,-0.23 0.11,0 0.17,0.11 0.22,0.18 l 4.02,6.29 h 0.01 l -1.42,-5.69 c -0.1,-0.39 -0.12,-0.47 -0.91,-0.47 -0.17,0 -0.28,0 -0.28,-0.19 0,-0.12 0.12,-0.12 0.15,-0.12 0.28,0 0.96,0.04 1.23,0.04 0.41,0 0.84,-0.04 1.25,-0.04 0.06,0 0.19,0 0.19,0.2 0,0.11 -0.09,0.11 -0.28,0.11 -0.37,0 -0.65,0 -0.65,0.18 0,0.04 0,0.06 0.05,0.24 z"
       id="path4035" /><path
       style="fill:#000000;stroke-width:0"
       inkscape:connector-curvature="0"
       d="m 234.14,707.91 0,0.1 0,0.11 0.01,0.1 0,0.1 0.01,0.1 0.01,0.1 0.01,0.1 0.02,0.09 0.02,0.1 0.02,0.09 0.02,0.09 0.03,0.09 0.02,0.04 0.02,0.05 0.02,0.04 0.02,0.04 0.02,0.04 0.02,0.04 0.02,0.04 0.03,0.04 c 0.23,0.38 0.61,0.64 1.05,0.64 0.21,0 0.49,-0.06 0.63,-0.25 -0.17,-0.01 -0.32,-0.13 -0.32,-0.33 0,-0.17 0.12,-0.33 0.33,-0.33 0.21,0 0.33,0.14 0.33,0.34 0,0.41 -0.29,0.77 -0.98,0.77 -1,0 -2.03,-0.92 -2.03,-2.41 0,-1.81 0.85,-2.35 1.62,-2.35 0.85,0 1.59,0.65 1.59,1.56 0,0.88 -0.71,1.54 -1.52,1.54 l -0.04,-0.2 c 0.32,0 0.54,-0.12 0.71,-0.38 0.17,-0.27 0.18,-0.56 0.18,-0.96 0,-0.4 0,-0.69 -0.19,-0.96 -0.17,-0.24 -0.39,-0.38 -0.73,-0.38 h 0 c -0.35,0 -0.62,0.21 -0.77,0.51 -0.1,0.21 -0.16,0.56 -0.16,0.98 0,0.67 0.41,1.19 0.96,1.19 l 0.04,0.2 c -0.56,0 -0.87,-0.37 -1.02,-0.68 z"
       id="path4037" /></g>  <g
     ns0:preamble=""
     ns0:text="$M_7$"
     word-spacing="normal"
     letter-spacing="normal"
     font-size-adjust="none"
     font-stretch="normal"
     font-weight="normal"
     font-variant="normal"
     font-style="normal"
     stroke-miterlimit="10.433"
     xml:space="preserve"
     transform="matrix(3,0,0,-3,-258.5796,2519.0542)"
     id="g4125"
     style="font-style:normal;font-variant:normal;font-weight:normal;font-stretch:normal;letter-spacing:normal;word-spacing:normal;text-anchor:start;fill:none;stroke:#000000;stroke-linecap:butt;stroke-linejoin:miter;stroke-miterlimit:10.43299961;stroke-opacity:1;stroke-dasharray:none;stroke-dashoffset:0"><path
       id="path4127"
       d="m 232.65,713.15 0,0.03 0.01,0.03 0.01,0.03 0.01,0.03 0,0.02 0.01,0.03 0.01,0.02 0.01,0.03 0.01,0.02 0.01,0.02 0.01,0.02 0.02,0.02 0.01,0.01 0.02,0.02 0.02,0.01 0.02,0.02 0.02,0.01 0.02,0.01 0.03,0.01 0.03,0.01 0.03,0.01 0.01,0 0.02,0.01 0.02,0 0.02,0 0.01,0.01 0.02,0 0.03,0 0.02,0.01 0.02,0 0.02,0 0.03,0 0.02,0 0.03,0.01 0.02,0 0.03,0 0.03,0 0.03,0 0.03,0 0.03,0 0.03,0 0.04,0 0.03,0 c 0.23,0 0.32,0 0.32,0.2 0,0.11 -0.1,0.11 -0.27,0.11 h -1.31 c -0.26,0 -0.27,0 -0.39,-0.19 l -3.63,-5.66 -0.78,5.62 c -0.03,0.23 -0.05,0.23 -0.31,0.23 h -1.36 c -0.19,0 -0.3,0 -0.3,-0.19 0,-0.12 0.09,-0.12 0.29,-0.12 0.13,0 0.31,-0.01 0.43,-0.02 0.16,-0.02 0.22,-0.05 0.22,-0.16 0,-0.04 -0.01,-0.07 -0.04,-0.19 l -1.27,-5.05 c -0.1,-0.4 -0.26,-0.72 -1.07,-0.75 -0.05,0 -0.18,-0.01 -0.18,-0.19 0,-0.08 0.06,-0.12 0.14,-0.12 0.32,0 0.67,0.04 0.99,0.04 0.34,0 0.7,-0.04 1.03,-0.04 0.05,0 0.18,0 0.18,0.2 0,0.11 -0.11,0.11 -0.18,0.11 -0.57,0.01 -0.68,0.21 -0.68,0.44 0,0.07 0.01,0.12 0.04,0.23 l 1.36,5.41 h 0.01 l 0.85,-6.16 c 0.02,-0.12 0.03,-0.23 0.15,-0.23 0.11,0 0.17,0.11 0.22,0.18 l 4.02,6.29 h 0.01 l -1.42,-5.69 c -0.1,-0.39 -0.12,-0.47 -0.91,-0.47 -0.17,0 -0.28,0 -0.28,-0.19 0,-0.12 0.12,-0.12 0.15,-0.12 0.28,0 0.96,0.04 1.23,0.04 0.41,0 0.84,-0.04 1.25,-0.04 0.06,0 0.19,0 0.19,0.2 0,0.11 -0.09,0.11 -0.28,0.11 -0.37,0 -0.65,0 -0.65,0.18 0,0.04 0,0.06 0.05,0.24 z"
       inkscape:connector-curvature="0"
       style="fill:#000000;stroke-width:0" /><path
       id="path4129"
       d="m 236.82,709.83 0.01,0.01 0.01,0.01 0,0 0.01,0.01 0,0.01 0.01,0 0,0.01 0,0 0.01,0.01 0,0.01 0,0 0.01,0.01 0,0 0,0.01 0,0.01 0,0 0.01,0.01 0,0.01 0,0.01 0,0 0,0.01 0,0.01 0,0.01 0,0.01 0,0.01 0,0.01 0,0.02 0,0.01 0,0.01 0,0.01 0,0.01 0,0 0,0.01 0,0.01 0,0.01 h -1.82 c -0.28,0 -0.36,0.01 -0.61,0.03 -0.36,0.02 -0.37,0.07 -0.39,0.19 h -0.24 l -0.24,-1.49 h 0.23 c 0.02,0.11 0.08,0.57 0.2,0.64 0.05,0.04 0.62,0.04 0.72,0.04 h 1.52 c -0.22,-0.29 -0.58,-0.73 -0.72,-0.92 -0.92,-1.2 -1,-2.3 -1,-2.71 0,-0.08 0,-0.4 0.33,-0.4 0.33,0 0.33,0.31 0.33,0.41 v 0.27 c 0,1.35 0.28,1.97 0.58,2.35 z"
       inkscape:connector-curvature="0"
       style="fill:#000000;stroke-width:0" /></g>  <g
     style="font-style:normal;font-variant:normal;font-weight:normal;font-stretch:normal;letter-spacing:normal;word-spacing:normal;text-anchor:start;fill:none;stroke:#000000;stroke-linecap:butt;stroke-linejoin:miter;stroke-miterlimit:10.43299961;stroke-opacity:1;stroke-dasharray:none;stroke-dashoffset:0"
     ns0:preamble=""
     ns0:text="$M_8$"
     word-spacing="normal"
     letter-spacing="normal"
     font-size-adjust="none"
     font-stretch="normal"
     font-weight="normal"
     font-variant="normal"
     font-style="normal"
     stroke-miterlimit="10.433"
     xml:space="preserve"
     transform="matrix(3,0,0,-3,-433.57959,2509.7685)"
     id="g3199"><path
       id="path3201"
       d="m 232.65,713.15 0,0.03 0.01,0.03 0.01,0.03 0.01,0.03 0,0.02 0.01,0.03 0.01,0.02 0.01,0.03 0.01,0.02 0.01,0.02 0.01,0.02 0.02,0.02 0.01,0.01 0.02,0.02 0.02,0.01 0.02,0.02 0.02,0.01 0.02,0.01 0.03,0.01 0.03,0.01 0.03,0.01 0.01,0 0.02,0.01 0.02,0 0.02,0 0.01,0.01 0.02,0 0.03,0 0.02,0.01 0.02,0 0.02,0 0.03,0 0.02,0 0.03,0.01 0.02,0 0.03,0 0.03,0 0.03,0 0.03,0 0.03,0 0.03,0 0.04,0 0.03,0 c 0.23,0 0.32,0 0.32,0.2 0,0.11 -0.1,0.11 -0.27,0.11 h -1.31 c -0.26,0 -0.27,0 -0.39,-0.19 l -3.63,-5.66 -0.78,5.62 c -0.03,0.23 -0.05,0.23 -0.31,0.23 h -1.36 c -0.19,0 -0.3,0 -0.3,-0.19 0,-0.12 0.09,-0.12 0.29,-0.12 0.13,0 0.31,-0.01 0.43,-0.02 0.16,-0.02 0.22,-0.05 0.22,-0.16 0,-0.04 -0.01,-0.07 -0.04,-0.19 l -1.27,-5.05 c -0.1,-0.4 -0.26,-0.72 -1.07,-0.75 -0.05,0 -0.18,-0.01 -0.18,-0.19 0,-0.08 0.06,-0.12 0.14,-0.12 0.32,0 0.67,0.04 0.99,0.04 0.34,0 0.7,-0.04 1.03,-0.04 0.05,0 0.18,0 0.18,0.2 0,0.11 -0.11,0.11 -0.18,0.11 -0.57,0.01 -0.68,0.21 -0.68,0.44 0,0.07 0.01,0.12 0.04,0.23 l 1.36,5.41 h 0.01 l 0.85,-6.16 c 0.02,-0.12 0.03,-0.23 0.15,-0.23 0.11,0 0.17,0.11 0.22,0.18 l 4.02,6.29 h 0.01 l -1.42,-5.69 c -0.1,-0.39 -0.12,-0.47 -0.91,-0.47 -0.17,0 -0.28,0 -0.28,-0.19 0,-0.12 0.12,-0.12 0.15,-0.12 0.28,0 0.96,0.04 1.23,0.04 0.41,0 0.84,-0.04 1.25,-0.04 0.06,0 0.19,0 0.19,0.2 0,0.11 -0.09,0.11 -0.28,0.11 -0.37,0 -0.65,0 -0.65,0.18 0,0.04 0,0.06 0.05,0.24 z"
       inkscape:connector-curvature="0"
       style="fill:#000000;stroke-width:0" /><path
       id="path3203"
       d="m 235.57,708.14 0.05,0.03 0.05,0.02 0.05,0.03 0.04,0.02 0.05,0.03 0.04,0.03 0.05,0.02 0.04,0.03 0.04,0.03 0.04,0.03 0.03,0.03 0.04,0.03 0.03,0.03 0.04,0.03 0.03,0.03 0.03,0.04 0.03,0.03 0.02,0.03 0.03,0.04 0.02,0.03 0.02,0.04 0.02,0.03 0.02,0.04 0.02,0.04 0.01,0.04 0.02,0.04 0.01,0.04 0,0.04 0.01,0.04 0.01,0.04 0,0.05 0,0.04 c 0,0.68 -0.7,1.04 -1.38,1.04 l -0.01,-0.2 c 0.54,0 1.02,-0.34 1.02,-0.84 0,-0.62 -0.72,-0.93 -0.74,-0.93 -0.01,0 -0.02,0.01 -0.07,0.04 l -0.85,0.48 c -0.18,0.11 -0.37,0.29 -0.37,0.55 0,0.44 0.51,0.7 1.01,0.7 l 0.01,0.2 c -0.76,0 -1.39,-0.5 -1.39,-1.16 0,-0.33 0.15,-0.57 0.28,-0.7 0.12,-0.15 0.17,-0.18 0.58,-0.42 -0.39,-0.17 -1.08,-0.55 -1.08,-1.27 0,-0.78 0.8,-1.21 1.6,-1.21 l 0.01,0.22 c -0.64,0 -1.19,0.41 -1.19,0.99 0,0.51 0.38,0.91 0.88,1.14 h 0 l 0.96,-0.55 c 0.18,-0.11 0.53,-0.32 0.53,-0.73 0,-0.52 -0.58,-0.85 -1.18,-0.85 l -0.01,-0.22 c 0.88,0 1.61,0.56 1.61,1.32 0,0.46 -0.28,0.84 -0.68,1.08 -0.09,0.06 -0.33,0.2 -0.43,0.25 z"
       inkscape:connector-curvature="0"
       style="fill:#000000;stroke-width:0" /></g>  <g
     id="g4034">
    <path
       sodipodi:end="0.78539816"
       sodipodi:start="0"
       d="M 544.47221,276.05994 A 176.27162,176.27162 0 0 1 492.84345,400.7028 L 368.20059,276.05994 z"
       sodipodi:ry="176.27162"
       sodipodi:rx="176.27162"
       sodipodi:cy="276.05994"
       sodipodi:cx="368.20059"
       id="path3800"
       style="fill:#ffffff;fill-opacity:1;stroke:#000000;stroke-width:1;stroke-linecap:butt;stroke-miterlimit:4;stroke-opacity:1;stroke-dasharray:none;stroke-dashoffset:0"
       sodipodi:type="arc"
       transform="matrix(-0.70710678,0.70710678,-0.70710678,-0.70710678,808.75341,134.24659)" />
    <rect
       transform="matrix(0.92432646,-0.38160266,0.38160266,0.92432646,0,0)"
       y="292.06732"
       x="95.428017"
       height="55"
       width="60.714287"
       id="rect3256"
       style="fill:none;stroke:#000000;stroke-width:1;stroke-linecap:butt;stroke-miterlimit:4;stroke-opacity:1;stroke-dasharray:none;stroke-dashoffset:0" />
  </g>
  <g
     id="g4038"
     transform="matrix(0.70710678,0.70710678,-0.70710678,0.70710678,244.44466,-191.34188)">
    <path
       transform="matrix(-0.70710678,0.70710678,-0.70710678,-0.70710678,808.75341,134.24659)"
       sodipodi:type="arc"
       style="fill:#ffffff;fill-opacity:1;stroke:#000000;stroke-width:1;stroke-linecap:butt;stroke-miterlimit:4;stroke-opacity:1;stroke-dasharray:none;stroke-dashoffset:0"
       id="path4040"
       sodipodi:cx="368.20059"
       sodipodi:cy="276.05994"
       sodipodi:rx="176.27162"
       sodipodi:ry="176.27162"
       d="m 544.47221,276.05994 c 0,46.75014 -18.57142,91.58551 -51.62876,124.64286 L 368.20059,276.05994 z"
       sodipodi:start="0"
       sodipodi:end="0.78539816" />
    <rect
       style="fill:none;stroke:#000000;stroke-width:1;stroke-linecap:butt;stroke-miterlimit:4;stroke-opacity:1;stroke-dasharray:none;stroke-dashoffset:0"
       id="rect4042"
       width="60.714287"
       height="55"
       x="95.428017"
       y="292.06732"
       transform="matrix(0.92432646,-0.38160266,0.38160266,0.92432646,0,0)" />
  </g>
  <g
     transform="matrix(0,0.99999999,-0.99999999,0,552.59229,-153.79255)"
     id="g4044">
    <path
       sodipodi:end="0.78539816"
       sodipodi:start="0"
       d="m 544.47221,276.05994 c 0,46.75014 -18.57142,91.58551 -51.62876,124.64286 L 368.20059,276.05994 z"
       sodipodi:ry="176.27162"
       sodipodi:rx="176.27162"
       sodipodi:cy="276.05994"
       sodipodi:cx="368.20059"
       id="path4046"
       style="fill:#ffffff;fill-opacity:1;stroke:#000000;stroke-width:1;stroke-linecap:butt;stroke-miterlimit:4;stroke-opacity:1;stroke-dasharray:none;stroke-dashoffset:0"
       sodipodi:type="arc"
       transform="matrix(-0.70710678,0.70710678,-0.70710678,-0.70710678,808.75341,134.24659)" />
    <rect
       transform="matrix(0.92432646,-0.38160266,0.38160266,0.92432646,0,0)"
       y="292.06732"
       x="95.428017"
       height="55"
       width="60.714287"
       id="rect4048"
       style="fill:none;stroke:#000000;stroke-width:1;stroke-linecap:butt;stroke-miterlimit:4;stroke-opacity:1;stroke-dasharray:none;stroke-dashoffset:0" />
  </g>
  <g
     id="g4050"
     transform="matrix(-0.70710677,0.70710677,-0.70710677,-0.70710677,743.93418,90.652115)">
    <path
       transform="matrix(-0.70710678,0.70710678,-0.70710678,-0.70710678,808.75341,134.24659)"
       sodipodi:type="arc"
       style="fill:#ffffff;fill-opacity:1;stroke:#000000;stroke-width:1;stroke-linecap:butt;stroke-miterlimit:4;stroke-opacity:1;stroke-dasharray:none;stroke-dashoffset:0"
       id="path4052"
       sodipodi:cx="368.20059"
       sodipodi:cy="276.05994"
       sodipodi:rx="176.27162"
       sodipodi:ry="176.27162"
       d="m 544.47221,276.05994 c 0,46.75014 -18.57142,91.58551 -51.62876,124.64286 L 368.20059,276.05994 z"
       sodipodi:start="0"
       sodipodi:end="0.78539816" />
    <rect
       style="fill:none;stroke:#000000;stroke-width:1;stroke-linecap:butt;stroke-miterlimit:4;stroke-opacity:1;stroke-dasharray:none;stroke-dashoffset:0"
       id="rect4054"
       width="60.714287"
       height="55"
       x="95.428017"
       y="292.06732"
       transform="matrix(0.92432646,-0.38160266,0.38160266,0.92432646,0,0)" />
  </g>
  <g
     transform="matrix(-0.99999998,0,0,-0.99999998,706.38484,398.79975)"
     id="g4056">
    <path
       sodipodi:end="0.78539816"
       sodipodi:start="0"
       d="m 544.47221,276.05994 c 0,46.75014 -18.57142,91.58551 -51.62876,124.64286 L 368.20059,276.05994 z"
       sodipodi:ry="176.27162"
       sodipodi:rx="176.27162"
       sodipodi:cy="276.05994"
       sodipodi:cx="368.20059"
       id="path4058"
       style="fill:#ffffff;fill-opacity:1;stroke:#000000;stroke-width:1;stroke-linecap:butt;stroke-miterlimit:4;stroke-opacity:1;stroke-dasharray:none;stroke-dashoffset:0"
       sodipodi:type="arc"
       transform="matrix(-0.70710678,0.70710678,-0.70710678,-0.70710678,808.75341,134.24659)" />
    <rect
       transform="matrix(0.92432646,-0.38160266,0.38160266,0.92432646,0,0)"
       y="292.06732"
       x="95.428017"
       height="55"
       width="60.714287"
       id="rect4060"
       style="fill:none;stroke:#000000;stroke-width:1;stroke-linecap:butt;stroke-miterlimit:4;stroke-opacity:1;stroke-dasharray:none;stroke-dashoffset:0" />
  </g>
  <g
     id="g4062"
     transform="matrix(-0.70710677,-0.70710677,0.70710677,-0.70710677,461.94018,590.14163)">
    <path
       transform="matrix(-0.70710678,0.70710678,-0.70710678,-0.70710678,808.75341,134.24659)"
       sodipodi:type="arc"
       style="fill:#ffffff;fill-opacity:1;stroke:#000000;stroke-width:1;stroke-linecap:butt;stroke-miterlimit:4;stroke-opacity:1;stroke-dasharray:none;stroke-dashoffset:0"
       id="path4064"
       sodipodi:cx="368.20059"
       sodipodi:cy="276.05994"
       sodipodi:rx="176.27162"
       sodipodi:ry="176.27162"
       d="m 544.47221,276.05994 c 0,46.75014 -18.57142,91.58551 -51.62876,124.64286 L 368.20059,276.05994 z"
       sodipodi:start="0"
       sodipodi:end="0.78539816" />
    <rect
       style="fill:none;stroke:#000000;stroke-width:1;stroke-linecap:butt;stroke-miterlimit:4;stroke-opacity:1;stroke-dasharray:none;stroke-dashoffset:0"
       id="rect4066"
       width="60.714287"
       height="55"
       x="95.428017"
       y="292.06732"
       transform="matrix(0.92432646,-0.38160266,0.38160266,0.92432646,0,0)" />
  </g>
  <g
     transform="matrix(0,-0.99999998,0.99999998,0,153.79256,552.59229)"
     id="g4068">
    <path
       sodipodi:end="0.78539816"
       sodipodi:start="0"
       d="m 544.47221,276.05994 c 0,46.75014 -18.57142,91.58551 -51.62876,124.64286 L 368.20059,276.05994 z"
       sodipodi:ry="176.27162"
       sodipodi:rx="176.27162"
       sodipodi:cy="276.05994"
       sodipodi:cx="368.20059"
       id="path4070"
       style="fill:#ffffff;fill-opacity:1;stroke:#000000;stroke-width:1;stroke-linecap:butt;stroke-miterlimit:4;stroke-opacity:1;stroke-dasharray:none;stroke-dashoffset:0"
       sodipodi:type="arc"
       transform="matrix(-0.70710678,0.70710678,-0.70710678,-0.70710678,808.75341,134.24659)" />
    <rect
       transform="matrix(0.92432646,-0.38160266,0.38160266,0.92432646,0,0)"
       y="292.06732"
       x="95.428017"
       height="55"
       width="60.714287"
       id="rect4072"
       style="fill:none;stroke:#000000;stroke-width:1;stroke-linecap:butt;stroke-miterlimit:4;stroke-opacity:1;stroke-dasharray:none;stroke-dashoffset:0" />
  </g>
  <g
     id="g4074"
     transform="matrix(0.70710677,-0.70710677,0.70710677,0.70710677,-37.549324,308.14763)">
    <path
       transform="matrix(-0.70710678,0.70710678,-0.70710678,-0.70710678,808.75341,134.24659)"
       sodipodi:type="arc"
       style="fill:#ffffff;fill-opacity:1;stroke:#000000;stroke-width:1;stroke-linecap:butt;stroke-miterlimit:4;stroke-opacity:1;stroke-dasharray:none;stroke-dashoffset:0"
       id="path4076"
       sodipodi:cx="368.20059"
       sodipodi:cy="276.05994"
       sodipodi:rx="176.27162"
       sodipodi:ry="176.27162"
       d="m 544.47221,276.05994 c 0,46.75014 -18.57142,91.58551 -51.62876,124.64286 L 368.20059,276.05994 z"
       sodipodi:start="0"
       sodipodi:end="0.78539816" />
    <rect
       style="fill:none;stroke:#000000;stroke-width:1;stroke-linecap:butt;stroke-miterlimit:4;stroke-opacity:1;stroke-dasharray:none;stroke-dashoffset:0"
       id="rect4078"
       width="60.714287"
       height="55"
       x="95.428017"
       y="292.06732"
       transform="matrix(0.92432646,-0.38160266,0.38160266,0.92432646,0,0)" />
  </g>
  <path
     transform="translate(257.83528,89.537695)"
     sodipodi:open="true"
     sodipodi:end="8.1068133"
     sodipodi:start="2.6934793"
     d="m 53.190761,130.13284 a 46.785713,46.785713 0 1 1 30.463091,25.02764"
     sodipodi:ry="46.785713"
     sodipodi:rx="46.785713"
     sodipodi:cy="109.86218"
     sodipodi:cx="95.35714"
     id="path4309"
     style="fill:none;stroke:#000000;stroke-width:1;stroke-linecap:butt;stroke-miterlimit:4;stroke-opacity:1;stroke-dasharray:none;stroke-dashoffset:0;marker-end:url(#Arrow1Lend)"
     sodipodi:type="arc" />
  <g
     id="g5674"
     transform="matrix(3,0,0,-3,-448.64971,2280.0784)"
     xml:space="preserve"
     stroke="black"
     stroke-linecap="butt"
     stroke-linejoin="miter"
     stroke-miterlimit="10.433"
     stroke-dasharray="none"
     stroke-dashoffset="0"
     stroke-opacity="1"
     fill="none"
     fill-rule="evenodd"
     fill-opacity="1"
     font-style="normal"
     font-variant="normal"
     font-weight="normal"
     font-stretch="normal"
     font-size-adjust="none"
     letter-spacing="normal"
     word-spacing="normal"
     text-anchor="start"
     ns0:text="$s_1$"
     ns0:preamble=""
     style="font-style:normal;font-variant:normal;font-weight:normal;font-stretch:normal;letter-spacing:normal;word-spacing:normal;text-anchor:start;fill:none;stroke:#000000;stroke-linecap:butt;stroke-linejoin:miter;stroke-miterlimit:10.43299961;stroke-opacity:1;stroke-dasharray:none;stroke-dashoffset:0"><path
       d="M227.32,710.84 L227.3,710.84 L227.27,710.84 L227.25,710.83 L227.22,710.83 L227.2,710.82 L227.17,710.81 L227.15,710.81 L227.13,710.8 L227.11,710.79 L227.09,710.78 L227.07,710.76 L227.05,710.75 L227.03,710.74 L227.01,710.72 L227,710.71 L226.98,710.69 L226.96,710.68 L226.95,710.66 L226.94,710.65 L226.92,710.63 L226.91,710.61 L226.9,710.59 L226.89,710.57 L226.88,710.55 L226.87,710.53 L226.87,710.51 L226.86,710.49 L226.85,710.47 L226.85,710.45 L226.85,710.43 L226.85,710.41 L226.85,710.39 C226.85,710.25,226.93,710.1,227.15,710.1 C227.37,710.1,227.61,710.27,227.61,710.66 C227.61,711.11,227.18,711.52,226.43,711.52 C225.11,711.52,224.74,710.5,224.74,710.07 C224.74,709.29,225.48,709.14,225.77,709.08 C226.29,708.98,226.8,708.87,226.8,708.33 C226.8,708.07,226.58,707.23,225.38,707.23 C225.24,707.23,224.48,707.23,224.25,707.76 C224.63,707.71,224.88,708.01,224.88,708.29 C224.88,708.52,224.71,708.64,224.51,708.64 C224.25,708.64,223.95,708.43,223.95,707.98 C223.95,707.41,224.52,707.02,225.37,707.02 C226.98,707.02,227.37,708.22,227.37,708.66 C227.37,709.02,227.18,709.27,227.06,709.39 C226.79,709.67,226.51,709.72,226.07,709.81 C225.71,709.89,225.31,709.96,225.31,710.4 C225.31,710.69,225.55,711.3,226.43,711.3 C226.68,711.3,227.17,711.23,227.32,710.84 Z "
       stroke-width="0"
       fill="black"
       id="path5676" /><path
       d="M230.43,710.05 L230.43,710.06 L230.43,710.07 L230.43,710.08 L230.43,710.09 L230.43,710.09 L230.43,710.1 L230.43,710.11 L230.43,710.12 L230.43,710.12 L230.43,710.13 L230.43,710.14 L230.43,710.14 L230.43,710.15 L230.43,710.15 L230.43,710.16 L230.43,710.16 L230.43,710.17 L230.43,710.17 L230.43,710.18 L230.42,710.19 L230.42,710.2 L230.42,710.2 L230.41,710.21 L230.41,710.22 L230.4,710.22 L230.4,710.23 L230.39,710.23 L230.39,710.23 L230.38,710.24 L230.37,710.24 L230.36,710.24 L230.35,710.24 L230.35,710.24 L230.34,710.24 L230.34,710.24 L230.33,710.25 L230.32,710.25 L230.32,710.25 L230.31,710.25 L230.3,710.25 L230.3,710.25 L230.29,710.25 L230.28,710.25 L230.28,710.25 L230.27,710.25 L230.26,710.25 L230.25,710.25 L230.24,710.25 L230.24,710.25 L230.23,710.25 C229.78,709.81,229.15,709.8,228.86,709.8 V709.55 C229.03,709.55,229.49,709.55,229.87,709.75 V706.2 C229.87,705.97,229.87,705.88,229.18,705.88 H228.91 V705.63 C229.04,705.64,229.89,705.66,230.15,705.66 C230.37,705.66,231.24,705.64,231.4,705.63 V705.88 H231.13 C230.43,705.88,230.43,705.97,230.43,706.2 Z "
       stroke-width="0"
       fill="black"
       id="path5678" /></g>  <g
     style="font-style:normal;font-variant:normal;font-weight:normal;font-stretch:normal;letter-spacing:normal;word-spacing:normal;text-anchor:start;fill:none;stroke:#000000;stroke-linecap:butt;stroke-linejoin:miter;stroke-miterlimit:10.43299961;stroke-opacity:1;stroke-dasharray:none;stroke-dashoffset:0"
     ns0:preamble=""
     ns0:text="$s_2$"
     text-anchor="start"
     word-spacing="normal"
     letter-spacing="normal"
     font-size-adjust="none"
     font-stretch="normal"
     font-weight="normal"
     font-variant="normal"
     font-style="normal"
     fill-opacity="1"
     fill-rule="evenodd"
     fill="none"
     stroke-opacity="1"
     stroke-dashoffset="0"
     stroke-dasharray="none"
     stroke-miterlimit="10.433"
     stroke-linejoin="miter"
     stroke-linecap="butt"
     stroke="black"
     xml:space="preserve"
     transform="matrix(3,0,0,-3,-381.40229,2212.4717)"
     id="g5859"><path
       id="path5861"
       fill="black"
       stroke-width="0"
       d="M227.32,710.84 L227.3,710.84 L227.27,710.84 L227.25,710.83 L227.22,710.83 L227.2,710.82 L227.17,710.81 L227.15,710.81 L227.13,710.8 L227.11,710.79 L227.09,710.78 L227.07,710.76 L227.05,710.75 L227.03,710.74 L227.01,710.72 L227,710.71 L226.98,710.69 L226.96,710.68 L226.95,710.66 L226.94,710.65 L226.92,710.63 L226.91,710.61 L226.9,710.59 L226.89,710.57 L226.88,710.55 L226.87,710.53 L226.87,710.51 L226.86,710.49 L226.85,710.47 L226.85,710.45 L226.85,710.43 L226.85,710.41 L226.85,710.39 C226.85,710.25,226.93,710.1,227.15,710.1 C227.37,710.1,227.61,710.27,227.61,710.66 C227.61,711.11,227.18,711.52,226.43,711.52 C225.11,711.52,224.74,710.5,224.74,710.07 C224.74,709.29,225.48,709.14,225.77,709.08 C226.29,708.98,226.8,708.87,226.8,708.33 C226.8,708.07,226.58,707.23,225.38,707.23 C225.24,707.23,224.48,707.23,224.25,707.76 C224.63,707.71,224.88,708.01,224.88,708.29 C224.88,708.52,224.71,708.64,224.51,708.64 C224.25,708.64,223.95,708.43,223.95,707.98 C223.95,707.41,224.52,707.02,225.37,707.02 C226.98,707.02,227.37,708.22,227.37,708.66 C227.37,709.02,227.18,709.27,227.06,709.39 C226.79,709.67,226.51,709.72,226.07,709.81 C225.71,709.89,225.31,709.96,225.31,710.4 C225.31,710.69,225.55,711.3,226.43,711.3 C226.68,711.3,227.17,711.23,227.32,710.84 Z " /><path
       id="path5863"
       fill="black"
       stroke-width="0"
       d="M231.62,706.9 H231.38 C231.36,706.74,231.29,706.33,231.2,706.26 C231.15,706.22,230.61,706.22,230.51,706.22 H229.23 C229.96,706.87,230.21,707.06,230.62,707.39 C231.14,707.8,231.62,708.23,231.62,708.89 C231.62,709.73,230.88,710.25,229.99,710.25 C229.13,710.25,228.54,709.64,228.54,709 C228.54,708.65,228.84,708.61,228.91,708.61 C229.08,708.61,229.28,708.73,229.28,708.98 C229.28,709.11,229.23,709.35,228.87,709.35 C229.08,709.84,229.56,710,229.88,710 C230.58,710,230.94,709.46,230.94,708.89 C230.94,708.29,230.51,707.81,230.29,707.56 L228.61,705.9 C228.54,705.84,228.54,705.83,228.54,705.63 H231.41 Z " /></g>  <g
     id="g6044"
     transform="matrix(3,0,0,-3,-286.04607,2212.2177)"
     xml:space="preserve"
     stroke="black"
     stroke-linecap="butt"
     stroke-linejoin="miter"
     stroke-miterlimit="10.433"
     stroke-dasharray="none"
     stroke-dashoffset="0"
     stroke-opacity="1"
     fill="none"
     fill-rule="evenodd"
     fill-opacity="1"
     font-style="normal"
     font-variant="normal"
     font-weight="normal"
     font-stretch="normal"
     font-size-adjust="none"
     letter-spacing="normal"
     word-spacing="normal"
     text-anchor="start"
     ns0:text="$s_3$"
     ns0:preamble=""
     style="font-style:normal;font-variant:normal;font-weight:normal;font-stretch:normal;letter-spacing:normal;word-spacing:normal;text-anchor:start;fill:none;stroke:#000000;stroke-linecap:butt;stroke-linejoin:miter;stroke-miterlimit:10.43299961;stroke-opacity:1;stroke-dasharray:none;stroke-dashoffset:0"><path
       d="M227.32,710.84 L227.3,710.84 L227.27,710.84 L227.25,710.83 L227.22,710.83 L227.2,710.82 L227.17,710.81 L227.15,710.81 L227.13,710.8 L227.11,710.79 L227.09,710.78 L227.07,710.76 L227.05,710.75 L227.03,710.74 L227.01,710.72 L227,710.71 L226.98,710.69 L226.96,710.68 L226.95,710.66 L226.94,710.65 L226.92,710.63 L226.91,710.61 L226.9,710.59 L226.89,710.57 L226.88,710.55 L226.87,710.53 L226.87,710.51 L226.86,710.49 L226.85,710.47 L226.85,710.45 L226.85,710.43 L226.85,710.41 L226.85,710.39 C226.85,710.25,226.93,710.1,227.15,710.1 C227.37,710.1,227.61,710.27,227.61,710.66 C227.61,711.11,227.18,711.52,226.43,711.52 C225.11,711.52,224.74,710.5,224.74,710.07 C224.74,709.29,225.48,709.14,225.77,709.08 C226.29,708.98,226.8,708.87,226.8,708.33 C226.8,708.07,226.58,707.23,225.38,707.23 C225.24,707.23,224.48,707.23,224.25,707.76 C224.63,707.71,224.88,708.01,224.88,708.29 C224.88,708.52,224.71,708.64,224.51,708.64 C224.25,708.64,223.95,708.43,223.95,707.98 C223.95,707.41,224.52,707.02,225.37,707.02 C226.98,707.02,227.37,708.22,227.37,708.66 C227.37,709.02,227.18,709.27,227.06,709.39 C226.79,709.67,226.51,709.72,226.07,709.81 C225.71,709.89,225.31,709.96,225.31,710.4 C225.31,710.69,225.55,711.3,226.43,711.3 C226.68,711.3,227.17,711.23,227.32,710.84 Z "
       stroke-width="0"
       fill="black"
       id="path6046" /><path
       d="M230,707.95 L230.05,707.95 L230.1,707.95 L230.15,707.94 L230.2,707.94 L230.25,707.93 L230.29,707.91 L230.34,707.9 L230.38,707.88 L230.42,707.86 L230.46,707.84 L230.5,707.82 L230.54,707.8 L230.57,707.77 L230.61,707.74 L230.64,707.71 L230.67,707.67 L230.7,707.64 L230.73,707.6 L230.76,707.56 L230.78,707.52 L230.81,707.47 L230.83,707.42 L230.85,707.37 L230.87,707.32 L230.88,707.27 L230.9,707.21 L230.91,707.16 L230.92,707.1 L230.93,707.03 L230.93,706.97 L230.94,706.9 L230.94,706.83 C230.94,705.97,230.43,705.71,230.03,705.71 C229.75,705.71,229.14,705.79,228.85,706.2 C229.18,706.22,229.25,706.45,229.25,706.59 C229.25,706.81,229.08,706.97,228.87,706.97 C228.67,706.97,228.48,706.85,228.48,706.57 C228.48,705.92,229.2,705.49,230.04,705.49 C231.01,705.49,231.68,706.14,231.68,706.83 C231.68,707.38,231.24,707.92,230.47,708.08 C231.2,708.34,231.47,708.86,231.47,709.29 C231.47,709.84,230.83,710.25,230.06,710.25 C229.29,710.25,228.69,709.87,228.69,709.32 C228.69,709.08,228.85,708.95,229.06,708.95 C229.27,708.95,229.41,709.11,229.41,709.3 C229.41,709.5,229.27,709.65,229.06,709.66 C229.3,709.97,229.78,710.05,230.04,710.05 C230.35,710.05,230.79,709.89,230.79,709.29 C230.79,709,230.69,708.68,230.51,708.46 C230.28,708.2,230.09,708.18,229.74,708.16 C229.57,708.15,229.55,708.15,229.52,708.14 C229.5,708.14,229.45,708.13,229.45,708.05 C229.45,707.95,229.51,707.95,229.63,707.95 Z "
       stroke-width="0"
       fill="black"
       id="path6048" /></g>  <g
     style="font-style:normal;font-variant:normal;font-weight:normal;font-stretch:normal;letter-spacing:normal;word-spacing:normal;text-anchor:start;fill:none;stroke:#000000;stroke-linecap:butt;stroke-linejoin:miter;stroke-miterlimit:10.43299961;stroke-opacity:1;stroke-dasharray:none;stroke-dashoffset:0"
     ns0:preamble=""
     ns0:text="$s_4$"
     text-anchor="start"
     word-spacing="normal"
     letter-spacing="normal"
     font-size-adjust="none"
     font-stretch="normal"
     font-weight="normal"
     font-variant="normal"
     font-style="normal"
     fill-opacity="1"
     fill-rule="evenodd"
     fill="none"
     stroke-opacity="1"
     stroke-dashoffset="0"
     stroke-dasharray="none"
     stroke-miterlimit="10.433"
     stroke-linejoin="miter"
     stroke-linecap="butt"
     stroke="black"
     xml:space="preserve"
     transform="matrix(3,0,0,-3,-218.43945,2279.4652)"
     id="g6229"><path
       id="path6231"
       fill="black"
       stroke-width="0"
       d="M227.32,710.84 L227.3,710.84 L227.27,710.84 L227.25,710.83 L227.22,710.83 L227.2,710.82 L227.17,710.81 L227.15,710.81 L227.13,710.8 L227.11,710.79 L227.09,710.78 L227.07,710.76 L227.05,710.75 L227.03,710.74 L227.01,710.72 L227,710.71 L226.98,710.69 L226.96,710.68 L226.95,710.66 L226.94,710.65 L226.92,710.63 L226.91,710.61 L226.9,710.59 L226.89,710.57 L226.88,710.55 L226.87,710.53 L226.87,710.51 L226.86,710.49 L226.85,710.47 L226.85,710.45 L226.85,710.43 L226.85,710.41 L226.85,710.39 C226.85,710.25,226.93,710.1,227.15,710.1 C227.37,710.1,227.61,710.27,227.61,710.66 C227.61,711.11,227.18,711.52,226.43,711.52 C225.11,711.52,224.74,710.5,224.74,710.07 C224.74,709.29,225.48,709.14,225.77,709.08 C226.29,708.98,226.8,708.87,226.8,708.33 C226.8,708.07,226.58,707.23,225.38,707.23 C225.24,707.23,224.48,707.23,224.25,707.76 C224.63,707.71,224.88,708.01,224.88,708.29 C224.88,708.52,224.71,708.64,224.51,708.64 C224.25,708.64,223.95,708.43,223.95,707.98 C223.95,707.41,224.52,707.02,225.37,707.02 C226.98,707.02,227.37,708.22,227.37,708.66 C227.37,709.02,227.18,709.27,227.06,709.39 C226.79,709.67,226.51,709.72,226.07,709.81 C225.71,709.89,225.31,709.96,225.31,710.4 C225.31,710.69,225.55,711.3,226.43,711.3 C226.68,711.3,227.17,711.23,227.32,710.84 Z " /><path
       id="path6233"
       fill="black"
       stroke-width="0"
       d="M231.79,706.77 V707.02 H231.01 V710.12 C231.01,710.27,231.01,710.32,230.86,710.32 C230.78,710.32,230.75,710.32,230.68,710.22 L228.37,707.02 V706.77 H230.42 L230.47,707.02 H228.63 L230.47,709.57 V707.02 L230.42,706.77 V706.2 C230.42,705.97,230.42,705.88,229.86,705.88 H229.67 V705.63 C230.02,705.65,230.46,705.66,230.71,705.66 C230.97,705.66,231.42,705.65,231.76,705.63 V705.88 H231.58 C231.01,705.88,231.01,705.97,231.01,706.2 V706.77 Z " /></g>  <g
     id="g6414"
     transform="matrix(3,0,0,-3,-218.18545,2374.8214)"
     xml:space="preserve"
     stroke="black"
     stroke-linecap="butt"
     stroke-linejoin="miter"
     stroke-miterlimit="10.433"
     stroke-dasharray="none"
     stroke-dashoffset="0"
     stroke-opacity="1"
     fill="none"
     fill-rule="evenodd"
     fill-opacity="1"
     font-style="normal"
     font-variant="normal"
     font-weight="normal"
     font-stretch="normal"
     font-size-adjust="none"
     letter-spacing="normal"
     word-spacing="normal"
     text-anchor="start"
     ns0:text="$s_5$"
     ns0:preamble=""
     style="font-style:normal;font-variant:normal;font-weight:normal;font-stretch:normal;letter-spacing:normal;word-spacing:normal;text-anchor:start;fill:none;stroke:#000000;stroke-linecap:butt;stroke-linejoin:miter;stroke-miterlimit:10.43299961;stroke-opacity:1;stroke-dasharray:none;stroke-dashoffset:0"><path
       d="M227.32,710.84 L227.3,710.84 L227.27,710.84 L227.25,710.83 L227.22,710.83 L227.2,710.82 L227.17,710.81 L227.15,710.81 L227.13,710.8 L227.11,710.79 L227.09,710.78 L227.07,710.76 L227.05,710.75 L227.03,710.74 L227.01,710.72 L227,710.71 L226.98,710.69 L226.96,710.68 L226.95,710.66 L226.94,710.65 L226.92,710.63 L226.91,710.61 L226.9,710.59 L226.89,710.57 L226.88,710.55 L226.87,710.53 L226.87,710.51 L226.86,710.49 L226.85,710.47 L226.85,710.45 L226.85,710.43 L226.85,710.41 L226.85,710.39 C226.85,710.25,226.93,710.1,227.15,710.1 C227.37,710.1,227.61,710.27,227.61,710.66 C227.61,711.11,227.18,711.52,226.43,711.52 C225.11,711.52,224.74,710.5,224.74,710.07 C224.74,709.29,225.48,709.14,225.77,709.08 C226.29,708.98,226.8,708.87,226.8,708.33 C226.8,708.07,226.58,707.23,225.38,707.23 C225.24,707.23,224.48,707.23,224.25,707.76 C224.63,707.71,224.88,708.01,224.88,708.29 C224.88,708.52,224.71,708.64,224.51,708.64 C224.25,708.64,223.95,708.43,223.95,707.98 C223.95,707.41,224.52,707.02,225.37,707.02 C226.98,707.02,227.37,708.22,227.37,708.66 C227.37,709.02,227.18,709.27,227.06,709.39 C226.79,709.67,226.51,709.72,226.07,709.81 C225.71,709.89,225.31,709.96,225.31,710.4 C225.31,710.69,225.55,711.3,226.43,711.3 C226.68,711.3,227.17,711.23,227.32,710.84 Z "
       stroke-width="0"
       fill="black"
       id="path6416" /><path
       d="M229.18,709.51 L229.21,709.5 L229.25,709.5 L229.28,709.49 L229.31,709.48 L229.34,709.48 L229.37,709.47 L229.39,709.46 L229.42,709.46 L229.45,709.45 L229.47,709.45 L229.5,709.45 L229.52,709.44 L229.55,709.44 L229.57,709.44 L229.59,709.43 L229.61,709.43 L229.63,709.43 L229.65,709.43 L229.67,709.43 L229.69,709.43 L229.71,709.42 L229.72,709.42 L229.74,709.42 L229.75,709.42 L229.77,709.42 L229.78,709.42 L229.8,709.42 L229.81,709.42 L229.82,709.42 L229.84,709.42 L229.85,709.42 L229.86,709.42 C230.78,709.42,231.32,710.05,231.32,710.15 C231.32,710.23,231.27,710.25,231.24,710.25 C231.22,710.25,231.21,710.25,231.18,710.23 C231.01,710.16,230.64,710.03,230.13,710.03 C229.93,710.03,229.57,710.04,229.11,710.21 C229.04,710.25,229.03,710.25,229.02,710.25 C228.93,710.25,228.93,710.17,228.93,710.06 V708.01 C228.93,707.89,228.93,707.81,229.04,707.81 C229.1,707.81,229.11,707.82,229.18,707.91 C229.48,708.29,229.91,708.34,230.15,708.34 C230.57,708.34,230.76,708.01,230.79,707.95 C230.92,707.72,230.96,707.46,230.96,707.06 C230.96,706.85,230.96,706.44,230.75,706.13 C230.57,705.88,230.27,705.71,229.93,705.71 C229.48,705.71,229.01,705.97,228.84,706.42 C229.1,706.4,229.24,706.58,229.24,706.76 C229.24,707.06,228.98,707.12,228.89,707.12 C228.88,707.12,228.54,707.12,228.54,706.74 C228.54,706.12,229.11,705.49,229.95,705.49 C230.84,705.49,231.62,706.15,231.62,707.03 C231.62,707.81,231.02,708.54,230.16,708.54 C229.85,708.54,229.49,708.46,229.18,708.2 Z "
       stroke-width="0"
       fill="black"
       id="path6418" /></g>  <g
     style="font-style:normal;font-variant:normal;font-weight:normal;font-stretch:normal;letter-spacing:normal;word-spacing:normal;text-anchor:start;fill:none;stroke:#000000;stroke-linecap:butt;stroke-linejoin:miter;stroke-miterlimit:10.43299961;stroke-opacity:1;stroke-dasharray:none;stroke-dashoffset:0"
     ns0:preamble=""
     ns0:text="$s_6$"
     text-anchor="start"
     word-spacing="normal"
     letter-spacing="normal"
     font-size-adjust="none"
     font-stretch="normal"
     font-weight="normal"
     font-variant="normal"
     font-style="normal"
     fill-opacity="1"
     fill-rule="evenodd"
     fill="none"
     stroke-opacity="1"
     stroke-dashoffset="0"
     stroke-dasharray="none"
     stroke-miterlimit="10.433"
     stroke-linejoin="miter"
     stroke-linecap="butt"
     stroke="black"
     xml:space="preserve"
     transform="matrix(3,0,0,-3,-285.43287,2442.428)"
     id="g6599"><path
       id="path6601"
       fill="black"
       stroke-width="0"
       d="M227.32,710.84 L227.3,710.84 L227.27,710.84 L227.25,710.83 L227.22,710.83 L227.2,710.82 L227.17,710.81 L227.15,710.81 L227.13,710.8 L227.11,710.79 L227.09,710.78 L227.07,710.76 L227.05,710.75 L227.03,710.74 L227.01,710.72 L227,710.71 L226.98,710.69 L226.96,710.68 L226.95,710.66 L226.94,710.65 L226.92,710.63 L226.91,710.61 L226.9,710.59 L226.89,710.57 L226.88,710.55 L226.87,710.53 L226.87,710.51 L226.86,710.49 L226.85,710.47 L226.85,710.45 L226.85,710.43 L226.85,710.41 L226.85,710.39 C226.85,710.25,226.93,710.1,227.15,710.1 C227.37,710.1,227.61,710.27,227.61,710.66 C227.61,711.11,227.18,711.52,226.43,711.52 C225.11,711.52,224.74,710.5,224.74,710.07 C224.74,709.29,225.48,709.14,225.77,709.08 C226.29,708.98,226.8,708.87,226.8,708.33 C226.8,708.07,226.58,707.23,225.38,707.23 C225.24,707.23,224.48,707.23,224.25,707.76 C224.63,707.71,224.88,708.01,224.88,708.29 C224.88,708.52,224.71,708.64,224.51,708.64 C224.25,708.64,223.95,708.43,223.95,707.98 C223.95,707.41,224.52,707.02,225.37,707.02 C226.98,707.02,227.37,708.22,227.37,708.66 C227.37,709.02,227.18,709.27,227.06,709.39 C226.79,709.67,226.51,709.72,226.07,709.81 C225.71,709.89,225.31,709.96,225.31,710.4 C225.31,710.69,225.55,711.3,226.43,711.3 C226.68,711.3,227.17,711.23,227.32,710.84 Z " /><path
       id="path6603"
       fill="black"
       stroke-width="0"
       d="M229.15,707.91 L229.15,708.01 L229.15,708.12 L229.15,708.22 L229.16,708.32 L229.17,708.42 L229.18,708.52 L229.19,708.62 L229.2,708.71 L229.22,708.81 L229.24,708.9 L229.27,708.99 L229.3,709.08 L229.32,709.12 L229.33,709.17 L229.35,709.21 L229.37,709.25 L229.39,709.29 L229.41,709.33 L229.44,709.37 L229.46,709.41 C229.7,709.79,230.07,710.05,230.52,710.05 C230.73,710.05,231.01,709.99,231.15,709.8 C230.97,709.79,230.82,709.67,230.82,709.47 C230.82,709.3,230.94,709.14,231.15,709.14 C231.36,709.14,231.49,709.28,231.49,709.48 C231.49,709.89,231.19,710.25,230.51,710.25 C229.5,710.25,228.48,709.33,228.48,707.84 C228.48,706.03,229.33,705.49,230.09,705.49 C230.94,705.49,231.68,706.14,231.68,707.05 C231.68,707.93,230.98,708.59,230.16,708.59 L230.13,708.39 C230.45,708.39,230.66,708.27,230.84,708.01 C231.01,707.74,231.01,707.45,231.01,707.05 C231.01,706.65,231.01,706.36,230.82,706.09 C230.66,705.85,230.43,705.71,230.09,705.71 H230.09 C229.75,705.71,229.47,705.92,229.33,706.22 C229.22,706.43,229.17,706.78,229.17,707.2 C229.17,707.87,229.57,708.39,230.13,708.39 L230.16,708.59 C229.61,708.59,229.3,708.22,229.15,707.91 Z " /></g>  <g
     id="g6784"
     transform="matrix(3,0,0,-3,-380.78907,2442.682)"
     xml:space="preserve"
     stroke="black"
     stroke-linecap="butt"
     stroke-linejoin="miter"
     stroke-miterlimit="10.433"
     stroke-dasharray="none"
     stroke-dashoffset="0"
     stroke-opacity="1"
     fill="none"
     fill-rule="evenodd"
     fill-opacity="1"
     font-style="normal"
     font-variant="normal"
     font-weight="normal"
     font-stretch="normal"
     font-size-adjust="none"
     letter-spacing="normal"
     word-spacing="normal"
     text-anchor="start"
     ns0:text="$s_7$"
     ns0:preamble=""
     style="font-style:normal;font-variant:normal;font-weight:normal;font-stretch:normal;letter-spacing:normal;word-spacing:normal;text-anchor:start;fill:none;stroke:#000000;stroke-linecap:butt;stroke-linejoin:miter;stroke-miterlimit:10.43299961;stroke-opacity:1;stroke-dasharray:none;stroke-dashoffset:0"><path
       d="M227.32,710.84 L227.3,710.84 L227.27,710.84 L227.25,710.83 L227.22,710.83 L227.2,710.82 L227.17,710.81 L227.15,710.81 L227.13,710.8 L227.11,710.79 L227.09,710.78 L227.07,710.76 L227.05,710.75 L227.03,710.74 L227.01,710.72 L227,710.71 L226.98,710.69 L226.96,710.68 L226.95,710.66 L226.94,710.65 L226.92,710.63 L226.91,710.61 L226.9,710.59 L226.89,710.57 L226.88,710.55 L226.87,710.53 L226.87,710.51 L226.86,710.49 L226.85,710.47 L226.85,710.45 L226.85,710.43 L226.85,710.41 L226.85,710.39 C226.85,710.25,226.93,710.1,227.15,710.1 C227.37,710.1,227.61,710.27,227.61,710.66 C227.61,711.11,227.18,711.52,226.43,711.52 C225.11,711.52,224.74,710.5,224.74,710.07 C224.74,709.29,225.48,709.14,225.77,709.08 C226.29,708.98,226.8,708.87,226.8,708.33 C226.8,708.07,226.58,707.23,225.38,707.23 C225.24,707.23,224.48,707.23,224.25,707.76 C224.63,707.71,224.88,708.01,224.88,708.29 C224.88,708.52,224.71,708.64,224.51,708.64 C224.25,708.64,223.95,708.43,223.95,707.98 C223.95,707.41,224.52,707.02,225.37,707.02 C226.98,707.02,227.37,708.22,227.37,708.66 C227.37,709.02,227.18,709.27,227.06,709.39 C226.79,709.67,226.51,709.72,226.07,709.81 C225.71,709.89,225.31,709.96,225.31,710.4 C225.31,710.69,225.55,711.3,226.43,711.3 C226.68,711.3,227.17,711.23,227.32,710.84 Z "
       stroke-width="0"
       fill="black"
       id="path6786" /><path
       d="M231.83,709.83 L231.83,709.84 L231.84,709.85 L231.85,709.85 L231.85,709.86 L231.86,709.87 L231.86,709.87 L231.86,709.88 L231.87,709.88 L231.87,709.89 L231.88,709.9 L231.88,709.9 L231.88,709.91 L231.88,709.91 L231.89,709.92 L231.89,709.93 L231.89,709.93 L231.89,709.94 L231.89,709.95 L231.89,709.96 L231.89,709.96 L231.9,709.97 L231.9,709.98 L231.9,709.99 L231.9,710 L231.9,710.01 L231.9,710.02 L231.9,710.04 L231.9,710.05 L231.9,710.06 L231.9,710.07 L231.9,710.08 L231.9,710.08 L231.9,710.09 L231.9,710.1 L231.9,710.11 H230.07 C229.79,710.11,229.72,710.12,229.47,710.14 C229.1,710.16,229.09,710.21,229.07,710.33 H228.83 L228.59,708.84 H228.83 C228.84,708.95,228.91,709.41,229.02,709.48 C229.08,709.52,229.64,709.52,229.75,709.52 H231.26 C231.04,709.23,230.69,708.79,230.54,708.6 C229.63,707.4,229.54,706.3,229.54,705.89 C229.54,705.81,229.54,705.49,229.87,705.49 C230.21,705.49,230.21,705.8,230.21,705.9 V706.17 C230.21,707.52,230.48,708.14,230.78,708.52 Z "
       stroke-width="0"
       fill="black"
       id="path6788" /></g>  <g
     style="font-style:normal;font-variant:normal;font-weight:normal;font-stretch:normal;letter-spacing:normal;word-spacing:normal;text-anchor:start;fill:none;stroke:#000000;stroke-linecap:butt;stroke-linejoin:miter;stroke-miterlimit:10.43299961;stroke-opacity:1;stroke-dasharray:none;stroke-dashoffset:0"
     ns0:preamble=""
     ns0:text="$s_8$"
     text-anchor="start"
     word-spacing="normal"
     letter-spacing="normal"
     font-size-adjust="none"
     font-stretch="normal"
     font-weight="normal"
     font-variant="normal"
     font-style="normal"
     fill-opacity="1"
     fill-rule="evenodd"
     fill="none"
     stroke-opacity="1"
     stroke-dashoffset="0"
     stroke-dasharray="none"
     stroke-miterlimit="10.433"
     stroke-linejoin="miter"
     stroke-linecap="butt"
     stroke="black"
     xml:space="preserve"
     transform="matrix(3,0,0,-3,-448.39571,2375.4346)"
     id="g6969"><path
       id="path6971"
       fill="black"
       stroke-width="0"
       d="M227.32,710.84 L227.3,710.84 L227.27,710.84 L227.25,710.83 L227.22,710.83 L227.2,710.82 L227.17,710.81 L227.15,710.81 L227.13,710.8 L227.11,710.79 L227.09,710.78 L227.07,710.76 L227.05,710.75 L227.03,710.74 L227.01,710.72 L227,710.71 L226.98,710.69 L226.96,710.68 L226.95,710.66 L226.94,710.65 L226.92,710.63 L226.91,710.61 L226.9,710.59 L226.89,710.57 L226.88,710.55 L226.87,710.53 L226.87,710.51 L226.86,710.49 L226.85,710.47 L226.85,710.45 L226.85,710.43 L226.85,710.41 L226.85,710.39 C226.85,710.25,226.93,710.1,227.15,710.1 C227.37,710.1,227.61,710.27,227.61,710.66 C227.61,711.11,227.18,711.52,226.43,711.52 C225.11,711.52,224.74,710.5,224.74,710.07 C224.74,709.29,225.48,709.14,225.77,709.08 C226.29,708.98,226.8,708.87,226.8,708.33 C226.8,708.07,226.58,707.23,225.38,707.23 C225.24,707.23,224.48,707.23,224.25,707.76 C224.63,707.71,224.88,708.01,224.88,708.29 C224.88,708.52,224.71,708.64,224.51,708.64 C224.25,708.64,223.95,708.43,223.95,707.98 C223.95,707.41,224.52,707.02,225.37,707.02 C226.98,707.02,227.37,708.22,227.37,708.66 C227.37,709.02,227.18,709.27,227.06,709.39 C226.79,709.67,226.51,709.72,226.07,709.81 C225.71,709.89,225.31,709.96,225.31,710.4 C225.31,710.69,225.55,711.3,226.43,711.3 C226.68,711.3,227.17,711.23,227.32,710.84 Z " /><path
       id="path6973"
       fill="black"
       stroke-width="0"
       d="M230.57,708.14 L230.62,708.17 L230.67,708.19 L230.72,708.22 L230.77,708.24 L230.81,708.27 L230.86,708.3 L230.9,708.32 L230.94,708.35 L230.98,708.38 L231.02,708.41 L231.06,708.44 L231.1,708.47 L231.13,708.5 L231.16,708.53 L231.19,708.56 L231.22,708.6 L231.25,708.63 L231.28,708.66 L231.3,708.7 L231.33,708.73 L231.35,708.77 L231.37,708.8 L231.39,708.84 L231.4,708.88 L231.42,708.92 L231.43,708.96 L231.44,709 L231.45,709.04 L231.46,709.08 L231.46,709.12 L231.46,709.17 L231.47,709.21 C231.47,709.89,230.76,710.25,230.09,710.25 L230.07,710.05 C230.62,710.05,231.1,709.71,231.1,709.21 C231.1,708.59,230.37,708.28,230.36,708.28 C230.35,708.28,230.33,708.29,230.28,708.32 L229.44,708.8 C229.26,708.91,229.06,709.09,229.06,709.35 C229.06,709.79,229.57,710.05,230.07,710.05 L230.09,710.25 C229.32,710.25,228.69,709.75,228.69,709.09 C228.69,708.76,228.85,708.52,228.97,708.39 C229.1,708.24,229.15,708.21,229.56,707.97 C229.17,707.8,228.48,707.42,228.48,706.7 C228.48,705.92,229.28,705.49,230.07,705.49 L230.09,705.71 C229.45,705.71,228.9,706.12,228.9,706.7 C228.9,707.21,229.28,707.61,229.78,707.84 H229.78 L230.74,707.29 C230.92,707.18,231.26,706.97,231.26,706.56 C231.26,706.04,230.69,705.71,230.09,705.71 L230.07,705.49 C230.96,705.49,231.68,706.05,231.68,706.81 C231.68,707.27,231.41,707.65,231.01,707.89 C230.92,707.95,230.67,708.09,230.57,708.14 Z " /></g></svg>
