<?xml version="1.0" encoding="UTF-8" standalone="no"?>
<!-- Created with Inkscape (http://www.inkscape.org/) -->

<svg
   xmlns:ns0="http://www.iki.fi/pav/software/textext/"
   xmlns:dc="http://purl.org/dc/elements/1.1/"
   xmlns:cc="http://creativecommons.org/ns#"
   xmlns:rdf="http://www.w3.org/1999/02/22-rdf-syntax-ns#"
   xmlns:svg="http://www.w3.org/2000/svg"
   xmlns="http://www.w3.org/2000/svg"
   xmlns:sodipodi="http://sodipodi.sourceforge.net/DTD/sodipodi-0.dtd"
   xmlns:inkscape="http://www.inkscape.org/namespaces/inkscape"
   inkscape:version="0.48.4 r9939"
   version="1.1"
   id="svg2"
   height="149.5"
   width="730.07788"
   sodipodi:docname="bspinit.svg">
  <sodipodi:namedview
     id="base"
     pagecolor="#ffffff"
     bordercolor="#666666"
     borderopacity="1.0"
     inkscape:pageopacity="0.0"
     inkscape:pageshadow="2"
     inkscape:zoom="1.4"
     inkscape:cx="387.41573"
     inkscape:cy="50.142354"
     inkscape:document-units="px"
     inkscape:current-layer="svg2"
     showgrid="false"
     inkscape:snap-bbox="false"
     inkscape:snap-global="true"
     showguides="true"
     inkscape:guide-bbox="true"
     inkscape:snap-to-guides="true"
     inkscape:object-nodes="true"
     inkscape:snap-object-midpoints="true"
     inkscape:window-width="1615"
     inkscape:window-height="1026"
     inkscape:window-x="65"
     inkscape:window-y="24"
     inkscape:window-maximized="1"
     inkscape:snap-page="true"
     fit-margin-top="0"
     fit-margin-left="0"
     fit-margin-right="0"
     fit-margin-bottom="0">
    <sodipodi:guide
       id="guide2985"
       position="48.515369,48.334247"
       orientation="1,0" />
    <sodipodi:guide
       id="guide2987"
       position="128.51537,173.33422"
       orientation="1,0" />
    <sodipodi:guide
       id="guide2989"
       position="248.51537,167.61992"
       orientation="1,0" />
    <sodipodi:guide
       id="guide2991"
       position="348.51537,182.61992"
       orientation="1,0" />
    <sodipodi:guide
       id="guide2993"
       position="468.51537,167.61992"
       orientation="1,0" />
    <sodipodi:guide
       id="guide2995"
       position="548.51537,184.04852"
       orientation="1,0" />
    <sodipodi:guide
       id="guide2997"
       position="648.51537,201.19142"
       orientation="1,0" />
    <sodipodi:guide
       id="guide2999"
       position="728.51537,179.76282"
       orientation="1,0" />
    <sodipodi:guide
       id="guide3001"
       position="-33.627488,119.76282"
       orientation="0,1" />
    <sodipodi:guide
       id="guide3003"
       position="-54.341774,89.762817"
       orientation="0,1" />
    <sodipodi:guide
       id="guide3005"
       position="-52.198917,59.762817"
       orientation="0,1" />
    <sodipodi:guide
       id="guide3007"
       position="-57.198917,29.762817"
       orientation="0,1" />
    <sodipodi:guide
       id="guide4555"
       position="-3.6274881,149.76282"
       orientation="0,1" />
    <sodipodi:guide
       id="guide4557"
       position="8.5153689,-0.23718262"
       orientation="0,1" />
  </sodipodi:namedview>
  <defs
     id="defs4" />
  <metadata
     id="metadata7">
    <rdf:RDF>
      <cc:Work
         rdf:about="">
        <dc:format>image/svg+xml</dc:format>
        <dc:type
           rdf:resource="http://purl.org/dc/dcmitype/StillImage" />
        <dc:title />
      </cc:Work>
    </rdf:RDF>
  </metadata>
  <g
     transform="translate(18.515369,-22.625)"
     id="layer1"
     inkscape:groupmode="layer"
     inkscape:label="Ebene 1">
    <rect
       y="52.526054"
       x="29.96884"
       height="29.899298"
       width="80.128601"
       id="rect3009"
       style="fill:none;stroke:#000000;stroke-width:1;stroke-linecap:butt;stroke-miterlimit:4;stroke-opacity:1;stroke-dasharray:none;stroke-dashoffset:0" />
    <rect
       y="82.425346"
       x="110.09744"
       height="29.899298"
       width="120.1929"
       id="rect3011"
       style="fill:none;stroke:#000000;stroke-width:1;stroke-linecap:butt;stroke-miterlimit:4;stroke-opacity:1;stroke-dasharray:none;stroke-dashoffset:0" />
    <rect
       y="52.526054"
       x="110.09744"
       height="29.899298"
       width="20.03215"
       id="rect3013"
       style="fill:none;stroke:#000000;stroke-width:1;stroke-linecap:butt;stroke-miterlimit:4;stroke-opacity:1;stroke-dasharray:none;stroke-dashoffset:0" />
    <rect
       y="52.526054"
       x="230.29033"
       height="29.899298"
       width="40.280453"
       id="rect3015"
       style="fill:none;stroke:#000000;stroke-width:1;stroke-linecap:butt;stroke-miterlimit:4;stroke-opacity:1;stroke-dasharray:none;stroke-dashoffset:0" />
    <rect
       y="82.425346"
       x="230.29033"
       height="29.899298"
       width="100.16075"
       id="rect3017"
       style="fill:none;stroke:#000000;stroke-width:1;stroke-linecap:butt;stroke-miterlimit:4;stroke-opacity:1;stroke-dasharray:none;stroke-dashoffset:0" />
    <rect
       y="112.32465"
       x="230.29033"
       height="29.899298"
       width="100.16075"
       id="rect3019"
       style="fill:none;stroke:#000000;stroke-width:1;stroke-linecap:butt;stroke-miterlimit:4;stroke-opacity:1;stroke-dasharray:none;stroke-dashoffset:0" />
    <rect
       y="112.32465"
       x="330.45111"
       height="29.899298"
       width="120.1929"
       id="rect3021"
       style="fill:none;stroke:#000000;stroke-width:1;stroke-linecap:butt;stroke-miterlimit:4;stroke-opacity:1;stroke-dasharray:none;stroke-dashoffset:0" />
    <rect
       y="82.425346"
       x="330.45111"
       height="29.899298"
       width="100.48625"
       id="rect3023"
       style="fill:none;stroke:#000000;stroke-width:1;stroke-linecap:butt;stroke-miterlimit:4;stroke-opacity:1;stroke-dasharray:none;stroke-dashoffset:0" />
    <rect
       y="52.526054"
       x="330.45111"
       height="29.899298"
       width="100.48625"
       id="rect3027"
       style="fill:none;stroke:#000000;stroke-width:1;stroke-linecap:butt;stroke-miterlimit:4;stroke-opacity:1;stroke-dasharray:none;stroke-dashoffset:0" />
    <rect
       y="52.526054"
       x="450.64401"
       height="29.899298"
       width="80.128601"
       id="rect3029"
       style="fill:none;stroke:#000000;stroke-width:1;stroke-linecap:butt;stroke-miterlimit:4;stroke-opacity:1;stroke-dasharray:none;stroke-dashoffset:0" />
    <rect
       y="112.32465"
       x="450.64401"
       height="29.899298"
       width="80.128601"
       id="rect3031"
       style="fill:none;stroke:#000000;stroke-width:1;stroke-linecap:butt;stroke-miterlimit:4;stroke-opacity:1;stroke-dasharray:none;stroke-dashoffset:0" />
    <rect
       y="82.425346"
       x="450.64401"
       height="29.899298"
       width="39.988163"
       id="rect3033"
       style="fill:none;stroke:#000000;stroke-width:1;stroke-linecap:butt;stroke-miterlimit:4;stroke-opacity:1;stroke-dasharray:none;stroke-dashoffset:0" />
    <rect
       y="82.425346"
       x="530.77258"
       height="29.899298"
       width="100.16075"
       id="rect3035"
       style="fill:none;stroke:#000000;stroke-width:1;stroke-linecap:butt;stroke-miterlimit:4;stroke-opacity:1;stroke-dasharray:none;stroke-dashoffset:0" />
    <rect
       y="112.32465"
       x="530.77258"
       height="29.899298"
       width="80.260956"
       id="rect3037"
       style="fill:none;stroke:#000000;stroke-width:1;stroke-linecap:butt;stroke-miterlimit:4;stroke-opacity:1;stroke-dasharray:none;stroke-dashoffset:0" />
    <rect
       y="112.32465"
       x="630.93335"
       height="29.899298"
       width="80.128601"
       id="rect3039"
       style="fill:none;stroke:#000000;stroke-width:1;stroke-linecap:butt;stroke-miterlimit:4;stroke-opacity:1;stroke-dasharray:none;stroke-dashoffset:0" />
  </g>
  <g
     style="font-style:normal;font-variant:normal;font-weight:normal;font-stretch:normal;letter-spacing:normal;word-spacing:normal;text-anchor:start;fill:none;stroke:#000000;stroke-width:1.00087845;stroke-linecap:butt;stroke-linejoin:miter;stroke-miterlimit:10.43299961;stroke-opacity:1;stroke-dasharray:none;stroke-dashoffset:0"
     id="g4015"
     transform="matrix(2.003215,0,0,-1.9932865,-448.34405,1460.575)"
     xml:space="preserve"
     stroke-miterlimit="10.433"
     font-style="normal"
     font-variant="normal"
     font-weight="normal"
     font-stretch="normal"
     font-size-adjust="none"
     letter-spacing="normal"
     word-spacing="normal"
     ns0:text="$M_1$"
     ns0:preamble=""><path
       style="fill:#000000;stroke-width:0"
       inkscape:connector-curvature="0"
       d="m 232.65,713.15 0,0.03 0.01,0.03 0.01,0.03 0.01,0.03 0,0.02 0.01,0.03 0.01,0.02 0.01,0.03 0.01,0.02 0.01,0.02 0.01,0.02 0.02,0.02 0.01,0.01 0.02,0.02 0.02,0.01 0.02,0.02 0.02,0.01 0.02,0.01 0.03,0.01 0.03,0.01 0.03,0.01 0.01,0 0.02,0.01 0.02,0 0.02,0 0.01,0.01 0.02,0 0.03,0 0.02,0.01 0.02,0 0.02,0 0.03,0 0.02,0 0.03,0.01 0.02,0 0.03,0 0.03,0 0.03,0 0.03,0 0.03,0 0.03,0 0.04,0 0.03,0 c 0.23,0 0.32,0 0.32,0.2 0,0.11 -0.1,0.11 -0.27,0.11 h -1.31 c -0.26,0 -0.27,0 -0.39,-0.19 l -3.63,-5.66 -0.78,5.62 c -0.03,0.23 -0.05,0.23 -0.31,0.23 h -1.36 c -0.19,0 -0.3,0 -0.3,-0.19 0,-0.12 0.09,-0.12 0.29,-0.12 0.13,0 0.31,-0.01 0.43,-0.02 0.16,-0.02 0.22,-0.05 0.22,-0.16 0,-0.04 -0.01,-0.07 -0.04,-0.19 l -1.27,-5.05 c -0.1,-0.4 -0.26,-0.72 -1.07,-0.75 -0.05,0 -0.18,-0.01 -0.18,-0.19 0,-0.08 0.06,-0.12 0.14,-0.12 0.32,0 0.67,0.04 0.99,0.04 0.34,0 0.7,-0.04 1.03,-0.04 0.05,0 0.18,0 0.18,0.2 0,0.11 -0.11,0.11 -0.18,0.11 -0.57,0.01 -0.68,0.21 -0.68,0.44 0,0.07 0.01,0.12 0.04,0.23 l 1.36,5.41 h 0.01 l 0.85,-6.16 c 0.02,-0.12 0.03,-0.23 0.15,-0.23 0.11,0 0.17,0.11 0.22,0.18 l 4.02,6.29 h 0.01 l -1.42,-5.69 c -0.1,-0.39 -0.12,-0.47 -0.91,-0.47 -0.17,0 -0.28,0 -0.28,-0.19 0,-0.12 0.12,-0.12 0.15,-0.12 0.28,0 0.96,0.04 1.23,0.04 0.41,0 0.84,-0.04 1.25,-0.04 0.06,0 0.19,0 0.19,0.2 0,0.11 -0.09,0.11 -0.28,0.11 -0.37,0 -0.65,0 -0.65,0.18 0,0.04 0,0.06 0.05,0.24 z"
       id="path4017" /><path
       style="fill:#000000;stroke-width:0"
       inkscape:connector-curvature="0"
       d="m 235.43,710.05 0,0.01 0,0.01 0,0.01 0,0.01 0,0 0,0.01 0,0.01 0,0.01 0,0 0,0.01 0,0.01 0,0 0,0.01 0,0 0,0.01 -0.01,0 0,0.01 0,0 0,0.01 0,0.01 0,0.01 -0.01,0 0,0.01 -0.01,0.01 0,0 -0.01,0.01 0,0 -0.01,0 -0.01,0.01 -0.01,0 0,0 -0.01,0 -0.01,0 0,0 -0.01,0 -0.01,0.01 0,0 -0.01,0 0,0 -0.01,0 -0.01,0 0,0 -0.01,0 -0.01,0 -0.01,0 0,0 -0.01,0 -0.01,0 -0.01,0 -0.01,0 c -0.45,-0.44 -1.08,-0.45 -1.36,-0.45 v -0.25 c 0.16,0 0.62,0 1.01,0.2 v -3.55 c 0,-0.23 0,-0.32 -0.7,-0.32 h -0.27 v -0.25 c 0.13,0.01 0.99,0.03 1.25,0.03 0.21,0 1.09,-0.02 1.24,-0.03 v 0.25 h -0.26 c -0.7,0 -0.7,0.09 -0.7,0.32 z"
       id="path4019" /></g>  <g
     style="font-style:normal;font-variant:normal;font-weight:normal;font-stretch:normal;letter-spacing:normal;word-spacing:normal;text-anchor:start;fill:none;stroke:#000000;stroke-width:1.00087845;stroke-linecap:butt;stroke-linejoin:miter;stroke-miterlimit:10.43299961;stroke-opacity:1;stroke-dasharray:none;stroke-dashoffset:0"
     ns0:preamble=""
     ns0:text="$M_2$"
     word-spacing="normal"
     letter-spacing="normal"
     font-size-adjust="none"
     font-stretch="normal"
     font-weight="normal"
     font-variant="normal"
     font-style="normal"
     stroke-miterlimit="10.433"
     xml:space="preserve"
     transform="matrix(2.003215,0,0,-1.9932865,-447.87308,1490.2219)"
     id="g4247"><path
       style="fill:#000000;stroke-width:0"
       inkscape:connector-curvature="0"
       id="path4249"
       d="m 232.65,713.15 0,0.03 0.01,0.03 0.01,0.03 0.01,0.03 0,0.02 0.01,0.03 0.01,0.02 0.01,0.03 0.01,0.02 0.01,0.02 0.01,0.02 0.02,0.02 0.01,0.01 0.02,0.02 0.02,0.01 0.02,0.02 0.02,0.01 0.02,0.01 0.03,0.01 0.03,0.01 0.03,0.01 0.01,0 0.02,0.01 0.02,0 0.02,0 0.01,0.01 0.02,0 0.03,0 0.02,0.01 0.02,0 0.02,0 0.03,0 0.02,0 0.03,0.01 0.02,0 0.03,0 0.03,0 0.03,0 0.03,0 0.03,0 0.03,0 0.04,0 0.03,0 c 0.23,0 0.32,0 0.32,0.2 0,0.11 -0.1,0.11 -0.27,0.11 h -1.31 c -0.26,0 -0.27,0 -0.39,-0.19 l -3.63,-5.66 -0.78,5.62 c -0.03,0.23 -0.05,0.23 -0.31,0.23 h -1.36 c -0.19,0 -0.3,0 -0.3,-0.19 0,-0.12 0.09,-0.12 0.29,-0.12 0.13,0 0.31,-0.01 0.43,-0.02 0.16,-0.02 0.22,-0.05 0.22,-0.16 0,-0.04 -0.01,-0.07 -0.04,-0.19 l -1.27,-5.05 c -0.1,-0.4 -0.26,-0.72 -1.07,-0.75 -0.05,0 -0.18,-0.01 -0.18,-0.19 0,-0.08 0.06,-0.12 0.14,-0.12 0.32,0 0.67,0.04 0.99,0.04 0.34,0 0.7,-0.04 1.03,-0.04 0.05,0 0.18,0 0.18,0.2 0,0.11 -0.11,0.11 -0.18,0.11 -0.57,0.01 -0.68,0.21 -0.68,0.44 0,0.07 0.01,0.12 0.04,0.23 l 1.36,5.41 h 0.01 l 0.85,-6.16 c 0.02,-0.12 0.03,-0.23 0.15,-0.23 0.11,0 0.17,0.11 0.22,0.18 l 4.02,6.29 h 0.01 l -1.42,-5.69 c -0.1,-0.39 -0.12,-0.47 -0.91,-0.47 -0.17,0 -0.28,0 -0.28,-0.19 0,-0.12 0.12,-0.12 0.15,-0.12 0.28,0 0.96,0.04 1.23,0.04 0.41,0 0.84,-0.04 1.25,-0.04 0.06,0 0.19,0 0.19,0.2 0,0.11 -0.09,0.11 -0.28,0.11 -0.37,0 -0.65,0 -0.65,0.18 0,0.04 0,0.06 0.05,0.24 z" /><path
       style="fill:#000000;stroke-width:0"
       inkscape:connector-curvature="0"
       id="path4251"
       d="m 236.61,706.9 h -0.23 c -0.02,-0.16 -0.09,-0.57 -0.18,-0.64 -0.06,-0.04 -0.6,-0.04 -0.69,-0.04 h -1.28 c 0.73,0.65 0.97,0.84 1.39,1.17 0.51,0.41 0.99,0.84 0.99,1.5 0,0.84 -0.73,1.36 -1.63,1.36 -0.86,0 -1.44,-0.61 -1.44,-1.25 0,-0.35 0.3,-0.39 0.36,-0.39 0.17,0 0.37,0.12 0.37,0.37 0,0.13 -0.04,0.37 -0.41,0.37 0.22,0.49 0.69,0.65 1.02,0.65 0.7,0 1.06,-0.54 1.06,-1.11 0,-0.6 -0.43,-1.08 -0.66,-1.33 l -1.68,-1.66 c -0.06,-0.06 -0.06,-0.07 -0.06,-0.27 h 2.86 z" /></g>  <g
     id="g4450"
     transform="matrix(2.003215,0,0,-1.9932865,-447.62014,1520.1731)"
     xml:space="preserve"
     stroke-miterlimit="10.433"
     font-style="normal"
     font-variant="normal"
     font-weight="normal"
     font-stretch="normal"
     font-size-adjust="none"
     letter-spacing="normal"
     word-spacing="normal"
     ns0:text="$M_3$"
     ns0:preamble=""
     style="font-style:normal;font-variant:normal;font-weight:normal;font-stretch:normal;letter-spacing:normal;word-spacing:normal;text-anchor:start;fill:none;stroke:#000000;stroke-width:1.00087845;stroke-linecap:butt;stroke-linejoin:miter;stroke-miterlimit:10.43299961;stroke-opacity:1;stroke-dasharray:none;stroke-dashoffset:0"><path
       style="fill:#000000;stroke-width:0"
       inkscape:connector-curvature="0"
       d="m 232.65,713.15 0,0.03 0.01,0.03 0.01,0.03 0.01,0.03 0,0.02 0.01,0.03 0.01,0.02 0.01,0.03 0.01,0.02 0.01,0.02 0.01,0.02 0.02,0.02 0.01,0.01 0.02,0.02 0.02,0.01 0.02,0.02 0.02,0.01 0.02,0.01 0.03,0.01 0.03,0.01 0.03,0.01 0.01,0 0.02,0.01 0.02,0 0.02,0 0.01,0.01 0.02,0 0.03,0 0.02,0.01 0.02,0 0.02,0 0.03,0 0.02,0 0.03,0.01 0.02,0 0.03,0 0.03,0 0.03,0 0.03,0 0.03,0 0.03,0 0.04,0 0.03,0 c 0.23,0 0.32,0 0.32,0.2 0,0.11 -0.1,0.11 -0.27,0.11 h -1.31 c -0.26,0 -0.27,0 -0.39,-0.19 l -3.63,-5.66 -0.78,5.62 c -0.03,0.23 -0.05,0.23 -0.31,0.23 h -1.36 c -0.19,0 -0.3,0 -0.3,-0.19 0,-0.12 0.09,-0.12 0.29,-0.12 0.13,0 0.31,-0.01 0.43,-0.02 0.16,-0.02 0.22,-0.05 0.22,-0.16 0,-0.04 -0.01,-0.07 -0.04,-0.19 l -1.27,-5.05 c -0.1,-0.4 -0.26,-0.72 -1.07,-0.75 -0.05,0 -0.18,-0.01 -0.18,-0.19 0,-0.08 0.06,-0.12 0.14,-0.12 0.32,0 0.67,0.04 0.99,0.04 0.34,0 0.7,-0.04 1.03,-0.04 0.05,0 0.18,0 0.18,0.2 0,0.11 -0.11,0.11 -0.18,0.11 -0.57,0.01 -0.68,0.21 -0.68,0.44 0,0.07 0.01,0.12 0.04,0.23 l 1.36,5.41 h 0.01 l 0.85,-6.16 c 0.02,-0.12 0.03,-0.23 0.15,-0.23 0.11,0 0.17,0.11 0.22,0.18 l 4.02,6.29 h 0.01 l -1.42,-5.69 c -0.1,-0.39 -0.12,-0.47 -0.91,-0.47 -0.17,0 -0.28,0 -0.28,-0.19 0,-0.12 0.12,-0.12 0.15,-0.12 0.28,0 0.96,0.04 1.23,0.04 0.41,0 0.84,-0.04 1.25,-0.04 0.06,0 0.19,0 0.19,0.2 0,0.11 -0.09,0.11 -0.28,0.11 -0.37,0 -0.65,0 -0.65,0.18 0,0.04 0,0.06 0.05,0.24 z"
       id="path4452" /><path
       style="fill:#000000;stroke-width:0"
       inkscape:connector-curvature="0"
       d="m 235,707.95 0.05,0 0.05,0 0.05,-0.01 0.04,0 0.05,-0.01 0.05,-0.02 0.04,-0.01 0.04,-0.02 0.05,-0.02 0.04,-0.02 0.03,-0.02 0.04,-0.02 0.04,-0.03 0.03,-0.03 0.04,-0.03 0.03,-0.04 0.03,-0.03 0.03,-0.04 0.02,-0.04 0.03,-0.04 0.02,-0.05 0.02,-0.05 0.02,-0.05 0.02,-0.05 0.02,-0.05 0.01,-0.06 0.01,-0.05 0.01,-0.06 0.01,-0.07 0.01,-0.06 0,-0.07 0,-0.07 c 0,-0.86 -0.5,-1.12 -0.9,-1.12 -0.28,0 -0.9,0.08 -1.19,0.49 0.33,0.02 0.41,0.25 0.41,0.39 0,0.22 -0.17,0.38 -0.39,0.38 -0.19,0 -0.39,-0.12 -0.39,-0.4 0,-0.65 0.73,-1.08 1.57,-1.08 0.97,0 1.64,0.65 1.64,1.34 0,0.55 -0.45,1.09 -1.22,1.25 0.74,0.26 1,0.78 1,1.21 0,0.55 -0.63,0.96 -1.41,0.96 -0.77,0 -1.36,-0.38 -1.36,-0.93 0,-0.24 0.15,-0.37 0.36,-0.37 0.22,0 0.36,0.16 0.36,0.35 0,0.2 -0.14,0.35 -0.36,0.36 0.24,0.31 0.72,0.39 0.98,0.39 0.32,0 0.76,-0.16 0.76,-0.76 0,-0.29 -0.1,-0.61 -0.28,-0.83 -0.23,-0.26 -0.43,-0.28 -0.78,-0.3 -0.17,-0.01 -0.18,-0.01 -0.22,-0.02 -0.01,0 -0.07,-0.01 -0.07,-0.09 0,-0.1 0.06,-0.1 0.18,-0.1 z"
       id="path4454" /></g>  <path
     inkscape:connector-curvature="0"
     id="path4559"
     d="m 128.61281,0.00175755 0,149.49648245"
     style="fill:none;stroke:#000000;stroke-width:0.5;stroke-linecap:butt;stroke-linejoin:miter;stroke-miterlimit:4;stroke-opacity:1;stroke-dasharray:none;stroke-dashoffset:0" />
  <path
     inkscape:connector-curvature="0"
     id="path5329"
     d="m 248.80571,0.00175755 0,149.49648245"
     style="fill:none;stroke:#000000;stroke-width:0.5;stroke-linecap:butt;stroke-linejoin:miter;stroke-miterlimit:4;stroke-opacity:1;stroke-dasharray:none" />
  <path
     style="fill:none;stroke:#000000;stroke-width:0.5;stroke-linecap:butt;stroke-linejoin:miter;stroke-miterlimit:4;stroke-opacity:1;stroke-dasharray:none;stroke-dashoffset:0"
     d="m 348.96646,0.00175755 0,149.49648245"
     id="path5331"
     inkscape:connector-curvature="0" />
  <path
     inkscape:connector-curvature="0"
     id="path5333"
     d="m 469.15936,0.00175755 0,149.49648245"
     style="fill:none;stroke:#000000;stroke-width:0.5;stroke-linecap:butt;stroke-linejoin:miter;stroke-miterlimit:4;stroke-opacity:1;stroke-dasharray:none;stroke-dashoffset:0" />
  <path
     style="fill:none;stroke:#000000;stroke-width:0.5;stroke-linecap:butt;stroke-linejoin:miter;stroke-miterlimit:4;stroke-opacity:1;stroke-dasharray:none;stroke-dashoffset:0"
     d="m 549.28796,0.00175755 0,149.49648245"
     id="path5335"
     inkscape:connector-curvature="0" />
  <path
     inkscape:connector-curvature="0"
     id="path5337"
     d="m 649.44871,0.00175755 0,149.49648245"
     style="fill:none;stroke:#000000;stroke-width:0.5;stroke-linecap:butt;stroke-linejoin:miter;stroke-miterlimit:4;stroke-opacity:1;stroke-dasharray:none;stroke-dashoffset:0" />
  <g
     ns0:preamble=""
     ns0:text="$t=1$"
     word-spacing="normal"
     letter-spacing="normal"
     font-size-adjust="none"
     font-stretch="normal"
     font-weight="normal"
     font-variant="normal"
     font-style="normal"
     stroke-miterlimit="10.433"
     xml:space="preserve"
     transform="matrix(2.003215,0,0,-1.9932865,-380.0607,1431.39)"
     id="g5448"
     style="font-style:normal;font-variant:normal;font-weight:normal;font-stretch:normal;letter-spacing:normal;word-spacing:normal;text-anchor:start;fill:none;stroke:#000000;stroke-width:1.00087845;stroke-linecap:butt;stroke-linejoin:miter;stroke-miterlimit:10.43299961;stroke-opacity:1;stroke-dasharray:none;stroke-dashoffset:0"><path
       id="path5450"
       d="m 225.48,711.1 h 0.94 c 0.2,0 0.29,0 0.29,0.2 0,0.11 -0.09,0.11 -0.27,0.11 h -0.88 c 0.36,1.41 0.41,1.61 0.41,1.67 0,0.16 -0.12,0.26 -0.29,0.26 -0.03,0 -0.31,-0.01 -0.4,-0.35 l -0.38,-1.58 h -0.94 c -0.2,0 -0.3,0 -0.3,-0.19 0,-0.12 0.08,-0.12 0.28,-0.12 h 0.88 c -0.72,-2.82 -0.76,-2.99 -0.76,-3.17 0,-0.54 0.38,-0.91 0.91,-0.91 1.02,0 1.59,1.45 1.59,1.53 0,0.1 -0.08,0.1 -0.12,0.1 -0.09,0 -0.1,-0.04 -0.15,-0.14 -0.43,-1.04 -0.96,-1.28 -1.3,-1.28 -0.2,0 -0.3,0.13 -0.3,0.46 0,0.24 0.02,0.31 0.05,0.48 z"
       inkscape:connector-curvature="0"
       style="fill:#000000;stroke-width:0" /><path
       id="path5452"
       d="m 236.63,710.37 0.03,0 0.03,0 0.03,0 0.01,0.01 0.02,0 0.01,0 0.02,0 0.01,0 0.01,0 0.02,0.01 0.01,0 0.01,0 0.02,0.01 0.01,0 0.01,0.01 0.01,0 0.01,0.01 0.01,0.01 0.01,0.01 0.01,0.01 0.01,0.01 0,0 0.01,0.01 0,0 0,0.01 0,0.01 0.01,0 0,0.01 0,0.01 0,0 0.01,0.01 0,0.01 0,0.01 0,0.01 0,0 0,0.01 0,0.01 c 0,0.2 -0.19,0.2 -0.33,0.2 h -5.96 c -0.14,0 -0.33,0 -0.33,-0.2 0,-0.2 0.19,-0.2 0.34,-0.2 z"
       inkscape:connector-curvature="0"
       style="fill:#000000;stroke-width:0" /><path
       id="path5454"
       d="m 236.64,708.45 0.02,0 0.01,0 0.03,0 0.02,0 0.02,0 0.01,0 0.02,0 0.01,0 0.01,0 0.02,0.01 0.01,0 0.01,0 0.02,0.01 0.01,0 0.01,0.01 0.01,0 0.01,0.01 0.01,0 0.01,0.01 0.01,0.01 0.01,0.01 0,0 0.01,0.01 0,0.01 0.01,0 0,0.01 0,0 0,0.01 0.01,0.01 0,0 0,0.01 0,0.01 0.01,0 0,0.01 0,0.01 0,0.01 0,0.01 0,0.01 0,0.01 c 0,0.19 -0.19,0.19 -0.34,0.19 h -5.94 c -0.15,0 -0.34,0 -0.34,-0.19 0,-0.2 0.19,-0.2 0.33,-0.2 z"
       inkscape:connector-curvature="0"
       style="fill:#000000;stroke-width:0" /><path
       id="path5456"
       d="m 243.24,713.48 0,0.01 0,0.01 0,0.02 0,0.01 0,0 0,0.01 0,0.01 0,0.01 0,0.01 0,0.01 0,0.01 0,0.01 0,0 0,0.01 0,0.01 0,0 0,0.01 0,0.01 -0.01,0.01 0,0.01 0,0.01 0,0.01 -0.01,0.01 0,0 -0.01,0.01 0,0.01 -0.01,0 -0.01,0.01 0,0 -0.01,0.01 -0.01,0 0,0 -0.01,0 0,0 -0.01,0 -0.01,0 0,0.01 -0.01,0 0,0 -0.01,0 -0.01,0 -0.01,0 0,0 -0.01,0 -0.01,0 -0.01,0 -0.01,0 -0.01,0 -0.01,0 -0.01,0 -0.01,0 -0.01,0 c -0.61,-0.64 -1.49,-0.64 -1.81,-0.64 v -0.3 c 0.2,0 0.79,0 1.3,0.25 v -5.14 c 0,-0.36 -0.03,-0.48 -0.92,-0.48 h -0.32 v -0.31 c 0.35,0.04 1.21,0.04 1.61,0.04 0.4,0 1.27,0 1.61,-0.04 v 0.31 h -0.31 c -0.9,0 -0.93,0.11 -0.93,0.48 z"
       inkscape:connector-curvature="0"
       style="fill:#000000;stroke-width:0" /></g>  <g
     id="g5784"
     transform="matrix(2.003215,0,0,-1.9932865,-283.83484,1431.39)"
     xml:space="preserve"
     stroke-miterlimit="10.433"
     font-style="normal"
     font-variant="normal"
     font-weight="normal"
     font-stretch="normal"
     font-size-adjust="none"
     letter-spacing="normal"
     word-spacing="normal"
     ns0:text="$t=2$"
     ns0:preamble=""
     style="font-style:normal;font-variant:normal;font-weight:normal;font-stretch:normal;letter-spacing:normal;word-spacing:normal;text-anchor:start;fill:none;stroke:#000000;stroke-width:1.00087845;stroke-linecap:butt;stroke-linejoin:miter;stroke-miterlimit:10.43299961;stroke-opacity:1;stroke-dasharray:none;stroke-dashoffset:0"><path
       style="fill:#000000;stroke-width:0"
       inkscape:connector-curvature="0"
       d="m 225.48,711.1 h 0.94 c 0.2,0 0.29,0 0.29,0.2 0,0.11 -0.09,0.11 -0.27,0.11 h -0.88 c 0.36,1.41 0.41,1.61 0.41,1.67 0,0.16 -0.12,0.26 -0.29,0.26 -0.03,0 -0.31,-0.01 -0.4,-0.35 l -0.38,-1.58 h -0.94 c -0.2,0 -0.3,0 -0.3,-0.19 0,-0.12 0.08,-0.12 0.28,-0.12 h 0.88 c -0.72,-2.82 -0.76,-2.99 -0.76,-3.17 0,-0.54 0.38,-0.91 0.91,-0.91 1.02,0 1.59,1.45 1.59,1.53 0,0.1 -0.08,0.1 -0.12,0.1 -0.09,0 -0.1,-0.04 -0.15,-0.14 -0.43,-1.04 -0.96,-1.28 -1.3,-1.28 -0.2,0 -0.3,0.13 -0.3,0.46 0,0.24 0.02,0.31 0.05,0.48 z"
       id="path5786" /><path
       style="fill:#000000;stroke-width:0"
       inkscape:connector-curvature="0"
       d="m 236.63,710.37 0.03,0 0.03,0 0.03,0 0.01,0.01 0.02,0 0.01,0 0.02,0 0.01,0 0.01,0 0.02,0.01 0.01,0 0.01,0 0.02,0.01 0.01,0 0.01,0.01 0.01,0 0.01,0.01 0.01,0.01 0.01,0.01 0.01,0.01 0.01,0.01 0,0 0.01,0.01 0,0 0,0.01 0,0.01 0.01,0 0,0.01 0,0.01 0,0 0.01,0.01 0,0.01 0,0.01 0,0.01 0,0 0,0.01 0,0.01 c 0,0.2 -0.19,0.2 -0.33,0.2 h -5.96 c -0.14,0 -0.33,0 -0.33,-0.2 0,-0.2 0.19,-0.2 0.34,-0.2 z"
       id="path5788" /><path
       style="fill:#000000;stroke-width:0"
       inkscape:connector-curvature="0"
       d="m 236.64,708.45 0.02,0 0.01,0 0.03,0 0.02,0 0.02,0 0.01,0 0.02,0 0.01,0 0.01,0 0.02,0.01 0.01,0 0.01,0 0.02,0.01 0.01,0 0.01,0.01 0.01,0 0.01,0.01 0.01,0 0.01,0.01 0.01,0.01 0.01,0.01 0,0 0.01,0.01 0,0.01 0.01,0 0,0.01 0,0 0,0.01 0.01,0.01 0,0 0,0.01 0,0.01 0.01,0 0,0.01 0,0.01 0,0.01 0,0.01 0,0.01 0,0.01 c 0,0.19 -0.19,0.19 -0.34,0.19 h -5.94 c -0.15,0 -0.34,0 -0.34,-0.19 0,-0.2 0.19,-0.2 0.33,-0.2 z"
       id="path5790" /><path
       style="fill:#000000;stroke-width:0"
       inkscape:connector-curvature="0"
       d="m 241.58,707.89 1.05,1.02 c 1.56,1.37 2.15,1.91 2.15,2.9 0,1.14 -0.89,1.93 -2.11,1.93 -1.12,0 -1.86,-0.91 -1.86,-1.8 0,-0.55 0.5,-0.55 0.53,-0.55 0.17,0 0.52,0.12 0.52,0.52 0,0.26 -0.18,0.52 -0.53,0.52 -0.08,0 -0.1,0 -0.13,-0.01 0.23,0.65 0.77,1.01 1.34,1.01 0.91,0 1.34,-0.8 1.34,-1.62 0,-0.79 -0.5,-1.58 -1.05,-2.19 l -1.91,-2.13 c -0.11,-0.11 -0.11,-0.13 -0.11,-0.37 h 3.69 l 0.28,1.73 h -0.25 c -0.05,-0.3 -0.12,-0.73 -0.21,-0.88 -0.08,-0.08 -0.73,-0.08 -0.95,-0.08 z"
       id="path5792" /></g>  <g
     style="font-style:normal;font-variant:normal;font-weight:normal;font-stretch:normal;letter-spacing:normal;word-spacing:normal;text-anchor:start;fill:none;stroke:#000000;stroke-width:1.00087845;stroke-linecap:butt;stroke-linejoin:miter;stroke-miterlimit:10.43299961;stroke-opacity:1;stroke-dasharray:none;stroke-dashoffset:0"
     ns0:preamble=""
     ns0:text="$t=3$"
     word-spacing="normal"
     letter-spacing="normal"
     font-size-adjust="none"
     font-stretch="normal"
     font-weight="normal"
     font-variant="normal"
     font-style="normal"
     stroke-miterlimit="10.433"
     xml:space="preserve"
     transform="matrix(2.003215,0,0,-1.9932865,-172.94258,1431.39)"
     id="g6075"><path
       style="fill:#000000;stroke-width:0"
       inkscape:connector-curvature="0"
       id="path6077"
       d="m 225.48,711.1 h 0.94 c 0.2,0 0.29,0 0.29,0.2 0,0.11 -0.09,0.11 -0.27,0.11 h -0.88 c 0.36,1.41 0.41,1.61 0.41,1.67 0,0.16 -0.12,0.26 -0.29,0.26 -0.03,0 -0.31,-0.01 -0.4,-0.35 l -0.38,-1.58 h -0.94 c -0.2,0 -0.3,0 -0.3,-0.19 0,-0.12 0.08,-0.12 0.28,-0.12 h 0.88 c -0.72,-2.82 -0.76,-2.99 -0.76,-3.17 0,-0.54 0.38,-0.91 0.91,-0.91 1.02,0 1.59,1.45 1.59,1.53 0,0.1 -0.08,0.1 -0.12,0.1 -0.09,0 -0.1,-0.04 -0.15,-0.14 -0.43,-1.04 -0.96,-1.28 -1.3,-1.28 -0.2,0 -0.3,0.13 -0.3,0.46 0,0.24 0.02,0.31 0.05,0.48 z" /><path
       style="fill:#000000;stroke-width:0"
       inkscape:connector-curvature="0"
       id="path6079"
       d="m 236.63,710.37 0.03,0 0.03,0 0.03,0 0.01,0.01 0.02,0 0.01,0 0.02,0 0.01,0 0.01,0 0.02,0.01 0.01,0 0.01,0 0.02,0.01 0.01,0 0.01,0.01 0.01,0 0.01,0.01 0.01,0.01 0.01,0.01 0.01,0.01 0.01,0.01 0,0 0.01,0.01 0,0 0,0.01 0,0.01 0.01,0 0,0.01 0,0.01 0,0 0.01,0.01 0,0.01 0,0.01 0,0.01 0,0 0,0.01 0,0.01 c 0,0.2 -0.19,0.2 -0.33,0.2 h -5.96 c -0.14,0 -0.33,0 -0.33,-0.2 0,-0.2 0.19,-0.2 0.34,-0.2 z" /><path
       style="fill:#000000;stroke-width:0"
       inkscape:connector-curvature="0"
       id="path6081"
       d="m 236.64,708.45 0.02,0 0.01,0 0.03,0 0.02,0 0.02,0 0.01,0 0.02,0 0.01,0 0.01,0 0.02,0.01 0.01,0 0.01,0 0.02,0.01 0.01,0 0.01,0.01 0.01,0 0.01,0.01 0.01,0 0.01,0.01 0.01,0.01 0.01,0.01 0,0 0.01,0.01 0,0.01 0.01,0 0,0.01 0,0 0,0.01 0.01,0.01 0,0 0,0.01 0,0.01 0.01,0 0,0.01 0,0.01 0,0.01 0,0.01 0,0.01 0,0.01 c 0,0.19 -0.19,0.19 -0.34,0.19 h -5.94 c -0.15,0 -0.34,0 -0.34,-0.19 0,-0.2 0.19,-0.2 0.33,-0.2 z" /><path
       style="fill:#000000;stroke-width:0"
       inkscape:connector-curvature="0"
       id="path6083"
       d="m 243.2,710.62 0.08,0.03 0.07,0.03 0.07,0.03 0.08,0.03 0.06,0.04 0.07,0.04 0.07,0.04 0.06,0.04 0.07,0.04 0.06,0.05 0.05,0.05 0.06,0.05 0.05,0.05 0.06,0.05 0.05,0.06 0.04,0.05 0.05,0.06 0.04,0.06 0.04,0.06 0.04,0.06 0.03,0.07 0.04,0.06 0.02,0.07 0.03,0.06 0.02,0.07 0.03,0.07 0.01,0.07 0.02,0.07 0.01,0.07 0.01,0.07 0,0.08 0,0.07 c 0,0.81 -0.87,1.37 -1.83,1.37 -1,0 -1.76,-0.59 -1.76,-1.35 0,-0.33 0.22,-0.52 0.51,-0.52 0.31,0 0.51,0.22 0.51,0.51 0,0.5 -0.47,0.5 -0.62,0.5 0.31,0.48 0.97,0.61 1.32,0.61 0.41,0 0.96,-0.22 0.96,-1.11 0,-0.12 -0.02,-0.7 -0.28,-1.13 -0.3,-0.48 -0.64,-0.51 -0.89,-0.52 -0.08,-0.01 -0.31,-0.03 -0.38,-0.03 -0.08,-0.01 -0.15,-0.02 -0.15,-0.12 0,-0.11 0.07,-0.11 0.24,-0.11 h 0.43 c 0.82,0 1.19,-0.67 1.19,-1.65 0,-1.35 -0.69,-1.64 -1.13,-1.64 -0.42,0 -1.17,0.17 -1.52,0.76 0.35,-0.05 0.66,0.17 0.66,0.55 0,0.35 -0.27,0.55 -0.56,0.55 -0.24,0 -0.56,-0.14 -0.56,-0.57 0,-0.91 0.93,-1.56 2.01,-1.56 1.22,0 2.12,0.9 2.12,1.91 0,0.82 -0.62,1.59 -1.66,1.8 z" /></g>  <g
     id="g6366"
     transform="matrix(2.003215,0,0,-1.9932865,-60.261738,1431.39)"
     xml:space="preserve"
     stroke-miterlimit="10.433"
     font-style="normal"
     font-variant="normal"
     font-weight="normal"
     font-stretch="normal"
     font-size-adjust="none"
     letter-spacing="normal"
     word-spacing="normal"
     ns0:text="$t=4$"
     ns0:preamble=""
     style="font-style:normal;font-variant:normal;font-weight:normal;font-stretch:normal;letter-spacing:normal;word-spacing:normal;text-anchor:start;fill:none;stroke:#000000;stroke-width:1.00087845;stroke-linecap:butt;stroke-linejoin:miter;stroke-miterlimit:10.43299961;stroke-opacity:1;stroke-dasharray:none;stroke-dashoffset:0"><path
       style="fill:#000000;stroke-width:0"
       inkscape:connector-curvature="0"
       d="m 225.48,711.1 h 0.94 c 0.2,0 0.29,0 0.29,0.2 0,0.11 -0.09,0.11 -0.27,0.11 h -0.88 c 0.36,1.41 0.41,1.61 0.41,1.67 0,0.16 -0.12,0.26 -0.29,0.26 -0.03,0 -0.31,-0.01 -0.4,-0.35 l -0.38,-1.58 h -0.94 c -0.2,0 -0.3,0 -0.3,-0.19 0,-0.12 0.08,-0.12 0.28,-0.12 h 0.88 c -0.72,-2.82 -0.76,-2.99 -0.76,-3.17 0,-0.54 0.38,-0.91 0.91,-0.91 1.02,0 1.59,1.45 1.59,1.53 0,0.1 -0.08,0.1 -0.12,0.1 -0.09,0 -0.1,-0.04 -0.15,-0.14 -0.43,-1.04 -0.96,-1.28 -1.3,-1.28 -0.2,0 -0.3,0.13 -0.3,0.46 0,0.24 0.02,0.31 0.05,0.48 z"
       id="path6368" /><path
       style="fill:#000000;stroke-width:0"
       inkscape:connector-curvature="0"
       d="m 236.63,710.37 0.03,0 0.03,0 0.03,0 0.01,0.01 0.02,0 0.01,0 0.02,0 0.01,0 0.01,0 0.02,0.01 0.01,0 0.01,0 0.02,0.01 0.01,0 0.01,0.01 0.01,0 0.01,0.01 0.01,0.01 0.01,0.01 0.01,0.01 0.01,0.01 0,0 0.01,0.01 0,0 0,0.01 0,0.01 0.01,0 0,0.01 0,0.01 0,0 0.01,0.01 0,0.01 0,0.01 0,0.01 0,0 0,0.01 0,0.01 c 0,0.2 -0.19,0.2 -0.33,0.2 h -5.96 c -0.14,0 -0.33,0 -0.33,-0.2 0,-0.2 0.19,-0.2 0.34,-0.2 z"
       id="path6370" /><path
       style="fill:#000000;stroke-width:0"
       inkscape:connector-curvature="0"
       d="m 236.64,708.45 0.02,0 0.01,0 0.03,0 0.02,0 0.02,0 0.01,0 0.02,0 0.01,0 0.01,0 0.02,0.01 0.01,0 0.01,0 0.02,0.01 0.01,0 0.01,0.01 0.01,0 0.01,0.01 0.01,0 0.01,0.01 0.01,0.01 0.01,0.01 0,0 0.01,0.01 0,0.01 0.01,0 0,0.01 0,0 0,0.01 0.01,0.01 0,0 0,0.01 0,0.01 0.01,0 0,0.01 0,0.01 0,0.01 0,0.01 0,0.01 0,0.01 c 0,0.19 -0.19,0.19 -0.34,0.19 h -5.94 c -0.15,0 -0.34,0 -0.34,-0.19 0,-0.2 0.19,-0.2 0.33,-0.2 z"
       id="path6372" /><path
       style="fill:#000000;stroke-width:0"
       inkscape:connector-curvature="0"
       d="m 243.24,708.76 v -0.86 c 0,-0.36 -0.02,-0.47 -0.76,-0.47 h -0.21 v -0.31 c 0.41,0.04 0.93,0.04 1.35,0.04 0.42,0 0.94,0 1.35,-0.04 v 0.31 h -0.21 c -0.73,0 -0.75,0.11 -0.75,0.47 v 0.86 H 245 v 0.31 h -0.99 v 4.52 c 0,0.2 0,0.26 -0.16,0.26 -0.09,0 -0.12,0 -0.2,-0.12 l -3.06,-4.66 h 0.28 l 2.43,3.71 v -3.71 h -2.43 -0.28 v -0.31 z"
       id="path6374" /></g>  <g
     style="font-style:normal;font-variant:normal;font-weight:normal;font-stretch:normal;letter-spacing:normal;word-spacing:normal;text-anchor:start;fill:none;stroke:#000000;stroke-width:1.00087845;stroke-linecap:butt;stroke-linejoin:miter;stroke-miterlimit:10.43299961;stroke-opacity:1;stroke-dasharray:none;stroke-dashoffset:0"
     ns0:preamble=""
     ns0:text="$t=5$"
     word-spacing="normal"
     letter-spacing="normal"
     font-size-adjust="none"
     font-stretch="normal"
     font-weight="normal"
     font-variant="normal"
     font-style="normal"
     stroke-miterlimit="10.433"
     xml:space="preserve"
     transform="matrix(2.003215,0,0,-1.9932865,39.89901,1430.6781)"
     id="g6657"><path
       style="fill:#000000;stroke-width:0"
       inkscape:connector-curvature="0"
       id="path6659"
       d="m 225.48,711.1 h 0.94 c 0.2,0 0.29,0 0.29,0.2 0,0.11 -0.09,0.11 -0.27,0.11 h -0.88 c 0.36,1.41 0.41,1.61 0.41,1.67 0,0.16 -0.12,0.26 -0.29,0.26 -0.03,0 -0.31,-0.01 -0.4,-0.35 l -0.38,-1.58 h -0.94 c -0.2,0 -0.3,0 -0.3,-0.19 0,-0.12 0.08,-0.12 0.28,-0.12 h 0.88 c -0.72,-2.82 -0.76,-2.99 -0.76,-3.17 0,-0.54 0.38,-0.91 0.91,-0.91 1.02,0 1.59,1.45 1.59,1.53 0,0.1 -0.08,0.1 -0.12,0.1 -0.09,0 -0.1,-0.04 -0.15,-0.14 -0.43,-1.04 -0.96,-1.28 -1.3,-1.28 -0.2,0 -0.3,0.13 -0.3,0.46 0,0.24 0.02,0.31 0.05,0.48 z" /><path
       style="fill:#000000;stroke-width:0"
       inkscape:connector-curvature="0"
       id="path6661"
       d="m 236.63,710.37 0.03,0 0.03,0 0.03,0 0.01,0.01 0.02,0 0.01,0 0.02,0 0.01,0 0.01,0 0.02,0.01 0.01,0 0.01,0 0.02,0.01 0.01,0 0.01,0.01 0.01,0 0.01,0.01 0.01,0.01 0.01,0.01 0.01,0.01 0.01,0.01 0,0 0.01,0.01 0,0 0,0.01 0,0.01 0.01,0 0,0.01 0,0.01 0,0 0.01,0.01 0,0.01 0,0.01 0,0.01 0,0 0,0.01 0,0.01 c 0,0.2 -0.19,0.2 -0.33,0.2 h -5.96 c -0.14,0 -0.33,0 -0.33,-0.2 0,-0.2 0.19,-0.2 0.34,-0.2 z" /><path
       style="fill:#000000;stroke-width:0"
       inkscape:connector-curvature="0"
       id="path6663"
       d="m 236.64,708.45 0.02,0 0.01,0 0.03,0 0.02,0 0.02,0 0.01,0 0.02,0 0.01,0 0.01,0 0.02,0.01 0.01,0 0.01,0 0.02,0.01 0.01,0 0.01,0.01 0.01,0 0.01,0.01 0.01,0 0.01,0.01 0.01,0.01 0.01,0.01 0,0 0.01,0.01 0,0.01 0.01,0 0,0.01 0,0 0,0.01 0.01,0.01 0,0 0,0.01 0,0.01 0.01,0 0,0.01 0,0.01 0,0.01 0,0.01 0,0.01 0,0.01 c 0,0.19 -0.19,0.19 -0.34,0.19 h -5.94 c -0.15,0 -0.34,0 -0.34,-0.19 0,-0.2 0.19,-0.2 0.33,-0.2 z" /><path
       style="fill:#000000;stroke-width:0"
       inkscape:connector-curvature="0"
       id="path6665"
       d="m 244.78,709.12 0,0.11 -0.01,0.11 -0.01,0.11 -0.01,0.1 -0.02,0.11 -0.03,0.1 -0.03,0.1 -0.03,0.1 -0.04,0.1 -0.04,0.09 -0.04,0.09 -0.05,0.09 -0.05,0.09 -0.06,0.08 -0.06,0.08 -0.06,0.07 -0.06,0.08 -0.07,0.06 -0.07,0.07 -0.08,0.06 -0.07,0.06 -0.08,0.05 -0.08,0.05 -0.09,0.04 -0.09,0.04 -0.08,0.04 -0.1,0.03 -0.09,0.02 -0.09,0.02 -0.1,0.02 -0.1,0 -0.1,0.01 c -0.48,0 -0.9,-0.16 -1.26,-0.51 v 1.94 c 0.2,-0.06 0.53,-0.13 0.84,-0.13 1.23,0 1.93,0.9 1.93,1.03 0,0.06 -0.03,0.11 -0.11,0.11 0,0 -0.03,0 -0.07,-0.03 -0.2,-0.09 -0.69,-0.29 -1.36,-0.29 -0.4,0 -0.85,0.07 -1.32,0.28 -0.08,0.03 -0.1,0.03 -0.12,0.03 -0.1,0 -0.1,-0.08 -0.1,-0.24 v -2.94 c 0,-0.18 0,-0.26 0.14,-0.26 0.07,0 0.09,0.03 0.13,0.09 0.11,0.16 0.48,0.7 1.28,0.7 0.52,0 0.77,-0.46 0.85,-0.64 0.16,-0.36 0.18,-0.75 0.18,-1.25 0,-0.35 0,-0.94 -0.24,-1.36 -0.24,-0.39 -0.61,-0.65 -1.07,-0.65 -0.72,0 -1.29,0.53 -1.46,1.12 0.03,-0.01 0.06,-0.02 0.17,-0.02 0.33,0 0.5,0.25 0.5,0.48 0,0.24 -0.17,0.49 -0.5,0.49 -0.14,0 -0.49,-0.07 -0.49,-0.53 0,-0.85 0.69,-1.81 1.8,-1.81 1.16,0 2.17,0.95 2.17,2.21 z" /></g>  <g
     id="g6948"
     transform="matrix(2.003215,0,0,-1.9932865,131.47455,1431.39)"
     xml:space="preserve"
     stroke-miterlimit="10.433"
     font-style="normal"
     font-variant="normal"
     font-weight="normal"
     font-stretch="normal"
     font-size-adjust="none"
     letter-spacing="normal"
     word-spacing="normal"
     ns0:text="$t=6$"
     ns0:preamble=""
     style="font-style:normal;font-variant:normal;font-weight:normal;font-stretch:normal;letter-spacing:normal;word-spacing:normal;text-anchor:start;fill:none;stroke:#000000;stroke-width:1.00087845;stroke-linecap:butt;stroke-linejoin:miter;stroke-miterlimit:10.43299961;stroke-opacity:1;stroke-dasharray:none;stroke-dashoffset:0"><path
       style="fill:#000000;stroke-width:0"
       inkscape:connector-curvature="0"
       d="m 225.48,711.1 h 0.94 c 0.2,0 0.29,0 0.29,0.2 0,0.11 -0.09,0.11 -0.27,0.11 h -0.88 c 0.36,1.41 0.41,1.61 0.41,1.67 0,0.16 -0.12,0.26 -0.29,0.26 -0.03,0 -0.31,-0.01 -0.4,-0.35 l -0.38,-1.58 h -0.94 c -0.2,0 -0.3,0 -0.3,-0.19 0,-0.12 0.08,-0.12 0.28,-0.12 h 0.88 c -0.72,-2.82 -0.76,-2.99 -0.76,-3.17 0,-0.54 0.38,-0.91 0.91,-0.91 1.02,0 1.59,1.45 1.59,1.53 0,0.1 -0.08,0.1 -0.12,0.1 -0.09,0 -0.1,-0.04 -0.15,-0.14 -0.43,-1.04 -0.96,-1.28 -1.3,-1.28 -0.2,0 -0.3,0.13 -0.3,0.46 0,0.24 0.02,0.31 0.05,0.48 z"
       id="path6950" /><path
       style="fill:#000000;stroke-width:0"
       inkscape:connector-curvature="0"
       d="m 236.63,710.37 0.03,0 0.03,0 0.03,0 0.01,0.01 0.02,0 0.01,0 0.02,0 0.01,0 0.01,0 0.02,0.01 0.01,0 0.01,0 0.02,0.01 0.01,0 0.01,0.01 0.01,0 0.01,0.01 0.01,0.01 0.01,0.01 0.01,0.01 0.01,0.01 0,0 0.01,0.01 0,0 0,0.01 0,0.01 0.01,0 0,0.01 0,0.01 0,0 0.01,0.01 0,0.01 0,0.01 0,0.01 0,0 0,0.01 0,0.01 c 0,0.2 -0.19,0.2 -0.33,0.2 h -5.96 c -0.14,0 -0.33,0 -0.33,-0.2 0,-0.2 0.19,-0.2 0.34,-0.2 z"
       id="path6952" /><path
       style="fill:#000000;stroke-width:0"
       inkscape:connector-curvature="0"
       d="m 236.64,708.45 0.02,0 0.01,0 0.03,0 0.02,0 0.02,0 0.01,0 0.02,0 0.01,0 0.01,0 0.02,0.01 0.01,0 0.01,0 0.02,0.01 0.01,0 0.01,0.01 0.01,0 0.01,0.01 0.01,0 0.01,0.01 0.01,0.01 0.01,0.01 0,0 0.01,0.01 0,0.01 0.01,0 0,0.01 0,0 0,0.01 0.01,0.01 0,0 0,0.01 0,0.01 0.01,0 0,0.01 0,0.01 0,0.01 0,0.01 0,0.01 0,0.01 c 0,0.19 -0.19,0.19 -0.34,0.19 h -5.94 c -0.15,0 -0.34,0 -0.34,-0.19 0,-0.2 0.19,-0.2 0.33,-0.2 z"
       id="path6954" /><path
       style="fill:#000000;stroke-width:0"
       inkscape:connector-curvature="0"
       d="m 241.63,710.38 v 0.24 c 0,2.52 1.23,2.87 1.74,2.87 0.24,0 0.66,-0.06 0.87,-0.4 -0.14,0 -0.54,0 -0.54,-0.44 0,-0.31 0.24,-0.46 0.46,-0.46 0.16,0 0.45,0.09 0.45,0.48 0,0.59 -0.43,1.07 -1.26,1.07 -1.27,0 -2.62,-1.28 -2.62,-3.48 0,-2.65 1.16,-3.35 2.08,-3.35 1.11,0 2.05,0.93 2.05,2.24 0,1.26 -0.88,2.22 -1.99,2.22 l -0.01,-0.23 c 0.16,0 0.62,0 0.93,-0.62 0.18,-0.36 0.18,-0.87 0.18,-1.36 0,-0.48 0,-0.97 -0.17,-1.33 -0.3,-0.6 -0.76,-0.65 -0.99,-0.65 h 0 c -0.62,0 -0.92,0.6 -0.98,0.75 -0.18,0.47 -0.18,1.26 -0.18,1.44 0,0.78 0.32,1.77 1.21,1.77 l 0.01,0.23 c -0.67,0 -1.04,-0.51 -1.24,-0.99 z"
       id="path6956" /></g>  <g
     style="font-style:normal;font-variant:normal;font-weight:normal;font-stretch:normal;letter-spacing:normal;word-spacing:normal;text-anchor:start;fill:none;stroke:#000000;stroke-width:1.00087845;stroke-linecap:butt;stroke-linejoin:miter;stroke-miterlimit:10.43299961;stroke-opacity:1;stroke-dasharray:none;stroke-dashoffset:0"
     ns0:preamble=""
     ns0:text="$t=7$"
     word-spacing="normal"
     letter-spacing="normal"
     font-size-adjust="none"
     font-stretch="normal"
     font-weight="normal"
     font-variant="normal"
     font-style="normal"
     stroke-miterlimit="10.433"
     xml:space="preserve"
     transform="matrix(2.003215,0,0,-1.9932865,220.54607,1431.7459)"
     id="g7239"><path
       style="fill:#000000;stroke-width:0"
       inkscape:connector-curvature="0"
       id="path7241"
       d="m 225.48,711.1 h 0.94 c 0.2,0 0.29,0 0.29,0.2 0,0.11 -0.09,0.11 -0.27,0.11 h -0.88 c 0.36,1.41 0.41,1.61 0.41,1.67 0,0.16 -0.12,0.26 -0.29,0.26 -0.03,0 -0.31,-0.01 -0.4,-0.35 l -0.38,-1.58 h -0.94 c -0.2,0 -0.3,0 -0.3,-0.19 0,-0.12 0.08,-0.12 0.28,-0.12 h 0.88 c -0.72,-2.82 -0.76,-2.99 -0.76,-3.17 0,-0.54 0.38,-0.91 0.91,-0.91 1.02,0 1.59,1.45 1.59,1.53 0,0.1 -0.08,0.1 -0.12,0.1 -0.09,0 -0.1,-0.04 -0.15,-0.14 -0.43,-1.04 -0.96,-1.28 -1.3,-1.28 -0.2,0 -0.3,0.13 -0.3,0.46 0,0.24 0.02,0.31 0.05,0.48 z" /><path
       style="fill:#000000;stroke-width:0"
       inkscape:connector-curvature="0"
       id="path7243"
       d="m 236.63,710.37 0.03,0 0.03,0 0.03,0 0.01,0.01 0.02,0 0.01,0 0.02,0 0.01,0 0.01,0 0.02,0.01 0.01,0 0.01,0 0.02,0.01 0.01,0 0.01,0.01 0.01,0 0.01,0.01 0.01,0.01 0.01,0.01 0.01,0.01 0.01,0.01 0,0 0.01,0.01 0,0 0,0.01 0,0.01 0.01,0 0,0.01 0,0.01 0,0 0.01,0.01 0,0.01 0,0.01 0,0.01 0,0 0,0.01 0,0.01 c 0,0.2 -0.19,0.2 -0.33,0.2 h -5.96 c -0.14,0 -0.33,0 -0.33,-0.2 0,-0.2 0.19,-0.2 0.34,-0.2 z" /><path
       style="fill:#000000;stroke-width:0"
       inkscape:connector-curvature="0"
       id="path7245"
       d="m 236.64,708.45 0.02,0 0.01,0 0.03,0 0.02,0 0.02,0 0.01,0 0.02,0 0.01,0 0.01,0 0.02,0.01 0.01,0 0.01,0 0.02,0.01 0.01,0 0.01,0.01 0.01,0 0.01,0.01 0.01,0 0.01,0.01 0.01,0.01 0.01,0.01 0,0 0.01,0.01 0,0.01 0.01,0 0,0.01 0,0 0,0.01 0.01,0.01 0,0 0,0.01 0,0.01 0.01,0 0,0.01 0,0.01 0,0.01 0,0.01 0,0.01 0,0.01 c 0,0.19 -0.19,0.19 -0.34,0.19 h -5.94 c -0.15,0 -0.34,0 -0.34,-0.19 0,-0.2 0.19,-0.2 0.33,-0.2 z" /><path
       style="fill:#000000;stroke-width:0"
       inkscape:connector-curvature="0"
       id="path7247"
       d="m 245.05,713.17 0.01,0.02 0.01,0.01 0,0.01 0.01,0.01 0.01,0 0,0.01 0.01,0.01 0,0.01 0.01,0.01 0,0.01 0.01,0 0,0.01 0,0.01 0,0.01 0.01,0.01 0,0.01 0,0 0,0.01 0,0.01 0.01,0.01 0,0.01 0,0.01 0,0.01 0,0.02 0,0.01 0,0.01 0,0.02 0,0.01 0,0.02 0,0.02 0,0.01 0,0.01 0,0.01 h -2.42 c -1.21,0 -1.23,0.13 -1.27,0.32 h -0.25 l -0.33,-2.05 h 0.25 c 0.03,0.16 0.12,0.79 0.25,0.91 0.07,0.06 0.85,0.06 0.98,0.06 h 2.05 c -0.11,-0.16 -0.89,-1.24 -1.11,-1.57 -0.89,-1.34 -1.22,-2.72 -1.22,-3.74 0,-0.1 0,-0.54 0.45,-0.54 0.46,0 0.46,0.44 0.46,0.54 v 0.51 c 0,0.55 0.03,1.09 0.11,1.63 0.04,0.23 0.18,1.08 0.62,1.7 z" /></g>  <g
     style="font-style:normal;font-variant:normal;font-weight:normal;font-stretch:normal;letter-spacing:normal;word-spacing:normal;text-anchor:start;fill:none;stroke:#000000;stroke-width:1.00087845;stroke-linecap:butt;stroke-linejoin:miter;stroke-miterlimit:10.43299961;stroke-opacity:1;stroke-dasharray:none;stroke-dashoffset:0"
     id="g7535"
     transform="matrix(2.003215,0,0,-1.9932865,-387.31981,1549.4346)"
     xml:space="preserve"
     stroke-miterlimit="10.433"
     font-style="normal"
     font-variant="normal"
     font-weight="normal"
     font-stretch="normal"
     font-size-adjust="none"
     letter-spacing="normal"
     word-spacing="normal"
     ns0:text="$c_1=4$"
     ns0:preamble=""><path
       style="fill:#000000;stroke-width:0"
       inkscape:connector-curvature="0"
       d="m 227.37,710.9 -0.03,0 -0.03,0 -0.03,0 -0.02,0 -0.03,0 -0.03,-0.01 -0.01,0 -0.02,0 -0.01,0 -0.01,-0.01 -0.02,0 -0.01,0 -0.01,-0.01 -0.02,0 -0.01,-0.01 -0.01,-0.01 -0.02,0 -0.01,-0.01 -0.01,-0.01 -0.02,0 -0.01,-0.01 -0.01,-0.01 -0.02,-0.01 -0.01,-0.01 -0.01,-0.02 -0.02,-0.01 c -0.16,-0.15 -0.17,-0.32 -0.17,-0.39 0,-0.23 0.17,-0.34 0.36,-0.34 0.29,0 0.56,0.23 0.56,0.63 0,0.49 -0.47,0.86 -1.17,0.86 -1.35,0 -2.67,-1.43 -2.67,-2.83 0,-0.89 0.58,-1.67 1.61,-1.67 1.42,0 2.26,1.05 2.26,1.17 0,0.06 -0.06,0.13 -0.12,0.13 -0.05,0 -0.07,-0.02 -0.13,-0.1 -0.78,-0.99 -1.87,-0.99 -1.99,-0.99 -0.62,0 -0.89,0.49 -0.89,1.09 0,0.4 0.19,1.37 0.53,1.98 0.31,0.57 0.86,1 1.41,1 0.33,0 0.71,-0.13 0.85,-0.4 z"
       id="path7537" /><path
       style="fill:#000000;stroke-width:0"
       inkscape:connector-curvature="0"
       d="m 230.08,710.05 0,0.01 0,0.01 0,0.01 0,0.01 0,0 0,0.01 0,0.01 0,0.01 -0.01,0 0,0.01 0,0.01 0,0 0,0.01 0,0 0,0.01 0,0 0,0.01 0,0 0,0.01 -0.01,0.01 0,0.01 0,0 -0.01,0.01 0,0.01 -0.01,0 0,0.01 -0.01,0 0,0 -0.01,0.01 -0.01,0 -0.01,0 -0.01,0 0,0 -0.01,0 0,0 -0.01,0.01 -0.01,0 0,0 -0.01,0 0,0 -0.01,0 -0.01,0 -0.01,0 0,0 -0.01,0 -0.01,0 -0.01,0 -0.01,0 0,0 -0.01,0 c -0.45,-0.44 -1.08,-0.45 -1.37,-0.45 v -0.25 c 0.17,0 0.63,0 1.01,0.2 v -3.55 c 0,-0.23 0,-0.32 -0.69,-0.32 h -0.27 v -0.25 c 0.13,0.01 0.98,0.03 1.24,0.03 0.22,0 1.09,-0.02 1.25,-0.03 v 0.25 h -0.27 c -0.69,0 -0.69,0.09 -0.69,0.32 z"
       id="path7539" /><path
       style="fill:#000000;stroke-width:0"
       inkscape:connector-curvature="0"
       d="m 241.82,710.37 0.02,0 0.03,0 0.03,0 0.02,0.01 0.01,0 0.02,0 0.01,0 0.01,0 0.02,0 0.01,0.01 0.01,0 0.02,0 0.01,0.01 0.01,0 0.01,0.01 0.01,0 0.02,0.01 0.01,0.01 0,0.01 0.01,0.01 0.01,0.01 0,0 0.01,0.01 0,0 0,0.01 0.01,0.01 0,0 0,0.01 0,0.01 0.01,0 0,0.01 0,0.01 0,0.01 0,0.01 0,0 0,0.01 0,0.01 c 0,0.2 -0.19,0.2 -0.33,0.2 h -5.95 c -0.14,0 -0.33,0 -0.33,-0.2 0,-0.2 0.19,-0.2 0.34,-0.2 z"
       id="path7541" /><path
       style="fill:#000000;stroke-width:0"
       inkscape:connector-curvature="0"
       d="m 241.82,708.45 0.02,0 0.01,0 0.03,0 0.03,0 0.01,0 0.01,0 0.02,0 0.01,0 0.02,0 0.01,0.01 0.01,0 0.02,0 0.01,0.01 0.01,0 0.01,0.01 0.01,0 0.02,0.01 0.01,0 0.01,0.01 0,0.01 0.01,0.01 0.01,0 0,0.01 0,0.01 0.01,0 0,0.01 0,0 0.01,0.01 0,0.01 0,0 0,0.01 0.01,0.01 0,0 0,0.01 0,0.01 0,0.01 0,0.01 0,0.01 0,0.01 c 0,0.19 -0.19,0.19 -0.33,0.19 h -5.94 c -0.15,0 -0.34,0 -0.34,-0.19 0,-0.2 0.19,-0.2 0.33,-0.2 z"
       id="path7543" /><path
       style="fill:#000000;stroke-width:0"
       inkscape:connector-curvature="0"
       d="m 248.42,708.76 v -0.86 c 0,-0.36 -0.02,-0.47 -0.75,-0.47 h -0.21 v -0.31 c 0.41,0.04 0.92,0.04 1.34,0.04 0.42,0 0.95,0 1.35,-0.04 v 0.31 h -0.2 c -0.74,0 -0.76,0.11 -0.76,0.47 v 0.86 h 0.99 v 0.31 h -0.99 v 4.52 c 0,0.2 0,0.26 -0.16,0.26 -0.09,0 -0.12,0 -0.2,-0.12 l -3.05,-4.66 h 0.28 l 2.42,3.71 v -3.71 h -2.42 -0.28 v -0.31 z"
       id="path7545" /></g>  <g
     style="font-style:normal;font-variant:normal;font-weight:normal;font-stretch:normal;letter-spacing:normal;word-spacing:normal;text-anchor:start;fill:none;stroke:#000000;stroke-width:1.00087845;stroke-linecap:butt;stroke-linejoin:miter;stroke-miterlimit:10.43299961;stroke-opacity:1;stroke-dasharray:none;stroke-dashoffset:0"
     ns0:preamble=""
     ns0:text="$c_2=6$"
     word-spacing="normal"
     letter-spacing="normal"
     font-size-adjust="none"
     font-stretch="normal"
     font-weight="normal"
     font-variant="normal"
     font-style="normal"
     stroke-miterlimit="10.433"
     xml:space="preserve"
     transform="matrix(2.003215,0,0,-1.9932865,-287.65984,1549.6862)"
     id="g7947"><path
       style="fill:#000000;stroke-width:0"
       inkscape:connector-curvature="0"
       id="path7949"
       d="m 227.37,710.9 -0.03,0 -0.03,0 -0.03,0 -0.02,0 -0.03,0 -0.03,-0.01 -0.01,0 -0.02,0 -0.01,0 -0.01,-0.01 -0.02,0 -0.01,0 -0.01,-0.01 -0.02,0 -0.01,-0.01 -0.01,-0.01 -0.02,0 -0.01,-0.01 -0.01,-0.01 -0.02,0 -0.01,-0.01 -0.01,-0.01 -0.02,-0.01 -0.01,-0.01 -0.01,-0.02 -0.02,-0.01 c -0.16,-0.15 -0.17,-0.32 -0.17,-0.39 0,-0.23 0.17,-0.34 0.36,-0.34 0.29,0 0.56,0.23 0.56,0.63 0,0.49 -0.47,0.86 -1.17,0.86 -1.35,0 -2.67,-1.43 -2.67,-2.83 0,-0.89 0.58,-1.67 1.61,-1.67 1.42,0 2.26,1.05 2.26,1.17 0,0.06 -0.06,0.13 -0.12,0.13 -0.05,0 -0.07,-0.02 -0.13,-0.1 -0.78,-0.99 -1.87,-0.99 -1.99,-0.99 -0.62,0 -0.89,0.49 -0.89,1.09 0,0.4 0.19,1.37 0.53,1.98 0.31,0.57 0.86,1 1.41,1 0.33,0 0.71,-0.13 0.85,-0.4 z" /><path
       style="fill:#000000;stroke-width:0"
       inkscape:connector-curvature="0"
       id="path7951"
       d="m 231.26,706.9 h -0.24 c -0.02,-0.16 -0.09,-0.57 -0.18,-0.64 -0.05,-0.04 -0.59,-0.04 -0.69,-0.04 h -1.28 c 0.73,0.65 0.98,0.84 1.39,1.17 0.52,0.41 1,0.84 1,1.5 0,0.84 -0.74,1.36 -1.63,1.36 -0.86,0 -1.45,-0.61 -1.45,-1.25 0,-0.35 0.3,-0.39 0.37,-0.39 0.17,0 0.37,0.12 0.37,0.37 0,0.13 -0.05,0.37 -0.41,0.37 0.22,0.49 0.69,0.65 1.02,0.65 0.69,0 1.05,-0.54 1.05,-1.11 0,-0.6 -0.43,-1.08 -0.65,-1.33 l -1.68,-1.66 c -0.07,-0.06 -0.07,-0.07 -0.07,-0.27 h 2.87 z" /><path
       style="fill:#000000;stroke-width:0"
       inkscape:connector-curvature="0"
       id="path7953"
       d="m 241.82,710.37 0.02,0 0.03,0 0.03,0 0.02,0.01 0.01,0 0.02,0 0.01,0 0.01,0 0.02,0 0.01,0.01 0.01,0 0.02,0 0.01,0.01 0.01,0 0.01,0.01 0.01,0 0.02,0.01 0.01,0.01 0,0.01 0.01,0.01 0.01,0.01 0,0 0.01,0.01 0,0 0,0.01 0.01,0.01 0,0 0,0.01 0,0.01 0.01,0 0,0.01 0,0.01 0,0.01 0,0.01 0,0 0,0.01 0,0.01 c 0,0.2 -0.19,0.2 -0.33,0.2 h -5.95 c -0.14,0 -0.33,0 -0.33,-0.2 0,-0.2 0.19,-0.2 0.34,-0.2 z" /><path
       style="fill:#000000;stroke-width:0"
       inkscape:connector-curvature="0"
       id="path7955"
       d="m 241.82,708.45 0.02,0 0.01,0 0.03,0 0.03,0 0.01,0 0.01,0 0.02,0 0.01,0 0.02,0 0.01,0.01 0.01,0 0.02,0 0.01,0.01 0.01,0 0.01,0.01 0.01,0 0.02,0.01 0.01,0 0.01,0.01 0,0.01 0.01,0.01 0.01,0 0,0.01 0,0.01 0.01,0 0,0.01 0,0 0.01,0.01 0,0.01 0,0 0,0.01 0.01,0.01 0,0 0,0.01 0,0.01 0,0.01 0,0.01 0,0.01 0,0.01 c 0,0.19 -0.19,0.19 -0.33,0.19 h -5.94 c -0.15,0 -0.34,0 -0.34,-0.19 0,-0.2 0.19,-0.2 0.33,-0.2 z" /><path
       style="fill:#000000;stroke-width:0"
       inkscape:connector-curvature="0"
       id="path7957"
       d="m 246.81,710.38 v 0.24 c 0,2.52 1.23,2.87 1.74,2.87 0.24,0 0.66,-0.06 0.88,-0.4 -0.15,0 -0.55,0 -0.55,-0.44 0,-0.31 0.24,-0.46 0.46,-0.46 0.16,0 0.46,0.09 0.46,0.48 0,0.59 -0.44,1.07 -1.27,1.07 -1.27,0 -2.61,-1.28 -2.61,-3.48 0,-2.65 1.15,-3.35 2.08,-3.35 1.1,0 2.04,0.93 2.04,2.24 0,1.26 -0.88,2.22 -1.99,2.22 l -0.01,-0.23 c 0.17,0 0.62,0 0.93,-0.62 0.18,-0.36 0.18,-0.87 0.18,-1.36 0,-0.48 0,-0.97 -0.17,-1.33 -0.3,-0.6 -0.75,-0.65 -0.98,-0.65 h 0 c -0.63,0 -0.93,0.6 -0.99,0.75 -0.18,0.47 -0.18,1.26 -0.18,1.44 0,0.78 0.32,1.77 1.21,1.77 l 0.01,0.23 c -0.67,0 -1.04,-0.51 -1.24,-0.99 z" /></g>  <g
     id="g8323"
     transform="matrix(2.003215,0,0,-1.9932865,-176.61739,1550.1896)"
     xml:space="preserve"
     stroke-miterlimit="10.433"
     font-style="normal"
     font-variant="normal"
     font-weight="normal"
     font-stretch="normal"
     font-size-adjust="none"
     letter-spacing="normal"
     word-spacing="normal"
     ns0:text="$c_3=5$"
     ns0:preamble=""
     style="font-style:normal;font-variant:normal;font-weight:normal;font-stretch:normal;letter-spacing:normal;word-spacing:normal;text-anchor:start;fill:none;stroke:#000000;stroke-width:1.00087845;stroke-linecap:butt;stroke-linejoin:miter;stroke-miterlimit:10.43299961;stroke-opacity:1;stroke-dasharray:none;stroke-dashoffset:0"><path
       style="fill:#000000;stroke-width:0"
       inkscape:connector-curvature="0"
       d="m 227.37,710.9 -0.03,0 -0.03,0 -0.03,0 -0.02,0 -0.03,0 -0.03,-0.01 -0.01,0 -0.02,0 -0.01,0 -0.01,-0.01 -0.02,0 -0.01,0 -0.01,-0.01 -0.02,0 -0.01,-0.01 -0.01,-0.01 -0.02,0 -0.01,-0.01 -0.01,-0.01 -0.02,0 -0.01,-0.01 -0.01,-0.01 -0.02,-0.01 -0.01,-0.01 -0.01,-0.02 -0.02,-0.01 c -0.16,-0.15 -0.17,-0.32 -0.17,-0.39 0,-0.23 0.17,-0.34 0.36,-0.34 0.29,0 0.56,0.23 0.56,0.63 0,0.49 -0.47,0.86 -1.17,0.86 -1.35,0 -2.67,-1.43 -2.67,-2.83 0,-0.89 0.58,-1.67 1.61,-1.67 1.42,0 2.26,1.05 2.26,1.17 0,0.06 -0.06,0.13 -0.12,0.13 -0.05,0 -0.07,-0.02 -0.13,-0.1 -0.78,-0.99 -1.87,-0.99 -1.99,-0.99 -0.62,0 -0.89,0.49 -0.89,1.09 0,0.4 0.19,1.37 0.53,1.98 0.31,0.57 0.86,1 1.41,1 0.33,0 0.71,-0.13 0.85,-0.4 z"
       id="path8325" /><path
       style="fill:#000000;stroke-width:0"
       inkscape:connector-curvature="0"
       d="m 229.64,707.95 0.05,0 0.05,0 0.05,-0.01 0.05,0 0.05,-0.01 0.04,-0.02 0.05,-0.01 0.04,-0.02 0.04,-0.02 0.04,-0.02 0.04,-0.02 0.04,-0.02 0.03,-0.03 0.04,-0.03 0.03,-0.03 0.04,-0.04 0.03,-0.03 0.02,-0.04 0.03,-0.04 0.03,-0.04 0.02,-0.05 0.02,-0.05 0.02,-0.05 0.02,-0.05 0.01,-0.05 0.02,-0.06 0.01,-0.05 0.01,-0.06 0.01,-0.07 0,-0.06 0.01,-0.07 0,-0.07 c 0,-0.86 -0.5,-1.12 -0.91,-1.12 -0.28,0 -0.89,0.08 -1.18,0.49 0.33,0.02 0.4,0.25 0.4,0.39 0,0.22 -0.16,0.38 -0.38,0.38 -0.2,0 -0.39,-0.12 -0.39,-0.4 0,-0.65 0.72,-1.08 1.57,-1.08 0.96,0 1.63,0.65 1.63,1.34 0,0.55 -0.44,1.09 -1.21,1.25 0.73,0.26 1,0.78 1,1.21 0,0.55 -0.64,0.96 -1.41,0.96 -0.77,0 -1.36,-0.38 -1.36,-0.93 0,-0.24 0.15,-0.37 0.36,-0.37 0.21,0 0.35,0.16 0.35,0.35 0,0.2 -0.14,0.35 -0.35,0.36 0.24,0.31 0.72,0.39 0.98,0.39 0.31,0 0.75,-0.16 0.75,-0.76 0,-0.29 -0.1,-0.61 -0.28,-0.83 -0.23,-0.26 -0.42,-0.28 -0.77,-0.3 -0.17,-0.01 -0.19,-0.01 -0.22,-0.02 -0.02,0 -0.07,-0.01 -0.07,-0.09 0,-0.1 0.06,-0.1 0.18,-0.1 z"
       id="path8327" /><path
       style="fill:#000000;stroke-width:0"
       inkscape:connector-curvature="0"
       d="m 241.82,710.37 0.02,0 0.03,0 0.03,0 0.02,0.01 0.01,0 0.02,0 0.01,0 0.01,0 0.02,0 0.01,0.01 0.01,0 0.02,0 0.01,0.01 0.01,0 0.01,0.01 0.01,0 0.02,0.01 0.01,0.01 0,0.01 0.01,0.01 0.01,0.01 0,0 0.01,0.01 0,0 0,0.01 0.01,0.01 0,0 0,0.01 0,0.01 0.01,0 0,0.01 0,0.01 0,0.01 0,0.01 0,0 0,0.01 0,0.01 c 0,0.2 -0.19,0.2 -0.33,0.2 h -5.95 c -0.14,0 -0.33,0 -0.33,-0.2 0,-0.2 0.19,-0.2 0.34,-0.2 z"
       id="path8329" /><path
       style="fill:#000000;stroke-width:0"
       inkscape:connector-curvature="0"
       d="m 241.82,708.45 0.02,0 0.01,0 0.03,0 0.03,0 0.01,0 0.01,0 0.02,0 0.01,0 0.02,0 0.01,0.01 0.01,0 0.02,0 0.01,0.01 0.01,0 0.01,0.01 0.01,0 0.02,0.01 0.01,0 0.01,0.01 0,0.01 0.01,0.01 0.01,0 0,0.01 0,0.01 0.01,0 0,0.01 0,0 0.01,0.01 0,0.01 0,0 0,0.01 0.01,0.01 0,0 0,0.01 0,0.01 0,0.01 0,0.01 0,0.01 0,0.01 c 0,0.19 -0.19,0.19 -0.33,0.19 h -5.94 c -0.15,0 -0.34,0 -0.34,-0.19 0,-0.2 0.19,-0.2 0.33,-0.2 z"
       id="path8331" /><path
       style="fill:#000000;stroke-width:0"
       inkscape:connector-curvature="0"
       d="m 249.97,709.12 -0.01,0.11 0,0.11 -0.02,0.11 -0.01,0.1 -0.02,0.11 -0.03,0.1 -0.03,0.1 -0.03,0.1 -0.04,0.1 -0.04,0.09 -0.04,0.09 -0.05,0.09 -0.05,0.09 -0.06,0.08 -0.05,0.08 -0.07,0.07 -0.06,0.08 -0.07,0.06 -0.07,0.07 -0.07,0.06 -0.08,0.06 -0.08,0.05 -0.08,0.05 -0.09,0.04 -0.08,0.04 -0.09,0.04 -0.09,0.03 -0.1,0.02 -0.09,0.02 -0.1,0.02 -0.09,0 -0.11,0.01 c -0.47,0 -0.9,-0.16 -1.26,-0.51 v 1.94 c 0.2,-0.06 0.53,-0.13 0.85,-0.13 1.22,0 1.92,0.9 1.92,1.03 0,0.06 -0.03,0.11 -0.1,0.11 -0.01,0 -0.03,0 -0.08,-0.03 -0.2,-0.09 -0.69,-0.29 -1.36,-0.29 -0.39,0 -0.85,0.07 -1.32,0.28 -0.08,0.03 -0.1,0.03 -0.12,0.03 -0.1,0 -0.1,-0.08 -0.1,-0.24 v -2.94 c 0,-0.18 0,-0.26 0.14,-0.26 0.07,0 0.09,0.03 0.13,0.09 0.11,0.16 0.48,0.7 1.28,0.7 0.52,0 0.77,-0.46 0.85,-0.64 0.16,-0.36 0.18,-0.75 0.18,-1.25 0,-0.35 0,-0.94 -0.24,-1.36 -0.24,-0.39 -0.61,-0.65 -1.06,-0.65 -0.73,0 -1.3,0.53 -1.47,1.12 0.03,-0.01 0.06,-0.02 0.17,-0.02 0.33,0 0.5,0.25 0.5,0.48 0,0.24 -0.17,0.49 -0.5,0.49 -0.14,0 -0.48,-0.07 -0.48,-0.53 0,-0.85 0.68,-1.81 1.8,-1.81 1.15,0 2.17,0.95 2.17,2.21 z"
       id="path8333" /></g>  <g
     style="font-style:normal;font-variant:normal;font-weight:normal;font-stretch:normal;letter-spacing:normal;word-spacing:normal;text-anchor:start;fill:none;stroke:#000000;stroke-width:1.00087845;stroke-linecap:butt;stroke-linejoin:miter;stroke-miterlimit:10.43299961;stroke-opacity:1;stroke-dasharray:none;stroke-dashoffset:0"
     ns0:preamble=""
     ns0:text="$c_4=6$"
     word-spacing="normal"
     letter-spacing="normal"
     font-size-adjust="none"
     font-stretch="normal"
     font-weight="normal"
     font-variant="normal"
     font-style="normal"
     stroke-miterlimit="10.433"
     xml:space="preserve"
     transform="matrix(2.003215,0,0,-1.9932865,-66.080821,1549.938)"
     id="g8699"><path
       style="fill:#000000;stroke-width:0"
       inkscape:connector-curvature="0"
       id="path8701"
       d="m 227.37,710.9 -0.03,0 -0.03,0 -0.03,0 -0.02,0 -0.03,0 -0.03,-0.01 -0.01,0 -0.02,0 -0.01,0 -0.01,-0.01 -0.02,0 -0.01,0 -0.01,-0.01 -0.02,0 -0.01,-0.01 -0.01,-0.01 -0.02,0 -0.01,-0.01 -0.01,-0.01 -0.02,0 -0.01,-0.01 -0.01,-0.01 -0.02,-0.01 -0.01,-0.01 -0.01,-0.02 -0.02,-0.01 c -0.16,-0.15 -0.17,-0.32 -0.17,-0.39 0,-0.23 0.17,-0.34 0.36,-0.34 0.29,0 0.56,0.23 0.56,0.63 0,0.49 -0.47,0.86 -1.17,0.86 -1.35,0 -2.67,-1.43 -2.67,-2.83 0,-0.89 0.58,-1.67 1.61,-1.67 1.42,0 2.26,1.05 2.26,1.17 0,0.06 -0.06,0.13 -0.12,0.13 -0.05,0 -0.07,-0.02 -0.13,-0.1 -0.78,-0.99 -1.87,-0.99 -1.99,-0.99 -0.62,0 -0.89,0.49 -0.89,1.09 0,0.4 0.19,1.37 0.53,1.98 0.31,0.57 0.86,1 1.41,1 0.33,0 0.71,-0.13 0.85,-0.4 z" /><path
       style="fill:#000000;stroke-width:0"
       inkscape:connector-curvature="0"
       id="path8703"
       d="m 231.43,706.77 v 0.25 h -0.78 v 3.1 c 0,0.15 0,0.2 -0.15,0.2 -0.08,0 -0.11,0 -0.18,-0.1 l -2.31,-3.2 v -0.25 h 2.05 l 0.05,0.25 h -1.84 l 1.84,2.55 v -2.55 l -0.05,-0.25 v -0.57 c 0,-0.23 0,-0.32 -0.56,-0.32 h -0.19 v -0.25 c 0.35,0.02 0.79,0.03 1.04,0.03 0.26,0 0.71,-0.01 1.06,-0.03 v 0.25 h -0.19 c -0.57,0 -0.57,0.09 -0.57,0.32 v 0.57 z" /><path
       style="fill:#000000;stroke-width:0"
       inkscape:connector-curvature="0"
       id="path8705"
       d="m 241.82,710.37 0.02,0 0.03,0 0.03,0 0.02,0.01 0.01,0 0.02,0 0.01,0 0.01,0 0.02,0 0.01,0.01 0.01,0 0.02,0 0.01,0.01 0.01,0 0.01,0.01 0.01,0 0.02,0.01 0.01,0.01 0,0.01 0.01,0.01 0.01,0.01 0,0 0.01,0.01 0,0 0,0.01 0.01,0.01 0,0 0,0.01 0,0.01 0.01,0 0,0.01 0,0.01 0,0.01 0,0.01 0,0 0,0.01 0,0.01 c 0,0.2 -0.19,0.2 -0.33,0.2 h -5.95 c -0.14,0 -0.33,0 -0.33,-0.2 0,-0.2 0.19,-0.2 0.34,-0.2 z" /><path
       style="fill:#000000;stroke-width:0"
       inkscape:connector-curvature="0"
       id="path8707"
       d="m 241.82,708.45 0.02,0 0.01,0 0.03,0 0.03,0 0.01,0 0.01,0 0.02,0 0.01,0 0.02,0 0.01,0.01 0.01,0 0.02,0 0.01,0.01 0.01,0 0.01,0.01 0.01,0 0.02,0.01 0.01,0 0.01,0.01 0,0.01 0.01,0.01 0.01,0 0,0.01 0,0.01 0.01,0 0,0.01 0,0 0.01,0.01 0,0.01 0,0 0,0.01 0.01,0.01 0,0 0,0.01 0,0.01 0,0.01 0,0.01 0,0.01 0,0.01 c 0,0.19 -0.19,0.19 -0.33,0.19 h -5.94 c -0.15,0 -0.34,0 -0.34,-0.19 0,-0.2 0.19,-0.2 0.33,-0.2 z" /><path
       style="fill:#000000;stroke-width:0"
       inkscape:connector-curvature="0"
       id="path8709"
       d="m 246.81,710.38 v 0.24 c 0,2.52 1.23,2.87 1.74,2.87 0.24,0 0.66,-0.06 0.88,-0.4 -0.15,0 -0.55,0 -0.55,-0.44 0,-0.31 0.24,-0.46 0.46,-0.46 0.16,0 0.46,0.09 0.46,0.48 0,0.59 -0.44,1.07 -1.27,1.07 -1.27,0 -2.61,-1.28 -2.61,-3.48 0,-2.65 1.15,-3.35 2.08,-3.35 1.1,0 2.04,0.93 2.04,2.24 0,1.26 -0.88,2.22 -1.99,2.22 l -0.01,-0.23 c 0.17,0 0.62,0 0.93,-0.62 0.18,-0.36 0.18,-0.87 0.18,-1.36 0,-0.48 0,-0.97 -0.17,-1.33 -0.3,-0.6 -0.75,-0.65 -0.98,-0.65 h 0 c -0.63,0 -0.93,0.6 -0.99,0.75 -0.18,0.47 -0.18,1.26 -0.18,1.44 0,0.78 0.32,1.77 1.21,1.77 l 0.01,0.23 c -0.67,0 -1.04,-0.51 -1.24,-0.99 z" /></g>  <g
     id="g9075"
     transform="matrix(2.003215,0,0,-1.9932865,33.832093,1549.938)"
     xml:space="preserve"
     stroke-miterlimit="10.433"
     font-style="normal"
     font-variant="normal"
     font-weight="normal"
     font-stretch="normal"
     font-size-adjust="none"
     letter-spacing="normal"
     word-spacing="normal"
     ns0:text="$c_5=4$"
     ns0:preamble=""
     style="font-style:normal;font-variant:normal;font-weight:normal;font-stretch:normal;letter-spacing:normal;word-spacing:normal;text-anchor:start;fill:none;stroke:#000000;stroke-width:1.00087845;stroke-linecap:butt;stroke-linejoin:miter;stroke-miterlimit:10.43299961;stroke-opacity:1;stroke-dasharray:none;stroke-dashoffset:0"><path
       style="fill:#000000;stroke-width:0"
       inkscape:connector-curvature="0"
       d="m 227.37,710.9 -0.03,0 -0.03,0 -0.03,0 -0.02,0 -0.03,0 -0.03,-0.01 -0.01,0 -0.02,0 -0.01,0 -0.01,-0.01 -0.02,0 -0.01,0 -0.01,-0.01 -0.02,0 -0.01,-0.01 -0.01,-0.01 -0.02,0 -0.01,-0.01 -0.01,-0.01 -0.02,0 -0.01,-0.01 -0.01,-0.01 -0.02,-0.01 -0.01,-0.01 -0.01,-0.02 -0.02,-0.01 c -0.16,-0.15 -0.17,-0.32 -0.17,-0.39 0,-0.23 0.17,-0.34 0.36,-0.34 0.29,0 0.56,0.23 0.56,0.63 0,0.49 -0.47,0.86 -1.17,0.86 -1.35,0 -2.67,-1.43 -2.67,-2.83 0,-0.89 0.58,-1.67 1.61,-1.67 1.42,0 2.26,1.05 2.26,1.17 0,0.06 -0.06,0.13 -0.12,0.13 -0.05,0 -0.07,-0.02 -0.13,-0.1 -0.78,-0.99 -1.87,-0.99 -1.99,-0.99 -0.62,0 -0.89,0.49 -0.89,1.09 0,0.4 0.19,1.37 0.53,1.98 0.31,0.57 0.86,1 1.41,1 0.33,0 0.71,-0.13 0.85,-0.4 z"
       id="path9077" /><path
       style="fill:#000000;stroke-width:0"
       inkscape:connector-curvature="0"
       d="m 228.82,709.51 0.04,-0.01 0.03,0 0.03,-0.01 0.03,-0.01 0.03,0 0.03,-0.01 0.03,-0.01 0.02,0 0.03,-0.01 0.02,0 0.03,0 0.02,-0.01 0.03,0 0.02,0 0.02,-0.01 0.02,0 0.02,0 0.02,0 0.02,0 0.02,0 0.02,-0.01 0.01,0 0.02,0 0.02,0 0.01,0 0.01,0 0.02,0 0.01,0 0.01,0 0.02,0 0.01,0 0.01,0 c 0.92,0 1.46,0.63 1.46,0.73 0,0.08 -0.05,0.1 -0.08,0.1 -0.02,0 -0.03,0 -0.06,-0.02 -0.17,-0.07 -0.53,-0.2 -1.05,-0.2 -0.2,0 -0.56,0.01 -1.02,0.18 -0.07,0.04 -0.08,0.04 -0.09,0.04 -0.09,0 -0.09,-0.08 -0.09,-0.19 v -2.05 c 0,-0.12 0,-0.2 0.11,-0.2 0.07,0 0.07,0.01 0.14,0.1 0.3,0.38 0.73,0.43 0.97,0.43 0.42,0 0.61,-0.33 0.64,-0.39 0.13,-0.23 0.17,-0.49 0.17,-0.89 0,-0.21 0,-0.62 -0.21,-0.93 -0.18,-0.25 -0.47,-0.42 -0.82,-0.42 -0.45,0 -0.92,0.26 -1.09,0.71 0.27,-0.02 0.4,0.16 0.4,0.34 0,0.3 -0.26,0.36 -0.35,0.36 -0.01,0 -0.35,0 -0.35,-0.38 0,-0.62 0.57,-1.25 1.41,-1.25 0.89,0 1.67,0.66 1.67,1.54 0,0.78 -0.6,1.51 -1.46,1.51 -0.31,0 -0.67,-0.08 -0.98,-0.34 z"
       id="path9079" /><path
       style="fill:#000000;stroke-width:0"
       inkscape:connector-curvature="0"
       d="m 241.82,710.37 0.02,0 0.03,0 0.03,0 0.02,0.01 0.01,0 0.02,0 0.01,0 0.01,0 0.02,0 0.01,0.01 0.01,0 0.02,0 0.01,0.01 0.01,0 0.01,0.01 0.01,0 0.02,0.01 0.01,0.01 0,0.01 0.01,0.01 0.01,0.01 0,0 0.01,0.01 0,0 0,0.01 0.01,0.01 0,0 0,0.01 0,0.01 0.01,0 0,0.01 0,0.01 0,0.01 0,0.01 0,0 0,0.01 0,0.01 c 0,0.2 -0.19,0.2 -0.33,0.2 h -5.95 c -0.14,0 -0.33,0 -0.33,-0.2 0,-0.2 0.19,-0.2 0.34,-0.2 z"
       id="path9081" /><path
       style="fill:#000000;stroke-width:0"
       inkscape:connector-curvature="0"
       d="m 241.82,708.45 0.02,0 0.01,0 0.03,0 0.03,0 0.01,0 0.01,0 0.02,0 0.01,0 0.02,0 0.01,0.01 0.01,0 0.02,0 0.01,0.01 0.01,0 0.01,0.01 0.01,0 0.02,0.01 0.01,0 0.01,0.01 0,0.01 0.01,0.01 0.01,0 0,0.01 0,0.01 0.01,0 0,0.01 0,0 0.01,0.01 0,0.01 0,0 0,0.01 0.01,0.01 0,0 0,0.01 0,0.01 0,0.01 0,0.01 0,0.01 0,0.01 c 0,0.19 -0.19,0.19 -0.33,0.19 h -5.94 c -0.15,0 -0.34,0 -0.34,-0.19 0,-0.2 0.19,-0.2 0.33,-0.2 z"
       id="path9083" /><path
       style="fill:#000000;stroke-width:0"
       inkscape:connector-curvature="0"
       d="m 248.42,708.76 v -0.86 c 0,-0.36 -0.02,-0.47 -0.75,-0.47 h -0.21 v -0.31 c 0.41,0.04 0.92,0.04 1.34,0.04 0.42,0 0.95,0 1.35,-0.04 v 0.31 h -0.2 c -0.74,0 -0.76,0.11 -0.76,0.47 v 0.86 h 0.99 v 0.31 h -0.99 v 4.52 c 0,0.2 0,0.26 -0.16,0.26 -0.09,0 -0.12,0 -0.2,-0.12 l -3.05,-4.66 h 0.28 l 2.42,3.71 v -3.71 h -2.42 -0.28 v -0.31 z"
       id="path9085" /></g>  <g
     style="font-style:normal;font-variant:normal;font-weight:normal;font-stretch:normal;letter-spacing:normal;word-spacing:normal;text-anchor:start;fill:none;stroke:#000000;stroke-width:1.00087845;stroke-linecap:butt;stroke-linejoin:miter;stroke-miterlimit:10.43299961;stroke-opacity:1;stroke-dasharray:none;stroke-dashoffset:0"
     ns0:preamble=""
     ns0:text="$c_6=5$"
     word-spacing="normal"
     letter-spacing="normal"
     font-size-adjust="none"
     font-stretch="normal"
     font-weight="normal"
     font-variant="normal"
     font-style="normal"
     stroke-miterlimit="10.433"
     xml:space="preserve"
     transform="matrix(2.003215,0,0,-1.9932865,124.38607,1549.938)"
     id="g9451"><path
       style="fill:#000000;stroke-width:0"
       inkscape:connector-curvature="0"
       id="path9453"
       d="m 227.37,710.9 -0.03,0 -0.03,0 -0.03,0 -0.02,0 -0.03,0 -0.03,-0.01 -0.01,0 -0.02,0 -0.01,0 -0.01,-0.01 -0.02,0 -0.01,0 -0.01,-0.01 -0.02,0 -0.01,-0.01 -0.01,-0.01 -0.02,0 -0.01,-0.01 -0.01,-0.01 -0.02,0 -0.01,-0.01 -0.01,-0.01 -0.02,-0.01 -0.01,-0.01 -0.01,-0.02 -0.02,-0.01 c -0.16,-0.15 -0.17,-0.32 -0.17,-0.39 0,-0.23 0.17,-0.34 0.36,-0.34 0.29,0 0.56,0.23 0.56,0.63 0,0.49 -0.47,0.86 -1.17,0.86 -1.35,0 -2.67,-1.43 -2.67,-2.83 0,-0.89 0.58,-1.67 1.61,-1.67 1.42,0 2.26,1.05 2.26,1.17 0,0.06 -0.06,0.13 -0.12,0.13 -0.05,0 -0.07,-0.02 -0.13,-0.1 -0.78,-0.99 -1.87,-0.99 -1.99,-0.99 -0.62,0 -0.89,0.49 -0.89,1.09 0,0.4 0.19,1.37 0.53,1.98 0.31,0.57 0.86,1 1.41,1 0.33,0 0.71,-0.13 0.85,-0.4 z" /><path
       style="fill:#000000;stroke-width:0"
       inkscape:connector-curvature="0"
       id="path9455"
       d="m 228.79,707.91 0,0.1 0,0.11 0,0.1 0.01,0.1 0.01,0.1 0.01,0.1 0.01,0.1 0.02,0.09 0.01,0.1 0.03,0.09 0.02,0.09 0.03,0.09 0.02,0.04 0.01,0.05 0.02,0.04 0.02,0.04 0.02,0.04 0.02,0.04 0.03,0.04 0.02,0.04 c 0.24,0.38 0.61,0.64 1.06,0.64 0.21,0 0.49,-0.06 0.63,-0.25 -0.18,-0.01 -0.32,-0.13 -0.32,-0.33 0,-0.17 0.11,-0.33 0.32,-0.33 0.21,0 0.34,0.14 0.34,0.34 0,0.41 -0.29,0.77 -0.98,0.77 -1.01,0 -2.03,-0.92 -2.03,-2.41 0,-1.81 0.85,-2.35 1.62,-2.35 0.84,0 1.58,0.65 1.58,1.56 0,0.88 -0.7,1.54 -1.52,1.54 l -0.03,-0.2 c 0.32,0 0.54,-0.12 0.71,-0.38 0.17,-0.27 0.17,-0.56 0.17,-0.96 0,-0.4 0,-0.69 -0.18,-0.96 -0.17,-0.24 -0.39,-0.38 -0.73,-0.38 h 0 c -0.35,0 -0.62,0.21 -0.77,0.51 -0.11,0.21 -0.16,0.56 -0.16,0.98 0,0.67 0.4,1.19 0.96,1.19 l 0.03,0.2 c -0.55,0 -0.86,-0.37 -1.01,-0.68 z" /><path
       style="fill:#000000;stroke-width:0"
       inkscape:connector-curvature="0"
       id="path9457"
       d="m 241.82,710.37 0.02,0 0.03,0 0.03,0 0.02,0.01 0.01,0 0.02,0 0.01,0 0.01,0 0.02,0 0.01,0.01 0.01,0 0.02,0 0.01,0.01 0.01,0 0.01,0.01 0.01,0 0.02,0.01 0.01,0.01 0,0.01 0.01,0.01 0.01,0.01 0,0 0.01,0.01 0,0 0,0.01 0.01,0.01 0,0 0,0.01 0,0.01 0.01,0 0,0.01 0,0.01 0,0.01 0,0.01 0,0 0,0.01 0,0.01 c 0,0.2 -0.19,0.2 -0.33,0.2 h -5.95 c -0.14,0 -0.33,0 -0.33,-0.2 0,-0.2 0.19,-0.2 0.34,-0.2 z" /><path
       style="fill:#000000;stroke-width:0"
       inkscape:connector-curvature="0"
       id="path9459"
       d="m 241.82,708.45 0.02,0 0.01,0 0.03,0 0.03,0 0.01,0 0.01,0 0.02,0 0.01,0 0.02,0 0.01,0.01 0.01,0 0.02,0 0.01,0.01 0.01,0 0.01,0.01 0.01,0 0.02,0.01 0.01,0 0.01,0.01 0,0.01 0.01,0.01 0.01,0 0,0.01 0,0.01 0.01,0 0,0.01 0,0 0.01,0.01 0,0.01 0,0 0,0.01 0.01,0.01 0,0 0,0.01 0,0.01 0,0.01 0,0.01 0,0.01 0,0.01 c 0,0.19 -0.19,0.19 -0.33,0.19 h -5.94 c -0.15,0 -0.34,0 -0.34,-0.19 0,-0.2 0.19,-0.2 0.33,-0.2 z" /><path
       style="fill:#000000;stroke-width:0"
       inkscape:connector-curvature="0"
       id="path9461"
       d="m 249.97,709.12 -0.01,0.11 0,0.11 -0.02,0.11 -0.01,0.1 -0.02,0.11 -0.03,0.1 -0.03,0.1 -0.03,0.1 -0.04,0.1 -0.04,0.09 -0.04,0.09 -0.05,0.09 -0.05,0.09 -0.06,0.08 -0.05,0.08 -0.07,0.07 -0.06,0.08 -0.07,0.06 -0.07,0.07 -0.07,0.06 -0.08,0.06 -0.08,0.05 -0.08,0.05 -0.09,0.04 -0.08,0.04 -0.09,0.04 -0.09,0.03 -0.1,0.02 -0.09,0.02 -0.1,0.02 -0.09,0 -0.11,0.01 c -0.47,0 -0.9,-0.16 -1.26,-0.51 v 1.94 c 0.2,-0.06 0.53,-0.13 0.85,-0.13 1.22,0 1.92,0.9 1.92,1.03 0,0.06 -0.03,0.11 -0.1,0.11 -0.01,0 -0.03,0 -0.08,-0.03 -0.2,-0.09 -0.69,-0.29 -1.36,-0.29 -0.39,0 -0.85,0.07 -1.32,0.28 -0.08,0.03 -0.1,0.03 -0.12,0.03 -0.1,0 -0.1,-0.08 -0.1,-0.24 v -2.94 c 0,-0.18 0,-0.26 0.14,-0.26 0.07,0 0.09,0.03 0.13,0.09 0.11,0.16 0.48,0.7 1.28,0.7 0.52,0 0.77,-0.46 0.85,-0.64 0.16,-0.36 0.18,-0.75 0.18,-1.25 0,-0.35 0,-0.94 -0.24,-1.36 -0.24,-0.39 -0.61,-0.65 -1.06,-0.65 -0.73,0 -1.3,0.53 -1.47,1.12 0.03,-0.01 0.06,-0.02 0.17,-0.02 0.33,0 0.5,0.25 0.5,0.48 0,0.24 -0.17,0.49 -0.5,0.49 -0.14,0 -0.48,-0.07 -0.48,-0.53 0,-0.85 0.68,-1.81 1.8,-1.81 1.15,0 2.17,0.95 2.17,2.21 z" /></g>  <g
     id="g9827"
     transform="matrix(2.003215,0,0,-1.9932865,214.68711,1549.938)"
     xml:space="preserve"
     stroke-miterlimit="10.433"
     font-style="normal"
     font-variant="normal"
     font-weight="normal"
     font-stretch="normal"
     font-size-adjust="none"
     letter-spacing="normal"
     word-spacing="normal"
     ns0:text="$c_7=4$"
     ns0:preamble=""
     style="font-style:normal;font-variant:normal;font-weight:normal;font-stretch:normal;letter-spacing:normal;word-spacing:normal;text-anchor:start;fill:none;stroke:#000000;stroke-width:1.00087845;stroke-linecap:butt;stroke-linejoin:miter;stroke-miterlimit:10.43299961;stroke-opacity:1;stroke-dasharray:none;stroke-dashoffset:0"><path
       style="fill:#000000;stroke-width:0"
       inkscape:connector-curvature="0"
       d="m 227.37,710.9 -0.03,0 -0.03,0 -0.03,0 -0.02,0 -0.03,0 -0.03,-0.01 -0.01,0 -0.02,0 -0.01,0 -0.01,-0.01 -0.02,0 -0.01,0 -0.01,-0.01 -0.02,0 -0.01,-0.01 -0.01,-0.01 -0.02,0 -0.01,-0.01 -0.01,-0.01 -0.02,0 -0.01,-0.01 -0.01,-0.01 -0.02,-0.01 -0.01,-0.01 -0.01,-0.02 -0.02,-0.01 c -0.16,-0.15 -0.17,-0.32 -0.17,-0.39 0,-0.23 0.17,-0.34 0.36,-0.34 0.29,0 0.56,0.23 0.56,0.63 0,0.49 -0.47,0.86 -1.17,0.86 -1.35,0 -2.67,-1.43 -2.67,-2.83 0,-0.89 0.58,-1.67 1.61,-1.67 1.42,0 2.26,1.05 2.26,1.17 0,0.06 -0.06,0.13 -0.12,0.13 -0.05,0 -0.07,-0.02 -0.13,-0.1 -0.78,-0.99 -1.87,-0.99 -1.99,-0.99 -0.62,0 -0.89,0.49 -0.89,1.09 0,0.4 0.19,1.37 0.53,1.98 0.31,0.57 0.86,1 1.41,1 0.33,0 0.71,-0.13 0.85,-0.4 z"
       id="path9829" /><path
       style="fill:#000000;stroke-width:0"
       inkscape:connector-curvature="0"
       d="m 231.47,709.83 0.01,0.01 0,0.01 0.01,0 0,0.01 0.01,0.01 0,0 0.01,0.01 0,0 0,0.01 0.01,0.01 0,0 0,0.01 0,0 0.01,0.01 0,0.01 0,0 0,0.01 0,0.01 0,0.01 0.01,0 0,0.01 0,0.01 0,0.01 0,0.01 0,0.01 0,0.01 0,0.02 0,0.01 0,0.01 0,0.01 0,0.01 0,0 0,0.01 0,0.01 0,0.01 h -1.83 c -0.28,0 -0.35,0.01 -0.6,0.03 -0.36,0.02 -0.38,0.07 -0.4,0.19 h -0.24 l -0.24,-1.49 h 0.24 c 0.01,0.11 0.08,0.57 0.19,0.64 0.06,0.04 0.62,0.04 0.73,0.04 h 1.51 c -0.22,-0.29 -0.57,-0.73 -0.72,-0.92 -0.91,-1.2 -1,-2.3 -1,-2.71 0,-0.08 0,-0.4 0.33,-0.4 0.34,0 0.34,0.31 0.34,0.41 v 0.27 c 0,1.35 0.27,1.97 0.57,2.35 z"
       id="path9831" /><path
       style="fill:#000000;stroke-width:0"
       inkscape:connector-curvature="0"
       d="m 241.82,710.37 0.02,0 0.03,0 0.03,0 0.02,0.01 0.01,0 0.02,0 0.01,0 0.01,0 0.02,0 0.01,0.01 0.01,0 0.02,0 0.01,0.01 0.01,0 0.01,0.01 0.01,0 0.02,0.01 0.01,0.01 0,0.01 0.01,0.01 0.01,0.01 0,0 0.01,0.01 0,0 0,0.01 0.01,0.01 0,0 0,0.01 0,0.01 0.01,0 0,0.01 0,0.01 0,0.01 0,0.01 0,0 0,0.01 0,0.01 c 0,0.2 -0.19,0.2 -0.33,0.2 h -5.95 c -0.14,0 -0.33,0 -0.33,-0.2 0,-0.2 0.19,-0.2 0.34,-0.2 z"
       id="path9833" /><path
       style="fill:#000000;stroke-width:0"
       inkscape:connector-curvature="0"
       d="m 241.82,708.45 0.02,0 0.01,0 0.03,0 0.03,0 0.01,0 0.01,0 0.02,0 0.01,0 0.02,0 0.01,0.01 0.01,0 0.02,0 0.01,0.01 0.01,0 0.01,0.01 0.01,0 0.02,0.01 0.01,0 0.01,0.01 0,0.01 0.01,0.01 0.01,0 0,0.01 0,0.01 0.01,0 0,0.01 0,0 0.01,0.01 0,0.01 0,0 0,0.01 0.01,0.01 0,0 0,0.01 0,0.01 0,0.01 0,0.01 0,0.01 0,0.01 c 0,0.19 -0.19,0.19 -0.33,0.19 h -5.94 c -0.15,0 -0.34,0 -0.34,-0.19 0,-0.2 0.19,-0.2 0.33,-0.2 z"
       id="path9835" /><path
       style="fill:#000000;stroke-width:0"
       inkscape:connector-curvature="0"
       d="m 248.42,708.76 v -0.86 c 0,-0.36 -0.02,-0.47 -0.75,-0.47 h -0.21 v -0.31 c 0.41,0.04 0.92,0.04 1.34,0.04 0.42,0 0.95,0 1.35,-0.04 v 0.31 h -0.2 c -0.74,0 -0.76,0.11 -0.76,0.47 v 0.86 h 0.99 v 0.31 h -0.99 v 4.52 c 0,0.2 0,0.26 -0.16,0.26 -0.09,0 -0.12,0 -0.2,-0.12 l -3.05,-4.66 h 0.28 l 2.42,3.71 v -3.71 h -2.42 -0.28 v -0.31 z"
       id="path9837" /></g>  <g
     style="font-style:normal;font-variant:normal;font-weight:normal;font-stretch:normal;letter-spacing:normal;word-spacing:normal;text-anchor:start;fill:none;stroke:#000000;stroke-width:1.00087845;stroke-linecap:butt;stroke-linejoin:miter;stroke-miterlimit:10.43299961;stroke-opacity:1;stroke-dasharray:none;stroke-dashoffset:0"
     ns0:preamble=""
     ns0:text="$1$"
     word-spacing="normal"
     letter-spacing="normal"
     font-size-adjust="none"
     font-stretch="normal"
     font-weight="normal"
     font-variant="normal"
     font-style="normal"
     stroke-miterlimit="10.433"
     xml:space="preserve"
     transform="matrix(2.003215,0,0,-1.9932865,-364.09795,1460.9412)"
     id="content"><path
       id="path8477"
       d="m 226.36,713.48 0,0.01 0,0.01 0,0.02 0,0.01 0,0 0,0.01 0,0.01 0,0.01 0,0.01 0,0.01 0,0.01 0,0.01 0,0 -0.01,0.01 0,0.01 0,0 0,0.01 0,0.01 0,0.01 0,0.01 -0.01,0.01 0,0.01 0,0.01 -0.01,0 0,0.01 -0.01,0.01 0,0 -0.01,0.01 -0.01,0 -0.01,0.01 0,0 -0.01,0 0,0 -0.01,0 0,0 -0.01,0 -0.01,0.01 0,0 -0.01,0 -0.01,0 0,0 -0.01,0 -0.01,0 -0.01,0 0,0 -0.01,0 -0.01,0 -0.01,0 -0.01,0 -0.01,0 -0.01,0 -0.01,0 c -0.62,-0.64 -1.49,-0.64 -1.81,-0.64 v -0.3 c 0.2,0 0.78,0 1.3,0.25 v -5.14 c 0,-0.36 -0.03,-0.48 -0.92,-0.48 h -0.32 v -0.31 c 0.35,0.04 1.21,0.04 1.61,0.04 0.4,0 1.26,0 1.61,-0.04 v 0.31 h -0.32 c -0.89,0 -0.92,0.11 -0.92,0.48 z"
       inkscape:connector-curvature="0"
       style="fill:#000000;stroke-width:0" /></g>  <g
     id="g8841"
     transform="matrix(2.003215,0,0,-1.9932865,-315.13366,1460.9314)"
     xml:space="preserve"
     stroke-miterlimit="10.433"
     font-style="normal"
     font-variant="normal"
     font-weight="normal"
     font-stretch="normal"
     font-size-adjust="none"
     letter-spacing="normal"
     word-spacing="normal"
     ns0:text="$2$"
     ns0:preamble=""
     style="font-style:normal;font-variant:normal;font-weight:normal;font-stretch:normal;letter-spacing:normal;word-spacing:normal;text-anchor:start;fill:none;stroke:#000000;stroke-width:1.00087845;stroke-linecap:butt;stroke-linejoin:miter;stroke-miterlimit:10.43299961;stroke-opacity:1;stroke-dasharray:none;stroke-dashoffset:0"><path
       style="fill:#000000;stroke-width:0"
       inkscape:connector-curvature="0"
       d="m 224.7,707.89 1.05,1.02 c 1.55,1.37 2.15,1.91 2.15,2.9 0,1.14 -0.9,1.93 -2.11,1.93 -1.12,0 -1.86,-0.91 -1.86,-1.8 0,-0.55 0.5,-0.55 0.53,-0.55 0.17,0 0.51,0.12 0.51,0.52 0,0.26 -0.18,0.52 -0.52,0.52 -0.08,0 -0.1,0 -0.13,-0.01 0.23,0.65 0.76,1.01 1.34,1.01 0.91,0 1.33,-0.8 1.33,-1.62 0,-0.79 -0.49,-1.58 -1.04,-2.19 l -1.91,-2.13 c -0.11,-0.11 -0.11,-0.13 -0.11,-0.37 h 3.69 l 0.28,1.73 h -0.25 c -0.05,-0.3 -0.12,-0.73 -0.22,-0.88 -0.07,-0.08 -0.72,-0.08 -0.94,-0.08 z"
       id="path8843" /></g>  <g
     style="font-style:normal;font-variant:normal;font-weight:normal;font-stretch:normal;letter-spacing:normal;word-spacing:normal;text-anchor:start;fill:none;stroke:#000000;stroke-width:1.00087845;stroke-linecap:butt;stroke-linejoin:miter;stroke-miterlimit:10.43299961;stroke-opacity:1;stroke-dasharray:none;stroke-dashoffset:0"
     ns0:preamble=""
     ns0:text="$1$"
     word-spacing="normal"
     letter-spacing="normal"
     font-size-adjust="none"
     font-stretch="normal"
     font-weight="normal"
     font-variant="normal"
     font-style="normal"
     stroke-miterlimit="10.433"
     xml:space="preserve"
     transform="matrix(2.003215,0,0,-1.9932865,-263.9372,1490.8405)"
     id="g9203"><path
       id="path9205"
       d="m 226.36,713.48 0,0.01 0,0.01 0,0.02 0,0.01 0,0 0,0.01 0,0.01 0,0.01 0,0.01 0,0.01 0,0.01 0,0.01 0,0 -0.01,0.01 0,0.01 0,0 0,0.01 0,0.01 0,0.01 0,0.01 -0.01,0.01 0,0.01 0,0.01 -0.01,0 0,0.01 -0.01,0.01 0,0 -0.01,0.01 -0.01,0 -0.01,0.01 0,0 -0.01,0 0,0 -0.01,0 0,0 -0.01,0 -0.01,0.01 0,0 -0.01,0 -0.01,0 0,0 -0.01,0 -0.01,0 -0.01,0 0,0 -0.01,0 -0.01,0 -0.01,0 -0.01,0 -0.01,0 -0.01,0 -0.01,0 c -0.62,-0.64 -1.49,-0.64 -1.81,-0.64 v -0.3 c 0.2,0 0.78,0 1.3,0.25 v -5.14 c 0,-0.36 -0.03,-0.48 -0.92,-0.48 h -0.32 v -0.31 c 0.35,0.04 1.21,0.04 1.61,0.04 0.4,0 1.26,0 1.61,-0.04 v 0.31 h -0.32 c -0.89,0 -0.92,0.11 -0.92,0.48 z"
       inkscape:connector-curvature="0"
       style="fill:#000000;stroke-width:0" /></g>  <g
     id="g9561"
     transform="matrix(2.003215,0,0,-1.9932865,-184.4217,1461.32)"
     xml:space="preserve"
     stroke-miterlimit="10.433"
     font-style="normal"
     font-variant="normal"
     font-weight="normal"
     font-stretch="normal"
     font-size-adjust="none"
     letter-spacing="normal"
     word-spacing="normal"
     ns0:text="$3$"
     ns0:preamble=""
     style="font-style:normal;font-variant:normal;font-weight:normal;font-stretch:normal;letter-spacing:normal;word-spacing:normal;text-anchor:start;fill:none;stroke:#000000;stroke-width:1.00087845;stroke-linecap:butt;stroke-linejoin:miter;stroke-miterlimit:10.43299961;stroke-opacity:1;stroke-dasharray:none;stroke-dashoffset:0"><path
       style="fill:#000000;stroke-width:0"
       inkscape:connector-curvature="0"
       d="m 226.32,710.62 0.07,0.03 0.08,0.03 0.07,0.03 0.07,0.03 0.07,0.04 0.07,0.04 0.06,0.04 0.07,0.04 0.06,0.04 0.06,0.05 0.06,0.05 0.06,0.05 0.05,0.05 0.05,0.05 0.05,0.06 0.05,0.05 0.04,0.06 0.05,0.06 0.04,0.06 0.03,0.06 0.04,0.07 0.03,0.06 0.03,0.07 0.03,0.06 0.02,0.07 0.02,0.07 0.02,0.07 0.01,0.07 0.02,0.07 0,0.07 0.01,0.08 0,0.07 c 0,0.81 -0.87,1.37 -1.83,1.37 -1,0 -1.76,-0.59 -1.76,-1.35 0,-0.33 0.22,-0.52 0.51,-0.52 0.3,0 0.5,0.22 0.5,0.51 0,0.5 -0.46,0.5 -0.61,0.5 0.3,0.48 0.96,0.61 1.32,0.61 0.41,0 0.95,-0.22 0.95,-1.11 0,-0.12 -0.02,-0.7 -0.27,-1.13 -0.3,-0.48 -0.64,-0.51 -0.89,-0.52 -0.08,-0.01 -0.32,-0.03 -0.39,-0.03 -0.08,-0.01 -0.15,-0.02 -0.15,-0.12 0,-0.11 0.07,-0.11 0.24,-0.11 h 0.44 c 0.82,0 1.18,-0.67 1.18,-1.65 0,-1.35 -0.68,-1.64 -1.12,-1.64 -0.43,0 -1.17,0.17 -1.52,0.76 0.35,-0.05 0.65,0.17 0.65,0.55 0,0.35 -0.26,0.55 -0.55,0.55 -0.24,0 -0.56,-0.14 -0.56,-0.57 0,-0.91 0.92,-1.56 2.01,-1.56 1.21,0 2.12,0.9 2.12,1.91 0,0.82 -0.63,1.59 -1.66,1.8 z"
       id="path9563" /></g>  <g
     style="font-style:normal;font-variant:normal;font-weight:normal;font-stretch:normal;letter-spacing:normal;word-spacing:normal;text-anchor:start;fill:none;stroke:#000000;stroke-width:1.00087845;stroke-linecap:butt;stroke-linejoin:miter;stroke-miterlimit:10.43299961;stroke-opacity:1;stroke-dasharray:none;stroke-dashoffset:0"
     ns0:preamble=""
     ns0:text="$2$"
     word-spacing="normal"
     letter-spacing="normal"
     font-size-adjust="none"
     font-stretch="normal"
     font-weight="normal"
     font-variant="normal"
     font-style="normal"
     stroke-miterlimit="10.433"
     xml:space="preserve"
     transform="matrix(2.003215,0,0,-1.9932865,-154.87647,1490.1164)"
     id="g9915"><path
       id="path9917"
       d="m 224.7,707.89 1.05,1.02 c 1.55,1.37 2.15,1.91 2.15,2.9 0,1.14 -0.9,1.93 -2.11,1.93 -1.12,0 -1.86,-0.91 -1.86,-1.8 0,-0.55 0.5,-0.55 0.53,-0.55 0.17,0 0.51,0.12 0.51,0.52 0,0.26 -0.18,0.52 -0.52,0.52 -0.08,0 -0.1,0 -0.13,-0.01 0.23,0.65 0.76,1.01 1.34,1.01 0.91,0 1.33,-0.8 1.33,-1.62 0,-0.79 -0.49,-1.58 -1.04,-2.19 l -1.91,-2.13 c -0.11,-0.11 -0.11,-0.13 -0.11,-0.37 h 3.69 l 0.28,1.73 h -0.25 c -0.05,-0.3 -0.12,-0.73 -0.22,-0.88 -0.07,-0.08 -0.72,-0.08 -0.94,-0.08 z"
       inkscape:connector-curvature="0"
       style="fill:#000000;stroke-width:0" /></g>  <g
     id="g10265"
     transform="matrix(2.003215,0,0,-1.9932865,-153.76039,1520.7398)"
     xml:space="preserve"
     stroke-miterlimit="10.433"
     font-style="normal"
     font-variant="normal"
     font-weight="normal"
     font-stretch="normal"
     font-size-adjust="none"
     letter-spacing="normal"
     word-spacing="normal"
     ns0:text="$1$"
     ns0:preamble=""
     style="font-style:normal;font-variant:normal;font-weight:normal;font-stretch:normal;letter-spacing:normal;word-spacing:normal;text-anchor:start;fill:none;stroke:#000000;stroke-width:1.00087845;stroke-linecap:butt;stroke-linejoin:miter;stroke-miterlimit:10.43299961;stroke-opacity:1;stroke-dasharray:none;stroke-dashoffset:0"><path
       style="fill:#000000;stroke-width:0"
       inkscape:connector-curvature="0"
       d="m 226.36,713.48 0,0.01 0,0.01 0,0.02 0,0.01 0,0 0,0.01 0,0.01 0,0.01 0,0.01 0,0.01 0,0.01 0,0.01 0,0 -0.01,0.01 0,0.01 0,0 0,0.01 0,0.01 0,0.01 0,0.01 -0.01,0.01 0,0.01 0,0.01 -0.01,0 0,0.01 -0.01,0.01 0,0 -0.01,0.01 -0.01,0 -0.01,0.01 0,0 -0.01,0 0,0 -0.01,0 0,0 -0.01,0 -0.01,0.01 0,0 -0.01,0 -0.01,0 0,0 -0.01,0 -0.01,0 -0.01,0 0,0 -0.01,0 -0.01,0 -0.01,0 -0.01,0 -0.01,0 -0.01,0 -0.01,0 c -0.62,-0.64 -1.49,-0.64 -1.81,-0.64 v -0.3 c 0.2,0 0.78,0 1.3,0.25 v -5.14 c 0,-0.36 -0.03,-0.48 -0.92,-0.48 h -0.32 v -0.31 c 0.35,0.04 1.21,0.04 1.61,0.04 0.4,0 1.26,0 1.61,-0.04 v 0.31 h -0.32 c -0.89,0 -0.92,0.11 -0.92,0.48 z"
       id="path10267" /></g>  <g
     style="font-style:normal;font-variant:normal;font-weight:normal;font-stretch:normal;letter-spacing:normal;word-spacing:normal;text-anchor:start;fill:none;stroke:#000000;stroke-width:1.00087845;stroke-linecap:butt;stroke-linejoin:miter;stroke-miterlimit:10.43299961;stroke-opacity:1;stroke-dasharray:none;stroke-dashoffset:0"
     ns0:preamble=""
     ns0:text="$4$"
     word-spacing="normal"
     letter-spacing="normal"
     font-size-adjust="none"
     font-stretch="normal"
     font-weight="normal"
     font-variant="normal"
     font-style="normal"
     stroke-miterlimit="10.433"
     xml:space="preserve"
     transform="matrix(2.003215,0,0,-1.9932865,-54.186683,1461.3699)"
     id="g10611"><path
       id="path10613"
       d="m 226.36,708.76 v -0.86 c 0,-0.36 -0.02,-0.47 -0.76,-0.47 h -0.21 v -0.31 c 0.41,0.04 0.93,0.04 1.35,0.04 0.41,0 0.94,0 1.35,-0.04 v 0.31 h -0.21 c -0.74,0 -0.76,0.11 -0.76,0.47 v 0.86 h 1 v 0.31 h -1 v 4.52 c 0,0.2 0,0.26 -0.16,0.26 -0.09,0 -0.11,0 -0.2,-0.12 l -3.05,-4.66 h 0.28 l 2.43,3.71 v -3.71 h -2.43 -0.28 v -0.31 z"
       inkscape:connector-curvature="0"
       style="fill:#000000;stroke-width:0" /></g>  <g
     id="g10953"
     transform="matrix(2.003215,0,0,-1.9932865,-54.158005,1491.2192)"
     xml:space="preserve"
     stroke-miterlimit="10.433"
     font-style="normal"
     font-variant="normal"
     font-weight="normal"
     font-stretch="normal"
     font-size-adjust="none"
     letter-spacing="normal"
     word-spacing="normal"
     ns0:text="$3$"
     ns0:preamble=""
     style="font-style:normal;font-variant:normal;font-weight:normal;font-stretch:normal;letter-spacing:normal;word-spacing:normal;text-anchor:start;fill:none;stroke:#000000;stroke-width:1.00087845;stroke-linecap:butt;stroke-linejoin:miter;stroke-miterlimit:10.43299961;stroke-opacity:1;stroke-dasharray:none;stroke-dashoffset:0"><path
       style="fill:#000000;stroke-width:0"
       inkscape:connector-curvature="0"
       d="m 226.32,710.62 0.07,0.03 0.08,0.03 0.07,0.03 0.07,0.03 0.07,0.04 0.07,0.04 0.06,0.04 0.07,0.04 0.06,0.04 0.06,0.05 0.06,0.05 0.06,0.05 0.05,0.05 0.05,0.05 0.05,0.06 0.05,0.05 0.04,0.06 0.05,0.06 0.04,0.06 0.03,0.06 0.04,0.07 0.03,0.06 0.03,0.07 0.03,0.06 0.02,0.07 0.02,0.07 0.02,0.07 0.01,0.07 0.02,0.07 0,0.07 0.01,0.08 0,0.07 c 0,0.81 -0.87,1.37 -1.83,1.37 -1,0 -1.76,-0.59 -1.76,-1.35 0,-0.33 0.22,-0.52 0.51,-0.52 0.3,0 0.5,0.22 0.5,0.51 0,0.5 -0.46,0.5 -0.61,0.5 0.3,0.48 0.96,0.61 1.32,0.61 0.41,0 0.95,-0.22 0.95,-1.11 0,-0.12 -0.02,-0.7 -0.27,-1.13 -0.3,-0.48 -0.64,-0.51 -0.89,-0.52 -0.08,-0.01 -0.32,-0.03 -0.39,-0.03 -0.08,-0.01 -0.15,-0.02 -0.15,-0.12 0,-0.11 0.07,-0.11 0.24,-0.11 h 0.44 c 0.82,0 1.18,-0.67 1.18,-1.65 0,-1.35 -0.68,-1.64 -1.12,-1.64 -0.43,0 -1.17,0.17 -1.52,0.76 0.35,-0.05 0.65,0.17 0.65,0.55 0,0.35 -0.26,0.55 -0.55,0.55 -0.24,0 -0.56,-0.14 -0.56,-0.57 0,-0.91 0.92,-1.56 2.01,-1.56 1.21,0 2.12,0.9 2.12,1.91 0,0.82 -0.63,1.59 -1.66,1.8 z"
       id="path10955" /></g>  <g
     style="font-style:normal;font-variant:normal;font-weight:normal;font-stretch:normal;letter-spacing:normal;word-spacing:normal;text-anchor:start;fill:none;stroke:#000000;stroke-width:1.00087845;stroke-linecap:butt;stroke-linejoin:miter;stroke-miterlimit:10.43299961;stroke-opacity:1;stroke-dasharray:none;stroke-dashoffset:0"
     ns0:preamble=""
     ns0:text="$2$"
     word-spacing="normal"
     letter-spacing="normal"
     font-size-adjust="none"
     font-stretch="normal"
     font-weight="normal"
     font-variant="normal"
     font-style="normal"
     stroke-miterlimit="10.433"
     xml:space="preserve"
     transform="matrix(2.003215,0,0,-1.9932865,-43.493386,1520.7398)"
     id="g11291"><path
       id="path11293"
       d="m 224.7,707.89 1.05,1.02 c 1.55,1.37 2.15,1.91 2.15,2.9 0,1.14 -0.9,1.93 -2.11,1.93 -1.12,0 -1.86,-0.91 -1.86,-1.8 0,-0.55 0.5,-0.55 0.53,-0.55 0.17,0 0.51,0.12 0.51,0.52 0,0.26 -0.18,0.52 -0.52,0.52 -0.08,0 -0.1,0 -0.13,-0.01 0.23,0.65 0.76,1.01 1.34,1.01 0.91,0 1.33,-0.8 1.33,-1.62 0,-0.79 -0.49,-1.58 -1.04,-2.19 l -1.91,-2.13 c -0.11,-0.11 -0.11,-0.13 -0.11,-0.37 h 3.69 l 0.28,1.73 h -0.25 c -0.05,-0.3 -0.12,-0.73 -0.22,-0.88 -0.07,-0.08 -0.72,-0.08 -0.94,-0.08 z"
       inkscape:connector-curvature="0"
       style="fill:#000000;stroke-width:0" /></g>  <g
     id="g11625"
     transform="matrix(2.003215,0,0,-1.9932865,54.820074,1460.536)"
     xml:space="preserve"
     stroke-miterlimit="10.433"
     font-style="normal"
     font-variant="normal"
     font-weight="normal"
     font-stretch="normal"
     font-size-adjust="none"
     letter-spacing="normal"
     word-spacing="normal"
     ns0:text="$5$"
     ns0:preamble=""
     style="font-style:normal;font-variant:normal;font-weight:normal;font-stretch:normal;letter-spacing:normal;word-spacing:normal;text-anchor:start;fill:none;stroke:#000000;stroke-width:1.00087845;stroke-linecap:butt;stroke-linejoin:miter;stroke-miterlimit:10.43299961;stroke-opacity:1;stroke-dasharray:none;stroke-dashoffset:0"><path
       style="fill:#000000;stroke-width:0"
       inkscape:connector-curvature="0"
       d="m 227.9,709.12 0,0.11 -0.01,0.11 -0.01,0.11 -0.02,0.1 -0.02,0.11 -0.02,0.1 -0.03,0.1 -0.04,0.1 -0.03,0.1 -0.04,0.09 -0.05,0.09 -0.05,0.09 -0.05,0.09 -0.05,0.08 -0.06,0.08 -0.06,0.07 -0.07,0.08 -0.07,0.06 -0.07,0.07 -0.07,0.06 -0.08,0.06 -0.08,0.05 -0.08,0.05 -0.08,0.04 -0.09,0.04 -0.09,0.04 -0.09,0.03 -0.09,0.02 -0.1,0.02 -0.09,0.02 -0.1,0 -0.1,0.01 c -0.48,0 -0.91,-0.16 -1.27,-0.51 v 1.94 c 0.2,-0.06 0.53,-0.13 0.85,-0.13 1.23,0 1.92,0.9 1.92,1.03 0,0.06 -0.03,0.11 -0.1,0.11 -0.01,0 -0.03,0 -0.08,-0.03 -0.2,-0.09 -0.68,-0.29 -1.35,-0.29 -0.4,0 -0.86,0.07 -1.32,0.28 -0.08,0.03 -0.1,0.03 -0.12,0.03 -0.1,0 -0.1,-0.08 -0.1,-0.24 v -2.94 c 0,-0.18 0,-0.26 0.14,-0.26 0.07,0 0.09,0.03 0.13,0.09 0.11,0.16 0.47,0.7 1.28,0.7 0.52,0 0.77,-0.46 0.85,-0.64 0.15,-0.36 0.17,-0.75 0.17,-1.25 0,-0.35 0,-0.94 -0.24,-1.36 -0.23,-0.39 -0.6,-0.65 -1.06,-0.65 -0.73,0 -1.29,0.53 -1.46,1.12 0.03,-0.01 0.06,-0.02 0.17,-0.02 0.32,0 0.49,0.25 0.49,0.48 0,0.24 -0.17,0.49 -0.49,0.49 -0.14,0 -0.49,-0.07 -0.49,-0.53 0,-0.85 0.69,-1.81 1.8,-1.81 1.15,0 2.17,0.95 2.17,2.21 z"
       id="path11627" /></g>  <g
     style="font-style:normal;font-variant:normal;font-weight:normal;font-stretch:normal;letter-spacing:normal;word-spacing:normal;text-anchor:start;fill:none;stroke:#000000;stroke-width:1.00087845;stroke-linecap:butt;stroke-linejoin:miter;stroke-miterlimit:10.43299961;stroke-opacity:1;stroke-dasharray:none;stroke-dashoffset:0"
     ns0:preamble=""
     ns0:text="$4$"
     word-spacing="normal"
     letter-spacing="normal"
     font-size-adjust="none"
     font-stretch="normal"
     font-weight="normal"
     font-variant="normal"
     font-style="normal"
     stroke-miterlimit="10.433"
     xml:space="preserve"
     transform="matrix(2.003215,0,0,-1.9932865,36.471452,1490.5549)"
     id="g11955"><path
       id="path11957"
       d="m 226.36,708.76 v -0.86 c 0,-0.36 -0.02,-0.47 -0.76,-0.47 h -0.21 v -0.31 c 0.41,0.04 0.93,0.04 1.35,0.04 0.41,0 0.94,0 1.35,-0.04 v 0.31 h -0.21 c -0.74,0 -0.76,0.11 -0.76,0.47 v 0.86 h 1 v 0.31 h -1 v 4.52 c 0,0.2 0,0.26 -0.16,0.26 -0.09,0 -0.11,0 -0.2,-0.12 l -3.05,-4.66 h 0.28 l 2.43,3.71 v -3.71 h -2.43 -0.28 v -0.31 z"
       inkscape:connector-curvature="0"
       style="fill:#000000;stroke-width:0" /></g>  <g
     id="g12281"
     transform="matrix(2.003215,0,0,-1.9932865,56.66735,1520.5305)"
     xml:space="preserve"
     stroke-miterlimit="10.433"
     font-style="normal"
     font-variant="normal"
     font-weight="normal"
     font-stretch="normal"
     font-size-adjust="none"
     letter-spacing="normal"
     word-spacing="normal"
     ns0:text="$3$"
     ns0:preamble=""
     style="font-style:normal;font-variant:normal;font-weight:normal;font-stretch:normal;letter-spacing:normal;word-spacing:normal;text-anchor:start;fill:none;stroke:#000000;stroke-width:1.00087845;stroke-linecap:butt;stroke-linejoin:miter;stroke-miterlimit:10.43299961;stroke-opacity:1;stroke-dasharray:none;stroke-dashoffset:0"><path
       style="fill:#000000;stroke-width:0"
       inkscape:connector-curvature="0"
       d="m 226.32,710.62 0.07,0.03 0.08,0.03 0.07,0.03 0.07,0.03 0.07,0.04 0.07,0.04 0.06,0.04 0.07,0.04 0.06,0.04 0.06,0.05 0.06,0.05 0.06,0.05 0.05,0.05 0.05,0.05 0.05,0.06 0.05,0.05 0.04,0.06 0.05,0.06 0.04,0.06 0.03,0.06 0.04,0.07 0.03,0.06 0.03,0.07 0.03,0.06 0.02,0.07 0.02,0.07 0.02,0.07 0.01,0.07 0.02,0.07 0,0.07 0.01,0.08 0,0.07 c 0,0.81 -0.87,1.37 -1.83,1.37 -1,0 -1.76,-0.59 -1.76,-1.35 0,-0.33 0.22,-0.52 0.51,-0.52 0.3,0 0.5,0.22 0.5,0.51 0,0.5 -0.46,0.5 -0.61,0.5 0.3,0.48 0.96,0.61 1.32,0.61 0.41,0 0.95,-0.22 0.95,-1.11 0,-0.12 -0.02,-0.7 -0.27,-1.13 -0.3,-0.48 -0.64,-0.51 -0.89,-0.52 -0.08,-0.01 -0.32,-0.03 -0.39,-0.03 -0.08,-0.01 -0.15,-0.02 -0.15,-0.12 0,-0.11 0.07,-0.11 0.24,-0.11 h 0.44 c 0.82,0 1.18,-0.67 1.18,-1.65 0,-1.35 -0.68,-1.64 -1.12,-1.64 -0.43,0 -1.17,0.17 -1.52,0.76 0.35,-0.05 0.65,0.17 0.65,0.55 0,0.35 -0.26,0.55 -0.55,0.55 -0.24,0 -0.56,-0.14 -0.56,-0.57 0,-0.91 0.92,-1.56 2.01,-1.56 1.21,0 2.12,0.9 2.12,1.91 0,0.82 -0.63,1.59 -1.66,1.8 z"
       id="path12283" /></g>  <g
     style="font-style:normal;font-variant:normal;font-weight:normal;font-stretch:normal;letter-spacing:normal;word-spacing:normal;text-anchor:start;fill:none;stroke:#000000;stroke-width:1.00087845;stroke-linecap:butt;stroke-linejoin:miter;stroke-miterlimit:10.43299961;stroke-opacity:1;stroke-dasharray:none;stroke-dashoffset:0"
     ns0:preamble=""
     ns0:text="$5$"
     word-spacing="normal"
     letter-spacing="normal"
     font-size-adjust="none"
     font-stretch="normal"
     font-weight="normal"
     font-variant="normal"
     font-style="normal"
     stroke-miterlimit="10.433"
     xml:space="preserve"
     transform="matrix(2.003215,0,0,-1.9932865,146.81202,1490.6312)"
     id="g12603"><path
       id="path12605"
       d="m 227.9,709.12 0,0.11 -0.01,0.11 -0.01,0.11 -0.02,0.1 -0.02,0.11 -0.02,0.1 -0.03,0.1 -0.04,0.1 -0.03,0.1 -0.04,0.09 -0.05,0.09 -0.05,0.09 -0.05,0.09 -0.05,0.08 -0.06,0.08 -0.06,0.07 -0.07,0.08 -0.07,0.06 -0.07,0.07 -0.07,0.06 -0.08,0.06 -0.08,0.05 -0.08,0.05 -0.08,0.04 -0.09,0.04 -0.09,0.04 -0.09,0.03 -0.09,0.02 -0.1,0.02 -0.09,0.02 -0.1,0 -0.1,0.01 c -0.48,0 -0.91,-0.16 -1.27,-0.51 v 1.94 c 0.2,-0.06 0.53,-0.13 0.85,-0.13 1.23,0 1.92,0.9 1.92,1.03 0,0.06 -0.03,0.11 -0.1,0.11 -0.01,0 -0.03,0 -0.08,-0.03 -0.2,-0.09 -0.68,-0.29 -1.35,-0.29 -0.4,0 -0.86,0.07 -1.32,0.28 -0.08,0.03 -0.1,0.03 -0.12,0.03 -0.1,0 -0.1,-0.08 -0.1,-0.24 v -2.94 c 0,-0.18 0,-0.26 0.14,-0.26 0.07,0 0.09,0.03 0.13,0.09 0.11,0.16 0.47,0.7 1.28,0.7 0.52,0 0.77,-0.46 0.85,-0.64 0.15,-0.36 0.17,-0.75 0.17,-1.25 0,-0.35 0,-0.94 -0.24,-1.36 -0.23,-0.39 -0.6,-0.65 -1.06,-0.65 -0.73,0 -1.29,0.53 -1.46,1.12 0.03,-0.01 0.06,-0.02 0.17,-0.02 0.32,0 0.49,0.25 0.49,0.48 0,0.24 -0.17,0.49 -0.49,0.49 -0.14,0 -0.49,-0.07 -0.49,-0.53 0,-0.85 0.69,-1.81 1.8,-1.81 1.15,0 2.17,0.95 2.17,2.21 z"
       inkscape:connector-curvature="0"
       style="fill:#000000;stroke-width:0" /></g>  <g
     id="g12921"
     transform="matrix(2.003215,0,0,-1.9932865,136.02217,1520.4542)"
     xml:space="preserve"
     stroke-miterlimit="10.433"
     font-style="normal"
     font-variant="normal"
     font-weight="normal"
     font-stretch="normal"
     font-size-adjust="none"
     letter-spacing="normal"
     word-spacing="normal"
     ns0:text="$4$"
     ns0:preamble=""
     style="font-style:normal;font-variant:normal;font-weight:normal;font-stretch:normal;letter-spacing:normal;word-spacing:normal;text-anchor:start;fill:none;stroke:#000000;stroke-width:1.00087845;stroke-linecap:butt;stroke-linejoin:miter;stroke-miterlimit:10.43299961;stroke-opacity:1;stroke-dasharray:none;stroke-dashoffset:0"><path
       style="fill:#000000;stroke-width:0"
       inkscape:connector-curvature="0"
       d="m 226.36,708.76 v -0.86 c 0,-0.36 -0.02,-0.47 -0.76,-0.47 h -0.21 v -0.31 c 0.41,0.04 0.93,0.04 1.35,0.04 0.41,0 0.94,0 1.35,-0.04 v 0.31 h -0.21 c -0.74,0 -0.76,0.11 -0.76,0.47 v 0.86 h 1 v 0.31 h -1 v 4.52 c 0,0.2 0,0.26 -0.16,0.26 -0.09,0 -0.11,0 -0.2,-0.12 l -3.05,-4.66 h 0.28 l 2.43,3.71 v -3.71 h -2.43 -0.28 v -0.31 z"
       id="path12923" /></g>  <g
     style="font-style:normal;font-variant:normal;font-weight:normal;font-stretch:normal;letter-spacing:normal;word-spacing:normal;text-anchor:start;fill:none;stroke:#000000;stroke-width:1.00087845;stroke-linecap:butt;stroke-linejoin:miter;stroke-miterlimit:10.43299961;stroke-opacity:1;stroke-dasharray:none;stroke-dashoffset:0"
     ns0:preamble=""
     ns0:text="$5$"
     word-spacing="normal"
     letter-spacing="normal"
     font-size-adjust="none"
     font-stretch="normal"
     font-weight="normal"
     font-variant="normal"
     font-style="normal"
     stroke-miterlimit="10.433"
     xml:space="preserve"
     transform="matrix(2.003215,0,0,-1.9932865,235.98396,1521.0156)"
     id="g13235"><path
       id="path13237"
       d="m 227.9,709.12 0,0.11 -0.01,0.11 -0.01,0.11 -0.02,0.1 -0.02,0.11 -0.02,0.1 -0.03,0.1 -0.04,0.1 -0.03,0.1 -0.04,0.09 -0.05,0.09 -0.05,0.09 -0.05,0.09 -0.05,0.08 -0.06,0.08 -0.06,0.07 -0.07,0.08 -0.07,0.06 -0.07,0.07 -0.07,0.06 -0.08,0.06 -0.08,0.05 -0.08,0.05 -0.08,0.04 -0.09,0.04 -0.09,0.04 -0.09,0.03 -0.09,0.02 -0.1,0.02 -0.09,0.02 -0.1,0 -0.1,0.01 c -0.48,0 -0.91,-0.16 -1.27,-0.51 v 1.94 c 0.2,-0.06 0.53,-0.13 0.85,-0.13 1.23,0 1.92,0.9 1.92,1.03 0,0.06 -0.03,0.11 -0.1,0.11 -0.01,0 -0.03,0 -0.08,-0.03 -0.2,-0.09 -0.68,-0.29 -1.35,-0.29 -0.4,0 -0.86,0.07 -1.32,0.28 -0.08,0.03 -0.1,0.03 -0.12,0.03 -0.1,0 -0.1,-0.08 -0.1,-0.24 v -2.94 c 0,-0.18 0,-0.26 0.14,-0.26 0.07,0 0.09,0.03 0.13,0.09 0.11,0.16 0.47,0.7 1.28,0.7 0.52,0 0.77,-0.46 0.85,-0.64 0.15,-0.36 0.17,-0.75 0.17,-1.25 0,-0.35 0,-0.94 -0.24,-1.36 -0.23,-0.39 -0.6,-0.65 -1.06,-0.65 -0.73,0 -1.29,0.53 -1.46,1.12 0.03,-0.01 0.06,-0.02 0.17,-0.02 0.32,0 0.49,0.25 0.49,0.48 0,0.24 -0.17,0.49 -0.49,0.49 -0.14,0 -0.49,-0.07 -0.49,-0.53 0,-0.85 0.69,-1.81 1.8,-1.81 1.15,0 2.17,0.95 2.17,2.21 z"
       inkscape:connector-curvature="0"
       style="fill:#000000;stroke-width:0" /></g></svg>
