<?xml version="1.0" encoding="UTF-8" standalone="no"?>
<!-- Created with Inkscape (http://www.inkscape.org/) -->

<svg
   xmlns:ns0="http://www.iki.fi/pav/software/textext/"
   xmlns:dc="http://purl.org/dc/elements/1.1/"
   xmlns:cc="http://creativecommons.org/ns#"
   xmlns:rdf="http://www.w3.org/1999/02/22-rdf-syntax-ns#"
   xmlns:svg="http://www.w3.org/2000/svg"
   xmlns="http://www.w3.org/2000/svg"
   xmlns:sodipodi="http://sodipodi.sourceforge.net/DTD/sodipodi-0.dtd"
   xmlns:inkscape="http://www.inkscape.org/namespaces/inkscape"
   width="497.40625"
   height="58.15625"
   id="svg4551"
   version="1.1"
   inkscape:version="0.48.4 r9939"
   sodipodi:docname="Neues Dokument 11">
  <sodipodi:namedview
     id="base"
     pagecolor="#ffffff"
     bordercolor="#666666"
     borderopacity="1.0"
     inkscape:pageopacity="0.0"
     inkscape:pageshadow="2"
     inkscape:zoom="1.4"
     inkscape:cx="230.61613"
     inkscape:cy="-113.54073"
     inkscape:document-units="px"
     inkscape:current-layer="layer1"
     showgrid="false"
     inkscape:object-nodes="true"
     inkscape:object-paths="true"
     inkscape:window-width="1615"
     inkscape:window-height="1026"
     inkscape:window-x="65"
     inkscape:window-y="24"
     inkscape:window-maximized="1"
     inkscape:snap-object-midpoints="true"
     inkscape:snap-center="true"
     fit-margin-top="0"
     fit-margin-left="0"
     fit-margin-right="0"
     fit-margin-bottom="0" />
  <defs
     id="defs4553" />
  <metadata
     id="metadata4556">
    <rdf:RDF>
      <cc:Work
         rdf:about="">
        <dc:format>image/svg+xml</dc:format>
        <dc:type
           rdf:resource="http://purl.org/dc/dcmitype/StillImage" />
        <dc:title></dc:title>
      </cc:Work>
    </rdf:RDF>
  </metadata>
  <g
     id="layer1"
     inkscape:groupmode="layer"
     inkscape:label="Ebene 1"
     transform="translate(-100.9375,-134.71875)">
    <rect
       y="135.21933"
       x="101.42857"
       height="57.142857"
       width="496.42856"
       id="rect4559"
       style="fill:none;stroke:#000000;stroke-width:0.99999994;stroke-linecap:butt;stroke-miterlimit:4;stroke-opacity:1;stroke-dasharray:none;stroke-dashoffset:0" />
    <path
       inkscape:connector-curvature="0"
       id="path5071"
       d="m 350,135.21933 0,57.14285"
       style="fill:none;stroke:#000000;stroke-width:1;stroke-linecap:butt;stroke-linejoin:miter;stroke-miterlimit:4;stroke-opacity:1;stroke-dasharray:1, 1;stroke-dashoffset:0" />
    <path
       style="fill:none;stroke:#000000;stroke-width:1;stroke-linecap:butt;stroke-linejoin:miter;stroke-miterlimit:4;stroke-opacity:1;stroke-dasharray:none;stroke-dashoffset:0"
       d="m 161.42857,135.21933 0,57.14285"
       id="path5073"
       inkscape:connector-curvature="0" />
    <path
       inkscape:connector-curvature="0"
       id="path5075"
       d="m 267.14286,135.21933 0,57.14285"
       style="fill:none;stroke:#000000;stroke-width:1;stroke-linecap:butt;stroke-linejoin:miter;stroke-miterlimit:4;stroke-opacity:1;stroke-dasharray:none;stroke-dashoffset:0" />
    <path
       style="fill:none;stroke:#000000;stroke-width:1;stroke-linecap:butt;stroke-linejoin:miter;stroke-miterlimit:4;stroke-opacity:1;stroke-dasharray:none;stroke-dashoffset:0"
       d="m 367.14286,135.21933 0,57.14285"
       id="path5077"
       inkscape:connector-curvature="0" />
    <path
       inkscape:connector-curvature="0"
       id="path5079"
       d="m 397.14286,135.21933 0,57.14285"
       style="fill:none;stroke:#000000;stroke-width:1;stroke-linecap:butt;stroke-linejoin:miter;stroke-miterlimit:4;stroke-opacity:1;stroke-dasharray:none;stroke-dashoffset:0" />
    <path
       style="fill:none;stroke:#000000;stroke-width:1;stroke-linecap:butt;stroke-linejoin:miter;stroke-miterlimit:4;stroke-opacity:1;stroke-dasharray:none;stroke-dashoffset:0"
       d="m 465.71429,135.21933 0,57.14285"
       id="path5081"
       inkscape:connector-curvature="0" />
    <rect
       y="135.21933"
       x="267.14285"
       height="57.142849"
       width="100"
       id="rect5083"
       style="fill:#000000;fill-opacity:0.35620919;stroke:#000000;stroke-width:1;stroke-linecap:butt;stroke-miterlimit:4;stroke-opacity:1;stroke-dasharray:none;stroke-dashoffset:0" />
    <g
       style="font-style:normal;font-variant:normal;font-weight:normal;font-stretch:normal;letter-spacing:normal;word-spacing:normal;text-anchor:start;fill:none;stroke:#000000;stroke-linecap:butt;stroke-linejoin:miter;stroke-miterlimit:10.43299961;stroke-opacity:1;stroke-dasharray:none;stroke-dashoffset:0"
       id="g5114"
       transform="matrix(2,0,0,-2,-240.00001,1584.6429)"
       xml:space="preserve"
       stroke-miterlimit="10.433"
       font-style="normal"
       font-variant="normal"
       font-weight="normal"
       font-stretch="normal"
       font-size-adjust="none"
       letter-spacing="normal"
       word-spacing="normal"
       ns0:text="$1$"
       ns0:preamble=""><path
         style="fill:#000000;stroke-width:0"
         inkscape:connector-curvature="0"
         d="m 226.36,713.48 0,0.01 0,0.01 0,0.02 0,0.01 0,0 0,0.01 0,0.01 0,0.01 0,0.01 0,0.01 0,0.01 0,0.01 0,0 -0.01,0.01 0,0.01 0,0 0,0.01 0,0.01 0,0.01 0,0.01 -0.01,0.01 0,0.01 0,0.01 -0.01,0 0,0.01 -0.01,0.01 0,0 -0.01,0.01 -0.01,0 -0.01,0.01 0,0 -0.01,0 0,0 -0.01,0 0,0 -0.01,0 -0.01,0.01 0,0 -0.01,0 -0.01,0 0,0 -0.01,0 -0.01,0 -0.01,0 0,0 -0.01,0 -0.01,0 -0.01,0 -0.01,0 -0.01,0 -0.01,0 -0.01,0 c -0.62,-0.64 -1.49,-0.64 -1.81,-0.64 v -0.3 c 0.2,0 0.78,0 1.3,0.25 v -5.14 c 0,-0.36 -0.03,-0.48 -0.92,-0.48 h -0.32 v -0.31 c 0.35,0.04 1.21,0.04 1.61,0.04 0.4,0 1.26,0 1.61,-0.04 v 0.31 h -0.32 c -0.89,0 -0.92,0.11 -0.92,0.48 z"
         id="path5116" /></g>    <g
       ns0:preamble=""
       ns0:text="$1$"
       word-spacing="normal"
       letter-spacing="normal"
       font-size-adjust="none"
       font-stretch="normal"
       font-weight="normal"
       font-variant="normal"
       font-style="normal"
       stroke-miterlimit="10.433"
       xml:space="preserve"
       transform="matrix(2,0,0,-2,-134.77715,1584.6508)"
       id="g5118"
       style="font-style:normal;font-variant:normal;font-weight:normal;font-stretch:normal;letter-spacing:normal;word-spacing:normal;text-anchor:start;fill:none;stroke:#000000;stroke-linecap:butt;stroke-linejoin:miter;stroke-miterlimit:10.43299961;stroke-opacity:1;stroke-dasharray:none;stroke-dashoffset:0"><path
         id="path5120"
         d="m 226.36,713.48 0,0.01 0,0.01 0,0.02 0,0.01 0,0 0,0.01 0,0.01 0,0.01 0,0.01 0,0.01 0,0.01 0,0.01 0,0 -0.01,0.01 0,0.01 0,0 0,0.01 0,0.01 0,0.01 0,0.01 -0.01,0.01 0,0.01 0,0.01 -0.01,0 0,0.01 -0.01,0.01 0,0 -0.01,0.01 -0.01,0 -0.01,0.01 0,0 -0.01,0 0,0 -0.01,0 0,0 -0.01,0 -0.01,0.01 0,0 -0.01,0 -0.01,0 0,0 -0.01,0 -0.01,0 -0.01,0 0,0 -0.01,0 -0.01,0 -0.01,0 -0.01,0 -0.01,0 -0.01,0 -0.01,0 c -0.62,-0.64 -1.49,-0.64 -1.81,-0.64 v -0.3 c 0.2,0 0.78,0 1.3,0.25 v -5.14 c 0,-0.36 -0.03,-0.48 -0.92,-0.48 h -0.32 v -0.31 c 0.35,0.04 1.21,0.04 1.61,0.04 0.4,0 1.26,0 1.61,-0.04 v 0.31 h -0.32 c -0.89,0 -0.92,0.11 -0.92,0.48 z"
         inkscape:connector-curvature="0"
         style="fill:#000000;stroke-width:0" /></g>    <g
       style="font-style:normal;font-variant:normal;font-weight:normal;font-stretch:normal;letter-spacing:normal;word-spacing:normal;text-anchor:start;fill:none;stroke:#000000;stroke-linecap:butt;stroke-linejoin:miter;stroke-miterlimit:10.43299961;stroke-opacity:1;stroke-dasharray:none;stroke-dashoffset:0"
       id="g5122"
       transform="matrix(2,0,0,-2,-70.134293,1584.6508)"
       xml:space="preserve"
       stroke-miterlimit="10.433"
       font-style="normal"
       font-variant="normal"
       font-weight="normal"
       font-stretch="normal"
       font-size-adjust="none"
       letter-spacing="normal"
       word-spacing="normal"
       ns0:text="$1$"
       ns0:preamble=""><path
         style="fill:#000000;stroke-width:0"
         inkscape:connector-curvature="0"
         d="m 226.36,713.48 0,0.01 0,0.01 0,0.02 0,0.01 0,0 0,0.01 0,0.01 0,0.01 0,0.01 0,0.01 0,0.01 0,0.01 0,0 -0.01,0.01 0,0.01 0,0 0,0.01 0,0.01 0,0.01 0,0.01 -0.01,0.01 0,0.01 0,0.01 -0.01,0 0,0.01 -0.01,0.01 0,0 -0.01,0.01 -0.01,0 -0.01,0.01 0,0 -0.01,0 0,0 -0.01,0 0,0 -0.01,0 -0.01,0.01 0,0 -0.01,0 -0.01,0 0,0 -0.01,0 -0.01,0 -0.01,0 0,0 -0.01,0 -0.01,0 -0.01,0 -0.01,0 -0.01,0 -0.01,0 -0.01,0 c -0.62,-0.64 -1.49,-0.64 -1.81,-0.64 v -0.3 c 0.2,0 0.78,0 1.3,0.25 v -5.14 c 0,-0.36 -0.03,-0.48 -0.92,-0.48 h -0.32 v -0.31 c 0.35,0.04 1.21,0.04 1.61,0.04 0.4,0 1.26,0 1.61,-0.04 v 0.31 h -0.32 c -0.89,0 -0.92,0.11 -0.92,0.48 z"
         id="path5124" /></g>    <g
       style="font-style:normal;font-variant:normal;font-weight:normal;font-stretch:normal;letter-spacing:normal;word-spacing:normal;text-anchor:start;fill:none;stroke:#000000;stroke-linecap:butt;stroke-linejoin:miter;stroke-miterlimit:10.43299961;stroke-opacity:1;stroke-dasharray:none;stroke-dashoffset:0"
       id="g5130"
       transform="matrix(2,0,0,-2,83.437136,1584.6508)"
       xml:space="preserve"
       stroke-miterlimit="10.433"
       font-style="normal"
       font-variant="normal"
       font-weight="normal"
       font-stretch="normal"
       font-size-adjust="none"
       letter-spacing="normal"
       word-spacing="normal"
       ns0:text="$1$"
       ns0:preamble=""><path
         style="fill:#000000;stroke-width:0"
         inkscape:connector-curvature="0"
         d="m 226.36,713.48 0,0.01 0,0.01 0,0.02 0,0.01 0,0 0,0.01 0,0.01 0,0.01 0,0.01 0,0.01 0,0.01 0,0.01 0,0 -0.01,0.01 0,0.01 0,0 0,0.01 0,0.01 0,0.01 0,0.01 -0.01,0.01 0,0.01 0,0.01 -0.01,0 0,0.01 -0.01,0.01 0,0 -0.01,0.01 -0.01,0 -0.01,0.01 0,0 -0.01,0 0,0 -0.01,0 0,0 -0.01,0 -0.01,0.01 0,0 -0.01,0 -0.01,0 0,0 -0.01,0 -0.01,0 -0.01,0 0,0 -0.01,0 -0.01,0 -0.01,0 -0.01,0 -0.01,0 -0.01,0 -0.01,0 c -0.62,-0.64 -1.49,-0.64 -1.81,-0.64 v -0.3 c 0.2,0 0.78,0 1.3,0.25 v -5.14 c 0,-0.36 -0.03,-0.48 -0.92,-0.48 h -0.32 v -0.31 c 0.35,0.04 1.21,0.04 1.61,0.04 0.4,0 1.26,0 1.61,-0.04 v 0.31 h -0.32 c -0.89,0 -0.92,0.11 -0.92,0.48 z"
         id="path5132" /></g>    <g
       id="g5157"
       transform="matrix(2,0,0,-2,-20.491436,1584.6508)"
       xml:space="preserve"
       stroke-miterlimit="10.433"
       font-style="normal"
       font-variant="normal"
       font-weight="normal"
       font-stretch="normal"
       font-size-adjust="none"
       letter-spacing="normal"
       word-spacing="normal"
       ns0:text="$2$"
       ns0:preamble=""
       style="font-style:normal;font-variant:normal;font-weight:normal;font-stretch:normal;letter-spacing:normal;word-spacing:normal;text-anchor:start;fill:none;stroke:#000000;stroke-linecap:butt;stroke-linejoin:miter;stroke-miterlimit:10.43299961;stroke-opacity:1;stroke-dasharray:none;stroke-dashoffset:0"><path
         d="m 224.7,707.89 1.05,1.02 c 1.55,1.37 2.15,1.91 2.15,2.9 0,1.14 -0.9,1.93 -2.11,1.93 -1.12,0 -1.86,-0.91 -1.86,-1.8 0,-0.55 0.5,-0.55 0.53,-0.55 0.17,0 0.51,0.12 0.51,0.52 0,0.26 -0.18,0.52 -0.52,0.52 -0.08,0 -0.1,0 -0.13,-0.01 0.23,0.65 0.76,1.01 1.34,1.01 0.91,0 1.33,-0.8 1.33,-1.62 0,-0.79 -0.49,-1.58 -1.04,-2.19 l -1.91,-2.13 c -0.11,-0.11 -0.11,-0.13 -0.11,-0.37 h 3.69 l 0.28,1.73 h -0.25 c -0.05,-0.3 -0.12,-0.73 -0.22,-0.88 -0.07,-0.08 -0.72,-0.08 -0.94,-0.08 z"
         id="path5159"
         inkscape:connector-curvature="0"
         style="fill:#000000;stroke-width:0" /></g>    <g
       style="font-style:normal;font-variant:normal;font-weight:normal;font-stretch:normal;letter-spacing:normal;word-spacing:normal;text-anchor:start;fill:none;stroke:#000000;stroke-linecap:butt;stroke-linejoin:miter;stroke-miterlimit:10.43299961;stroke-opacity:1;stroke-dasharray:none;stroke-dashoffset:0"
       ns0:preamble=""
       ns0:text="$3$"
       word-spacing="normal"
       letter-spacing="normal"
       font-size-adjust="none"
       font-stretch="normal"
       font-weight="normal"
       font-variant="normal"
       font-style="normal"
       stroke-miterlimit="10.433"
       xml:space="preserve"
       transform="matrix(2,0,0,-2,-322.85714,1584.6428)"
       id="content"><path
         id="path5208"
         d="m 226.32,710.62 0.07,0.03 0.08,0.03 0.07,0.03 0.07,0.03 0.07,0.04 0.07,0.04 0.06,0.04 0.07,0.04 0.06,0.04 0.06,0.05 0.06,0.05 0.06,0.05 0.05,0.05 0.05,0.05 0.05,0.06 0.05,0.05 0.04,0.06 0.05,0.06 0.04,0.06 0.03,0.06 0.04,0.07 0.03,0.06 0.03,0.07 0.03,0.06 0.02,0.07 0.02,0.07 0.02,0.07 0.01,0.07 0.02,0.07 0,0.07 0.01,0.08 0,0.07 c 0,0.81 -0.87,1.37 -1.83,1.37 -1,0 -1.76,-0.59 -1.76,-1.35 0,-0.33 0.22,-0.52 0.51,-0.52 0.3,0 0.5,0.22 0.5,0.51 0,0.5 -0.46,0.5 -0.61,0.5 0.3,0.48 0.96,0.61 1.32,0.61 0.41,0 0.95,-0.22 0.95,-1.11 0,-0.12 -0.02,-0.7 -0.27,-1.13 -0.3,-0.48 -0.64,-0.51 -0.89,-0.52 -0.08,-0.01 -0.32,-0.03 -0.39,-0.03 -0.08,-0.01 -0.15,-0.02 -0.15,-0.12 0,-0.11 0.07,-0.11 0.24,-0.11 h 0.44 c 0.82,0 1.18,-0.67 1.18,-1.65 0,-1.35 -0.68,-1.64 -1.12,-1.64 -0.43,0 -1.17,0.17 -1.52,0.76 0.35,-0.05 0.65,0.17 0.65,0.55 0,0.35 -0.26,0.55 -0.55,0.55 -0.24,0 -0.56,-0.14 -0.56,-0.57 0,-0.91 0.92,-1.56 2.01,-1.56 1.21,0 2.12,0.9 2.12,1.91 0,0.82 -0.63,1.59 -1.66,1.8 z"
         inkscape:connector-curvature="0"
         style="fill:#000000;stroke-width:0" /></g>  </g>
</svg>
